<svg width="51" height="58" fill="none" xmlns="http://www.w3.org/2000/svg"><path d="M39.231 57.755c-.436-.09-.871-.165-1.307-.27-2.178-.541-3.996-1.668-5.423-3.396-.24-.3-.496-.39-.857-.39-9.3.015-18.599 0-27.898 0C1.462 53.714.2 52.452.2 50.169V9.574c0-2.284 1.262-3.546 3.546-3.546h7.361V4.212c.015-.767.33-1.097 1.097-1.097 1.217 0 2.434-.015 3.65 0 .331 0 .481-.105.647-.39.901-1.668 2.313-2.54 4.206-2.525 1.863 0 3.26.872 4.147 2.524.165.316.36.406.69.406 1.203-.015 2.404-.015 3.606 0 .767 0 1.082.315 1.097 1.097V6.06h7.526c2.059 0 3.381 1.307 3.381 3.365v28.049c1.217.405 2.419.66 3.5 1.171 4.012 1.878 6.265 6.235 5.59 10.622-.677 4.357-4.177 7.812-8.564 8.428-.105.015-.21.075-.3.105-.722-.045-1.443-.045-2.149-.045ZM11.107 7.817H3.595c-1.096 0-1.607.511-1.607 1.638v40.834c0 1.126.51 1.637 1.653 1.637h26.831c.18 0 .346-.015.571-.03-1.322-3.215-1.247-6.325.496-9.285 1.728-2.96 4.402-4.552 7.797-5.002V9.35c0-.917-.51-1.488-1.382-1.503-2.509-.015-5.018 0-7.542 0-.045 0-.105.03-.195.06v1.788c-.015.736-.33 1.067-1.067 1.067H12.16c-.736 0-1.052-.33-1.067-1.067.015-.616.015-1.217.015-1.878Zm29.16 31.565c-4.582 0-8.307 3.71-8.307 8.277 0 4.568 3.725 8.308 8.293 8.308 4.567 0 8.308-3.725 8.308-8.278 0-4.582-3.711-8.307-8.293-8.307ZM28.415 4.902h-3.756c-.736 0-.946-.15-1.187-.856-.33-.991-.991-1.667-1.998-1.953-1.547-.435-3.08.391-3.59 1.968-.195.601-.526.872-1.142.842-.51-.015-1.007 0-1.517 0H12.94v4.011h15.474V4.903Z" fill="#202020"/><path d="M7.502 19.28v-2.479c0-.72.315-1.036 1.021-1.051 1.683-.015 3.38-.015 5.063 0 .676 0 .992.345 1.007 1.021.015 1.683.015 3.366 0 5.063 0 .631-.33.992-.977.992-1.697.015-3.41.015-5.108 0-.676-.015-.991-.346-.991-1.022-.03-.841-.015-1.682-.015-2.524Zm5.243-1.682H9.32v3.395h3.425v-3.395ZM7.502 31.344V28.82c0-.676.315-1.007.991-1.022 1.683-.015 3.38-.015 5.063 0 .706 0 1.022.33 1.037 1.052.015 1.668.015 3.335 0 5.003 0 .66-.33 1.021-1.007 1.021-1.682.015-3.38.015-5.063 0-.706-.015-1.006-.345-1.021-1.051-.015-.827 0-1.653 0-2.48Zm5.243-1.713H9.32v3.395h3.425v-3.395ZM7.502 43.378v-2.524c.015-.676.315-1.007.991-1.007 1.683-.015 3.38-.015 5.063 0 .706 0 1.022.346 1.022 1.052.015 1.652.015 3.29 0 4.943 0 .736-.33 1.066-1.067 1.081-1.652.015-3.305.015-4.943 0-.78 0-1.066-.33-1.066-1.127-.015-.81 0-1.622 0-2.418Zm5.243 1.697V41.65h-3.41v3.425h3.41ZM26.251 15.764c2.149 0 4.312-.014 6.46.016.33 0 .752.15.977.39.405.436.12 1.172-.48 1.337-.226.06-.482.06-.722.06H20.002c-.21 0-.421 0-.616-.03-.496-.09-.767-.405-.752-.901.015-.496.3-.811.797-.841.495-.03 1.006-.015 1.517-.015 1.773-.03 3.546-.015 5.303-.015ZM26.236 21.038h6.295c.18 0 .375 0 .555.015.466.075.736.345.767.826.014.496-.24.811-.737.917-.18.03-.375.045-.556.045H19.91c-.134 0-.27 0-.39-.015-.556-.06-.886-.406-.886-.902s.36-.841.901-.871c.166-.015.33 0 .511 0 2.058-.015 4.131-.015 6.19-.015ZM26.266 27.798h6.235c.18 0 .375-.015.556.015.495.06.78.36.78.857.016.495-.27.81-.765.886-.18.03-.376.03-.556.03h-12.53c-.931 0-1.352-.285-1.352-.886-.015-.616.406-.902 1.322-.902h6.31ZM26.296 33.087h6.46c.69 0 1.051.27 1.096.796.03.496-.18.826-.675.947-.196.045-.406.045-.617.045H19.97c-.164 0-.345 0-.51-.03-.51-.076-.826-.421-.826-.902.015-.48.345-.826.856-.871.33-.03.676-.015 1.007-.015 1.938.015 3.86.03 5.799.03ZM23.487 39.832h3.65c.722 0 1.112.33 1.097.901-.015.556-.375.887-1.066.887-2.494.015-4.988 0-7.482 0-.466 0-.856-.165-1.007-.646-.12-.39-.015-.766.346-.977.21-.12.496-.165.751-.165 1.232-.015 2.464 0 3.71 0ZM23.456 45.12h3.711c.691 0 1.067.316 1.082.872.015.556-.36.916-1.037.916-2.509.015-5.018.015-7.527 0-.66 0-1.051-.39-1.021-.931.015-.526.39-.841 1.036-.857 1.232-.015 2.494 0 3.756 0ZM38.826 49.417c1.397-1.352 2.749-2.674 4.101-3.996.466-.466.916-.931 1.382-1.397.45-.436.962-.466 1.337-.105.376.36.376.916-.06 1.352-1.983 2.013-3.981 4.026-5.964 6.024-.48.48-.947.48-1.427.015a334.018 334.018 0 0 1-3.26-3.26c-.436-.436-.451-.976-.076-1.352.376-.376.902-.346 1.352.09.887.902 1.758 1.788 2.615 2.63Z" fill="#202020"/></svg>