<svg width="58" height="58" fill="none" xmlns="http://www.w3.org/2000/svg"><path d="M32.852 0c.43.238.725.578.555 1.099-.159.532-.612.6-1.088.6-2.458 0-4.905-.034-7.363.012-3.818.068-6.842 3.205-6.831 7.023 0 .09.011.181.011.159 1.031.52 2.005 1.008 2.98 1.495.498.25.974.555 1.495.725 3.002 1.02 4.565 3.194 5.007 6.253.17 1.167.17 2.345.589 3.49.351.95.08 1.936-.306 2.842 2.436 1.813 1.892 6.299.363 7.885-.691.714-1.496.963-2.459.883-.136.669-.26 1.315-.396 2.028h9.482c.997 0 1.212.181 1.359 1.178.193 1.348.125 2.674-.555 3.909 1.2-.069 2.424-1.247 2.719-2.459.113-.475.192-.963.215-1.45.056-.94.283-1.19 1.257-1.19 3.059 0 6.117-.01 9.176 0 2.22.012 4.09-.758 5.562-2.446 1.076-1.235 1.677-2.696 1.677-4.339.022-6.4.045-12.8 0-19.2-.023-3.784-3.15-6.775-6.99-6.798-4.112-.022-8.201 0-12.302 0h-.453c-.487.023-.929-.068-1.088-.6-.158-.521.125-.861.555-1.099h14.274c.08.034.159.09.25.102 3.703.589 6.479 3.206 7.272 6.842.056.25.124.499.181.76v20.73c-.25.86-.397 1.778-.77 2.582-1.632 3.444-4.407 5.143-8.202 5.166-2.719.023-5.437.011-8.156 0-.442 0-.6.113-.669.578-.317 2.401-1.982 4.146-4.463 4.644-.759.159-1.53.215-2.3.272-.702.045-1.132-.26-1.245-.804-.102-.499.18-.952.77-1.235 1.382-.657 1.96-1.914 1.54-3.455h-.645c-2.889 0-5.778.011-8.666-.011-.374 0-.567.102-.748.43-1.257 2.277-3.081 3.931-5.494 4.917-.408.17-.51.373-.499.792.035.997.012.997.94 1.303.556.181 1.134.318 1.655.567 1.97.94 3.93 1.892 5.313 3.681.35.454.362.94.01 1.27-.373.35-.871.316-1.29-.16-.726-.826-1.507-1.585-2.493-2.095-.113-.057-.226-.102-.408-.181 0 1.042-.022 2.016.012 2.99.023.668-.159 1.212-.77 1.507-.794.385-1.054.997-.918 1.824.124.747-.215 1.246-.838 1.642-.725.465-1.405 1.008-2.198 1.586h9.686a11.588 11.588 0 0 0-.352-3.84c-.238-.884-.102-1.348.465-1.507.544-.158.906.193 1.167 1.076.498 1.688.487 3.433.419 5.166-.012.295-.351.578-.533.861H1.246c-.442-.283-.6-.68-.578-1.2.034-.714-.011-1.44.023-2.153.17-2.923 1.178-5.506 3.24-7.635 1.303-1.337 2.98-2.062 4.61-2.844.68-.317 1.428-.498 2.13-.736.125-.045.329-.09.34-.159.045-.464.09-.94.045-1.393-.011-.136-.306-.272-.498-.351-2.798-1.2-4.826-3.183-5.981-6.004-.397-.963-.6-2.005-.895-3.025-1.688-.068-2.628-.713-3.206-2.265C.283 29.68.159 29.102 0 28.547V26.96c.034-.159.08-.329.102-.487.136-.895.453-1.722 1.133-2.345.272-.25.317-.453.215-.77-.283-.827-.215-1.666-.068-2.515.102-.533.193-1.076.181-1.609-.045-1.461.17-2.877.895-4.146.487-.86 1.144-1.631 1.779-2.39.294-.363.736-.351 1.121-.046.363.295.397.748.09 1.167-.124.17-.271.306-.407.465-1.36 1.518-1.903 3.296-1.745 5.324.034.396 0 .827-.124 1.2-.578 1.7.034 3.263 1.71 4.136.284-.397.556-.827.884-1.213.374-.441.748-.906 1.2-1.257 1.496-1.144 3.24-1.53 5.087-1.62 1.167-.057 2.345-.057 3.49-.227 1.211-.17 2.265-.713 2.922-1.823.215-.363.498-.623.963-.555.464.068.645.407.77.804.329 1.053.918 1.926 1.756 2.65.781.68 1.28 1.564 1.642 2.538.363.986.646 1.031 1.462.374 1.37-1.11 1.892-2.515 1.337-3.874a4.635 4.635 0 0 1-.363-2.028c.011-.317-.045-.634-.08-.963-.249-2.741-1.902-4.588-4.599-5.177-.249-.056-.464-.215-.69-.34-.794-.453-1.541-1.03-2.39-1.348-1.677-.634-3.467-.623-5.189-.26-1.631.34-3.217.895-4.826 1.382-.589.17-1.065.023-1.235-.442-.17-.464.034-.895.578-1.133 1.926-.815 3.92-1.404 5.993-1.597.929-.09 1.869-.102 2.81-.147.01-.125.022-.238.022-.351C16.64 4.27 19.439.997 23.416.17c.237-.045.464-.113.702-.17h8.734ZM18.929 20.866c-1.008.884-2.265 1.382-3.636 1.53-1.042.113-2.107.079-3.16.147-2.255.125-4.294.657-5.472 2.866-.193.363-.612.6-.895.929-.147.159-.317.374-.317.566-.023 1.53-.034 3.059-.011 4.588.067 4.724 3.738 8.632 8.292 9.108 4.486.476 8.88-2.447 10.06-6.785.622-2.323.203-4.69.362-7.07-1.213-.147-1.756-.95-2.175-1.948a6.861 6.861 0 0 0-.963-1.642c-.635-.782-1.348-1.496-2.085-2.289Zm-16.493 35.4h9.685l-1.586-1.155c-1.722-1.268-1.439-.827-1.484-2.832 0-.215-.17-.464-.317-.645-.159-.182-.374-.318-.59-.442-.565-.329-.78-.804-.758-1.462.034-.996.011-1.982.011-3.002-3.058 1.02-5.46 5.642-4.961 9.539Zm10.988-1.155c-.816-3.42-1.586-6.683-2.38-9.991-.577.193-1.064.374-1.574.521-.306.09-.408.25-.396.566a71.422 71.422 0 0 1 0 3.116c-.011.34.08.589.385.736 1.099.532 1.495 1.416 1.303 2.594a.86.86 0 0 0 0 .34c.022.102.056.226.136.283.793.578 1.597 1.167 2.526 1.835Zm2.719 0c.815-.589 1.46-1.087 2.152-1.552.385-.249.6-.532.521-1.008-.193-1.121.204-1.948 1.235-2.458.08-.045.17-.09.226-.17.091-.136.204-.283.204-.43.012-1.156.012-2.3 0-3.456 0-.113-.102-.294-.204-.34-.555-.215-1.133-.385-1.744-.588-.805 3.33-1.575 6.581-2.39 10.002Zm-3.138-9.096c.589 2.458 1.155 4.848 1.722 7.239.034 0 .067-.012.101-.012.567-2.401 1.133-4.803 1.711-7.227h-3.534Zm14.001-20.912c-.34.317-.589.521-.804.76-.147.158-.351.339-.363.52-.034 1.428-.01 2.855-.01 4.282.758.181 1.223-.034 1.562-.793.533-1.178.657-2.401.25-3.636-.125-.396-.397-.736-.635-1.133Zm-24.491.215c-1.178.827-1.008 4.226.124 5.143.261.204.68.227 1.1.352 0-1.541.01-2.89-.012-4.248 0-.16-.113-.352-.227-.465-.305-.26-.645-.51-.985-.782Zm14.217 18.975v-1.994h-3.886v1.994h3.886Z" fill="#202020"/><path d="M32.591 22.464c-1.552-1.031-1.87-1.847-1.348-3.523-.646-.43-1.178-.963-1.337-1.779-.158-.815.034-1.53.499-2.118-.193-.51-.442-.974-.521-1.462-.216-1.416.77-2.718 2.197-2.82 1.45-.102 2.9-.046 4.35-.125.895-.045 1.79-.204 2.742-.328-.227-.907-.43-1.7-.623-2.504-.227-.917-.272-1.824.136-2.719.51-1.098 2.401-1.8 3.466-1.212.294.159.544.521.691.839a41.1 41.1 0 0 1 1.144 2.832c.59 1.586 1.575 2.843 2.877 3.92 1.009.837 1.949 1.778 2.844 2.74.668.726.929 1.666.917 2.674-.011 1.722 0 3.432 0 5.154-.011 2.402-1.518 3.942-3.92 3.954-3.85.022-7.702.011-11.554 0-2.073-.011-3.138-1.473-2.56-3.523Zm8.417 1.824c1.903 0 3.817.01 5.72 0 1.428-.012 2.198-.793 2.198-2.22 0-1.723-.011-3.433.011-5.155 0-.634-.124-1.223-.555-1.677-.804-.838-1.62-1.699-2.514-2.424-1.541-1.235-2.708-2.719-3.399-4.565a55.012 55.012 0 0 0-.906-2.254c-.113-.272-.113-.646-.612-.555-.464.09-.804.294-.816.781-.01.465.046.94.148 1.405.158.736.374 1.461.555 2.198.272 1.076-.159 1.846-1.246 2.073-1.054.215-2.119.385-3.183.453-1.28.09-2.56.034-3.852.068-.623.022-.997.373-.986.86.012.51.363.805 1.009.828.589.01 1.166-.012 1.756.01.623.024.985.375.974.873-.012.487-.363.793-.963.816-.646.022-1.28.011-1.926.034-.51.022-.838.351-.85.804-.01.453.306.793.816.838.283.034.566.023.85.023.51.011 1.02-.023 1.529.023.555.045.86.385.827.872-.034.521-.363.77-.861.793-.396.023-.793-.011-1.19.034-.532.056-.826.396-.815.895.011.464.306.736.86.77.34.023.68 0 1.02.034.453.034.737.295.816.736.08.42-.102.737-.464.94-.182.103-.42.17-.522.318-.147.215-.328.521-.271.736.068.238.35.453.589.59.158.09.407.045.611.045h5.642ZM14.874 36.907c-1.982-.034-3.682-.702-4.973-2.266a3.592 3.592 0 0 1-.408-.611c-.249-.465-.136-.952.283-1.178.454-.25.873-.148 1.122.283 1.076 1.846 3.512 2.39 5.437 1.846.94-.26 1.7-.793 2.198-1.654.363-.611.782-.759 1.246-.498.476.272.544.759.193 1.382-.907 1.665-2.889 2.707-5.098 2.696ZM10.478 26.893c.635.159 1.28.283 1.892.498.555.193.737.646.555 1.11-.181.454-.578.658-1.11.454-.86-.317-1.71-.363-2.594-.113-.578.158-1.042-.114-1.156-.6-.101-.454.182-.884.725-1.043a5.39 5.39 0 0 1 .714-.159c.317-.045.635-.079.952-.113.011.011.022-.011.022-.034ZM19.066 26.904c.657.125 1.2.193 1.721.329.544.136.816.589.691 1.053-.124.453-.543.737-1.064.59-.94-.261-1.847-.204-2.765.113-.498.18-.883-.046-1.042-.499-.17-.498.034-.895.487-1.053.68-.238 1.383-.374 1.971-.533Z" fill="#202020"/></svg>