<svg width="59" height="59" fill="none" xmlns="http://www.w3.org/2000/svg"><path d="M7.009 59c-.742-.666-.757-1.029-.09-1.786 4.585-5.205 9.186-10.425 13.773-15.646.136-.151.272-.318.408-.469.484-.5.969-.53 1.468-.03 1.135 1.12 2.24 2.24 3.376 3.36 1.559 1.558 3.118 3.131 4.692 4.69 1.301 1.301 2.89 1.301 4.192 0 5.358-5.357 10.716-10.698 16.06-16.055.802-.802 1.104-.787 1.922.015.469.47.938.923 1.407 1.392.03.016.06.016.151.046.833-4.056 1.68-8.11 2.543-12.287-3.875 1.15-7.658 2.254-11.548 3.404l1.665 1.665c.772.772.772 1.135.015 1.891l-13.38 13.377c-.772.772-1.135.772-1.937-.015l-7.765-7.763c-1.393-1.392-2.997-1.362-4.344.091-5.6 6.037-11.2 12.06-16.8 18.097-.727.787-1.166.787-1.847.016v-.681c4.223-4.555 8.445-9.094 12.668-13.65 1.574-1.709 3.164-3.404 4.738-5.114 1.892-2.042 4.752-2.148 6.735-.181 2.361 2.33 4.707 4.69 7.053 7.051.167.167.288.348.379.454l12.76-12.756c-.667-.65-1.424-1.392-2.18-2.133-.681-.697-.5-1.423.439-1.695 4.692-1.392 9.399-2.785 14.106-4.162.893-.257 1.453.273 1.272 1.18-1.045 5.04-2.074 10.078-3.149 15.117a1.49 1.49 0 0 1-.666.878c-.378.227-.741-.045-1.044-.348-.742-.757-1.483-1.498-2.27-2.3a383 383 0 0 0-2.513 2.542L36.16 50.33c-2.119 2.118-4.798 2.118-6.902.015-2.315-2.3-4.616-4.616-6.932-6.93-.136-.152-.227-.349-.363-.576-1.256 1.423-2.361 2.679-3.466 3.934-3.436 3.89-6.857 7.793-10.292 11.682-.167.197-.364.363-.545.545h-.651ZM54.156 59c-.454-.318-.575-.757-.575-1.316.015-5.78.015-11.546.015-17.326 0-.167-.015-.348.015-.515.091-.484.394-.787.893-.787.5 0 .803.288.893.787.03.167.016.333.016.515 0 5.78 0 11.545.015 17.326 0 .56-.121.998-.575 1.316h-.697Z" fill="#202020"/><path d="M43.274 59c-.454-.318-.575-.757-.575-1.316.015-3.965.015-7.93.015-11.894 0-.166-.015-.348.016-.514.09-.485.393-.787.893-.787.499 0 .802.287.893.787.03.166.015.332.015.514 0 3.965-.015 7.93.015 11.894 0 .56-.121.998-.575 1.316h-.697ZM24.233 59c-.454-.318-.575-.757-.575-1.316.015-3.057.015-6.114.015-9.17 0-.152-.015-.303 0-.454.06-.5.424-.848.893-.848.47 0 .848.348.893.848.03.333.015.68.015 1.014 0 2.86-.015 5.735.016 8.594 0 .56-.121 1-.575 1.317-.228.015-.455.015-.682.015ZM16.075 59c-.454-.318-.59-.757-.575-1.316.03-1.604.015-3.208.015-4.812 0-.712.333-1.12.908-1.12.56 0 .909.408.909 1.12 0 1.604-.016 3.208.015 4.812.015.56-.121.983-.576 1.316h-.696ZM35.116 59c-.454-.318-.59-.757-.575-1.317.03-1.3.015-2.602.015-3.904 0-.71.333-1.12.908-1.12.56 0 .909.41.909 1.12 0 1.302-.016 2.603.015 3.904.015.56-.121.984-.575 1.317h-.697ZM53.582 2.83h-9.066V21.686c-.016.666-.364 1.075-.924 1.06-.545-.016-.893-.41-.893-1.09V2.059c0-.741.333-1.074 1.075-1.074h10.534c.742 0 1.075.333 1.075 1.074v15.964c0 .666-.348 1.075-.893 1.09-.56 0-.908-.409-.908-1.12V2.831ZM34.54 20.959h-9.066v8.58c0 .166.015.348-.015.514-.06.5-.424.847-.893.847a.885.885 0 0 1-.893-.847c-.03-.454-.015-.908-.015-1.362v-8.383c0-.893.303-1.195 1.18-1.195h10.308c.893 0 1.196.302 1.196 1.18v14.89c0 .726-.333 1.135-.878 1.15-.575.015-.923-.409-.923-1.165V20.959ZM15.515 31.838H6.45V44.05c0 .181.015.378-.015.56-.091.484-.394.787-.893.787-.5 0-.802-.288-.893-.772-.03-.167-.015-.333-.015-.515V31.324c0-1.044.257-1.316 1.286-1.316H16.06c1 0 1.271.272 1.271 1.27 0 .47.016.939 0 1.408-.015.545-.378.908-.877.923-.515.015-.893-.363-.924-.938-.03-.242-.015-.515-.015-.832Z" fill="#202020"/></svg>