<svg width="53" height="58" fill="none" xmlns="http://www.w3.org/2000/svg"><path d="M38.19 57.8c-.405-.09-.795-.165-1.2-.255-4.545-1.065-7.575-5.205-7.335-9.975.225-4.425 3.795-8.175 8.295-8.775 7.245-.945 12.84 6.3 10.08 13.05-.045.12-.105.24-.165.36-.255.48-.69.645-1.11.45-.45-.195-.585-.615-.42-1.14.225-.765.525-1.53.63-2.31.555-4.08-2.265-7.935-6.315-8.685-4.05-.75-8.04 1.755-9.075 5.7a7.858 7.858 0 0 0 3.195 8.52c2.79 1.875 6.375 1.8 9.09-.195.09-.06.18-.135.27-.195.45-.3.915-.255 1.215.105.3.375.225.885-.195 1.23-1.32 1.065-2.835 1.71-4.515 1.995-.15.03-.285.075-.42.105-.69.015-1.35.015-2.025.015Z" fill="#202020"/><path d="M4.395 17.81V8.96c0-1.17.54-1.695 1.725-1.695h4.05c1.08 0 1.635.54 1.635 1.62v8.895h5.205c.015-.195.03-.39.03-.585v-4.38c0-1.185.525-1.71 1.725-1.71h3.93c1.215 0 1.725.51 1.725 1.755V17.765c.15.015.255.045.36.045 1.155.075 1.86.795 1.86 1.95v10.545h3.015v-13.59c0-1.275.495-1.755 1.77-1.77h3.825c1.305 0 1.815.51 1.815 1.8v13.56h5.205V20.57c0-1.26.51-1.755 1.77-1.755h4.05c1.035 0 1.575.555 1.59 1.605v9.945h1.89c.225 0 .45 0 .675.015.45.06.705.33.72.78.015.45-.225.75-.66.84-.21.045-.45.03-.675.03H26.67V51.41c0 1.575-.66 2.25-2.25 2.25H3.255c-1.56 0-2.235-.675-2.235-2.205V30.68c0-.165 0-.345.015-.51.06-.42.315-.675.735-.705.45-.03.765.18.87.615.06.24.045.48.045.72v20.43c0 .735 0 .735.72.735H24.24c.72 0 .72 0 .72-.735V20.18c0-.72 0-.72-.735-.72H3.45c-.765 0-.765 0-.765.75v5.73c0 .225 0 .45-.075.66-.12.42-.45.6-.87.555-.39-.03-.66-.27-.72-.66-.03-.165-.03-.33-.03-.51v-6.06c0-1.44.705-2.145 2.13-2.145.39.03.795.03 1.275.03Zm30.9 12.525V16.67H31.35v13.665h3.945Zm12.63-.015v-9.795h-3.96v9.795h3.96ZM6.12 8.96v8.805h3.93V8.96H6.12Zm12.615 3.855v4.95h3.93v-4.95h-3.93Z" fill="#202020"/><path d="M13.83 32.285h6.286c1.14 0 1.71.54 1.71 1.665.014 4.23.014 8.46 0 12.69 0 1.155-.585 1.71-1.74 1.71H7.455c-1.14 0-1.726-.585-1.726-1.74V34.04c0-1.2.57-1.755 1.74-1.755h6.36Zm6.3 8.925h-5.444v5.445h5.445V41.21Zm-.014-1.74v-5.46h-5.43v5.46h5.43ZM7.47 34.01v5.445h5.43V34.01H7.47Zm5.446 12.645v-5.46h-5.46v5.46h5.46ZM48.045 10.67c-.525-.825-.975-1.53-1.425-2.25-.375-.585-.315-1.08.15-1.365.45-.27.9-.12 1.26.45.72 1.14 1.455 2.265 2.175 3.405.6.945.39 1.755-.6 2.31-1.185.66-2.4 1.305-3.6 1.95-.555.3-1.02.195-1.275-.24-.27-.465-.09-.93.48-1.245.765-.42 1.545-.84 2.445-1.335-1.005-.27-1.89-.495-2.775-.72-12.39-3.195-24.75-6.39-37.125-9.6l-.225-.045c-.54-.165-.795-.585-.675-1.05.12-.465.57-.705 1.11-.57 1.605.405 3.225.84 4.83 1.245 11.58 3 23.145 5.985 34.725 8.985.12.03.255.03.525.075ZM13.8 29.165H7.455c-1.125 0-1.71-.57-1.725-1.68-.015-.9-.015-1.8 0-2.7.015-1.08.6-1.68 1.665-1.68H20.13c1.08 0 1.665.57 1.68 1.665.015.915.015 1.83 0 2.745-.015 1.095-.6 1.65-1.695 1.65H13.8Zm6.33-4.335H7.485v2.61H20.13v-2.61ZM36.69 49.91c.33.195.585.315.78.48.63.54 1.335.825 2.16.69.285-.045.57-.195.795-.375.48-.405.435-.915-.09-1.26-.33-.21-.705-.345-1.065-.51-.495-.21-1.005-.39-1.5-.6-.9-.39-1.455-1.065-1.44-2.07.015-1.05.54-1.83 1.485-2.25.375-.165.54-.345.525-.765-.015-.615.315-.99.825-.99.525-.015.855.345.84 1.02-.015.39.135.54.495.66.435.15.855.375 1.245.63.48.315.57.795.3 1.215-.27.405-.75.495-1.23.18-.585-.375-1.185-.645-1.89-.51a1.34 1.34 0 0 0-.57.225c-.495.36-.45.885.105 1.14.45.21.93.375 1.395.57.33.135.66.255.975.405.99.51 1.65 1.275 1.59 2.43-.06 1.185-.765 1.965-1.845 2.37-.42.15-.6.3-.57.78.03.57-.33.915-.825.915-.48 0-.855-.36-.825-.93.03-.51-.18-.66-.615-.855-.57-.255-1.095-.645-1.56-1.065-.18-.165-.225-.6-.15-.855.075-.27.405-.435.66-.675Z" fill="#202020"/></svg>