<svg width="157" height="105" fill="none" xmlns="http://www.w3.org/2000/svg"><g clip-path="url(#a)"><path d="M26.901 80c1.1 3.1 44-35.3 27.4-80 0 0-48.8 21.3-27.4 80Z" fill="#3F552A"/><path d="M33.602 83.1c-.2 2.5 41.8-10.4 44.5-46.6 0 0-40.6-.9-44.5 46.6Z" fill="#3F552A"/><path d="M.001 1c11.5 1.3 20.1 8.1 9.2 20.5 16.1 4.5 14.8 15.9 6.5 27.5.3.2.5.5.8.7 8.9-6.6 11.8 6.5 11.9 12.9 9-4.3 13.2 3.7 16.4 10.8 6.8-7.8 14.7-10.1 22.7-2.5 7.2-8 17.2-16.7 29-15.5 14.7 1.4 22.5 16 21.7 28.3 5.8-.9 11.1-6.3 17.3-4 6.4 2.3 9 10 6.6 15.9 8.8-6 14.6.6 14.3 8.4H.001V1Z" fill="#577E3A"/><path d="M.002 104.1V75.2c8.8-6.6 11.8 6.5 11.8 12.9 9-4.3 13.2 3.7 16.4 10.8 6.8-7.8 14.7-10.1 22.7-2.5 7.2-8 17.2-16.7 29-15.5 12.7 1.2 20.3 12.3 21.6 23.2H.002Zm.001-30.8V50.2c7.8 5.3 6.1 14.1 0 23.1Z" fill="#3F552A"/><path d="M26.901 33c.1-.3.5-.4.7-.2.9.9 1.2 2.3 1.7 3.4.5 1.2.9 2.5 1.3 3.7.7 1.9 1.5 3.8 2.2 5.7.8-2.7 1.7-5.3 2.7-8 1.4-3.9 2.9-7.8 4.4-11.6-.3-.4-.5-.9-.6-1.4-.2-.5-.4-1-.5-1.5-.3-.9-.6-1.9-.8-2.9-.3-1-.5-1.9-.7-2.9-.2-.9-.5-2.2.2-2.9.2-.2.4-.2.6-.1.9.4 1 1.6 1.2 2.4.2 1 .5 1.9.8 2.9.3 1 .6 1.9.9 2.9.1.2.2.5.2.7 1.2-2.9 2.5-5.7 3.8-8.6 1-2.1 2.1-4.2 3.1-6.3.5-1 1.1-2.1 1.6-3.1.4-.8.8-1.7 1.7-2 .2 0 .3.1.3.2.4.9-.2 1.8-.6 2.6-.5 1.2-1 2.3-1.5 3.5-1 2.4-2 4.7-3 7.1v.1c1.6-.7 3.1-1.4 4.7-2.1 1.1-.5 2.1-1 3.2-1.4.3-.1 2-.8 2.1-.1.1.8-1.1 1.3-1.7 1.6-.9.5-1.8 1-2.8 1.5-1.8 1-3.7 2-5.5 2.9-.3.1-.7.3-1.1.4-1.4 3.5-2.8 7-4.1 10.6-.8 2-1.5 4.1-2.2 6.1 2.2-.8 4.3-1.5 6.5-2.3 1.4-.5 2.8-1 4.2-1.4 1.4-.5 2.7-.8 4.2-.7.1 0 .1.1.1.2-1 1-2.2 1.5-3.5 2.1-1.4.6-2.8 1.1-4.3 1.7l-8.1 3c-.6 1.7-1.2 3.4-1.7 5-.8 2.4-1.5 4.8-2.3 7.2 1.8-.7 3.7-1.3 5.5-1.8 1.4-.4 2.8-.9 4.2-1.4 1.3-.5 2.6-1.3 4-1.3.1 0 .2.2.2.3-.6 1.2-1.9 2-3.1 2.6-1.4.7-2.8 1.3-4.2 1.8-2.5.9-4.9 1.8-7.3 3-.1.6-.1 1.3 0 1.9 0 .2-.2.4-.3.5-1.3.4-2.2-.8-2.4-2v-.4c-.3-.5-.3-1.1.1-1.5.2-1 .6-2.1.8-3 .1-.3.2-.5.2-.8l-.3-.3c-1.1-2.6-2.1-5.1-3-7.8-.4-1.3-.9-2.6-1.2-3.9-.4-1.3-.9-2.7-.6-3.9ZM37.6 61.5c.3-.4.5-.8 1-1.1l1.2-.9c.7-.5 1.5-1.1 2.2-1.7 1.5-1.3 2.9-2.7 4.2-4.2 1.3-1.5 2.4-3.1 3.4-4.7.5-.8 1-1.7 1.4-2.5.4-.7.7-1.8 1.5-2.1.1-.1.3 0 .3.1.3.8-.2 1.9-.5 2.6-.4.9-.8 1.8-1.3 2.7-1 1.8-2.1 3.5-3.4 5.2-1.3 1.6-2.6 3.1-4.1 4.4-.8.7-1.5 1.3-2.3 1.9-.4.3-.9.7-1.4 1-.5.3-1 .3-1.5.5-.7.1-1.1-.7-.7-1.2Zm7.3 4.1c.3-1.5 1.7-2.7 2.7-3.8.6-.7 1.3-1.4 1.9-2.1-.1-.2-.1-.4-.2-.6-.1-.5-.2-1.1-.2-1.6s-.1-.9 0-1.4c0-.5.1-1.1.4-1.6.2-.4.8-.4 1 0 .3.4.3.9.4 1.4.1.3.1.5.1.8v.5c0 .2.1.4.1.6 2.3-2.4 4.7-4.7 7.2-6.9.2-.2.5-.4.8-.7.1-1.4.2-2.8.3-4.3.1-.7.1-1.4.2-2.2.1-.7.1-1.5.3-2.1.2-.5 1-.6 1.2 0 .2.7.1 1.4.1 2.1 0 .7 0 1.4-.1 2.2 0 .9 0 1.7-.1 2.6.4-.3.7-.6 1.1-.9 0-.3.1-.6.4-.7.3-.1.5-.2.8-.3.9-.7 1.8-1.5 2.8-2.2 1.2-.9 2.5-1.9 3.7-2.8 1.3-1 2.7-2 4.2-2.6.5-.2.7.5.5.8-1.1 1.3-2.6 2.2-3.9 3.2-1.2 1-2.5 1.9-3.7 2.9.6-.1 1.3-.2 1.9-.4 1.1-.2 2.1-.4 3.2-.6.5-.1 1-.1 1.5-.1.6 0 1.1.2 1.7.3.1 0 .2.1.1.2-.5.3-.8.6-1.4.8-.5.2-.9.3-1.4.5-1 .3-2.1.5-3.2.7-1.1.2-2.1.4-3.2.6l-1.5.3c-.2 0-.5.1-.7.2-1.6 1.4-3.1 2.7-4.6 4.1-1.1 1-2.1 2-3.1 3.1.3 0 .6.1.9.1 1.1.1 2.1.2 3.2.2 1 .1 2 .2 3.1.3.9.1 2.1.1 2.8.7.1.1.2.3 0 .4-.8.4-1.9.3-2.7.3-1.1 0-2.1 0-3.2-.1-1 0-2 0-3.1-.1h-1.5c-.4 0-.8 0-1.2-.1-.7.7-1.3 1.4-2 2.1-.9.9-1.7 1.9-2.6 2.8h.5c1.1 0 2.1 0 3.2.1 1 .1 2 .1 3 .3 1 .1 2 .2 2.8.8.1.1.1.3 0 .3-.8.4-1.8.4-2.7.5-1 .1-2.1.1-3.2.2-1 0-2 .1-3 .1-.8 0-1.8.2-2.6.1-.6.7-1.3 1.4-2.2 1.7-.5.4-.9-.2-.8-.7Z" fill="#2E3F1E"/><path d="M86.002 85.6c0-.4.1-.7.3-1.1.4-.8 1.1-1.3 1.8-1.7.5-.4 1.1-.6 1.6-.8-.3-.4-.6-.8-.9-1.1-.4-.5-.8-1-1-1.6-.1-.3-.1-.6-.1-.9v-.3c.1-.6.2-1.2.7-1.6.4-.4 1-.7 1.6-.7.3 0 .6.1.9.2.3.1.5.2.8.3.6.3.9.8 1.3 1.3l.7.9c.2-.3.3-.5.5-.7.3-.3.7-.6 1-.8 1.1-.6 2.3-.6 3.4 0 .5.3.9.7 1.2 1.2.3.5.5 1.1.5 1.7.1.7-.2 1.5-.5 2.1-.1.1-.2.3-.3.4-.1.2-.2.3-.3.5-.1.1-.2.2-.3.4.2 0 .4.1.6.1l1.2.3c.2.1.4.1.6.1.4.1.7.3 1.1.5.5.4.8.9 1 1.5.3.9-.1 2-.7 2.7-.3.4-.8.6-1.3.8-.5.2-1.1.1-1.6 0-.2 0-.4-.1-.6-.1-.4-.1-.9-.2-1.3-.4-.2-.1-.3-.1-.5-.2 0 .2.1.5.1.7.1.9.2 1.9-.4 2.7-.5.7-1.1 1.2-2 1.3-.8.1-1.7-.1-2.3-.7-.8-.8-.9-1.7-1-2.8 0-.4-.1-.8-.1-1.2v-1.3h-.1.1c-.2.1-.4.3-.6.4-.1.1-.2.1-.3.2-.2.1-.3.3-.5.3-.3.2-.6.3-.9.4-.3 0-.5.1-.8.1-.3 0-.5-.1-.8-.1l-.7-.3c-.3-.2-.6-.4-.8-.7-.2-.2-.3-.4-.4-.6-.1-.2-.2-.5-.2-.7.2-.2.2-.4.3-.7Z" fill="#fff"/><path d="M94.603 81c3.6 0 3.6 5.5 0 5.5-3.6.1-3.6-5.5 0-5.5Z" fill="#EBBD3C"/><path d="M70.501 83.5c-.1-.3 0-.5 0-.8.1-.6.6-1.1 1-1.6.3-.3.7-.6 1-.8-.3-.2-.6-.4-.9-.7-.4-.3-.8-.5-1-1-.1-.2-.2-.4-.2-.6 0-.1-.1-.2-.1-.2-.1-.4-.1-.9.2-1.3.2-.3.6-.7 1-.8.2 0 .4-.1.6 0 .2 0 .4 0 .6.1.5.1.8.4 1.2.7l.7.5c.1-.2.1-.4.3-.6.2-.2.4-.5.6-.7.7-.6 1.5-.9 2.4-.6.4.1.8.3 1.1.6.3.3.5.7.6 1.1.2.5.1 1.1 0 1.6 0 .1-.1.2-.1.3 0 .1-.1.3-.1.4 0 .1-.1.2-.1.3h1.9c.3 0 .6.1.9.2.5.2.7.5 1 .9.4.6.3 1.4 0 2.1-.2.3-.5.6-.8.8-.4.2-.8.3-1.2.3h-1.5c-.1 0-.2 0-.4-.1.1.2.1.3.2.5.2.7.5 1.3.2 2-.2.6-.6 1-1.2 1.3-.6.2-1.2.2-1.8-.1-.7-.4-1-1.1-1.2-1.8-.1-.3-.2-.5-.3-.8l-.2-.8v-.1c-.1.1-.2.3-.3.4l-.2.2-.3.3c-.2.2-.4.3-.6.4-.2.1-.4.1-.5.2-.2 0-.4 0-.6.1l-.5-.1c-.3-.1-.5-.2-.7-.4-.2-.1-.3-.2-.4-.4-.1-.1-.2-.3-.3-.5v-.5Z" fill="#fff"/><path d="M75.802 78.7c2.6-.7 3.6 3.3 1 4-2.5.6-3.5-3.3-1-4Z" fill="#EBBD3C"/><path d="M5.7 37.5v-.7c.1-.5.5-.9.8-1.3.2-.3.5-.5.8-.7-.2-.2-.5-.3-.7-.5-.3-.2-.6-.4-.8-.8-.1-.1-.1-.3-.2-.5 0-.1 0-.1-.1-.2 0-.4-.1-.7.1-1 .2-.3.5-.6.8-.6.2 0 .3-.1.5 0 .2 0 .3 0 .5.1.4.1.6.3.9.6l.5.4c.1-.2.1-.3.2-.5s.3-.4.5-.6c.5-.5 1.2-.7 1.9-.5.3.1.6.3.9.5.2.3.4.6.5.9.1.4.1.9 0 1.3 0 .1-.1.2-.1.3 0 .1-.1.2-.1.3 0 .1-.1.2-.1.2H14c.3 0 .5 0 .7.1.4.2.6.4.8.7.3.5.2 1.2 0 1.6-.1.3-.4.5-.6.6-.3.2-.6.2-.9.2h-1.5c.1.1.1.3.2.4.2.5.4 1 .2 1.6-.2.5-.5.8-.9 1-.5.2-1 .2-1.4-.1-.6-.3-.8-.9-1-1.4-.1-.2-.2-.4-.2-.7l-.2-.7v-.1l-.3.3c0 .1-.1.1-.1.2-.1.1-.1.2-.2.3-.1.1-.3.2-.5.3-.1.1-.3.1-.4.2-.1 0-.3 0-.4.1l-.4-.1-.6-.3-.3-.3c-.1-.1-.2-.2-.2-.4-.1.1-.1-.1-.1-.2Z" fill="#fff"/><path d="M9.9 33.6c2-.5 2.9 2.7.8 3.2-2 .5-2.8-2.7-.8-3.2Z" fill="#EBBD3C"/></g><defs><clipPath id="a"><path d="M156.4 0H0v88.1c0 8.837 7.164 16 16 16h140.4V0Z" fill="#fff"/></clipPath></defs></svg>