<svg width="26" height="25" fill="none" xmlns="http://www.w3.org/2000/svg"><path d="M15.154 12.896c-.663-.774-1.326-1.549-2.077-2.275-.419-.338-.75-.725-1.17-1.064A19.576 19.576 0 0 0 10.7 8.63c-.877-.54-1.704-.994-2.433-1.273-.73-.279-1.41-.47-1.955-.624-.136-.038-.408-.115-.495-.066l-.273-.077c-.087.049-.223.01-.31.06-.262.146-.426.467-.318.865l.05.087.097.175.293.523c.245.436.587 1.047 1.065 1.696.342.61.908 1.21 1.522 1.898.332.387.702.639 1.034 1.026.331.387.701.638 1.12.977.702.638 1.54 1.315 2.28 1.817l1.11.754c.37.251.74.502 1.061.666.691.415 1.197.705 1.704.994.457.203.642.328.642.328.136.039.272.077.36.028.31-.06.561-.43.502-.74 0 0-.06-.31-.217-.796-.098-.174-.157-.485-.353-.834l-.538-.96c-.342-.61-.83-1.482-1.494-2.257Z" fill="url(#a)"/><path d="M19.672 5.206c-.098-.174-.234-.212-.332-.387l-.097-.174-.05-.088c-.184-.125-.544-.153-.708.168 0 0-.087.049-.125.185-.087.049-.126.185-.251.37-.164.321-.367.779-.607 1.372-.154.544-.296 1.312-.265 1.982-.028.36-.056.72.053 1.117.06.31.168.709.276 1.106.168.709.471 1.456.726 2.115.255.66.685 1.221.978 1.745.147.262.38.474.478.649.098.174.283.3.468.425l.468.426s.049.087.136.039a.483.483 0 0 0 .61-.343l.154-.544c.028-.36.181-.904.247-1.4.077-.272.018-.583.095-.855.027-.36.017-.583.045-.942-.032-.67-.064-1.34-.144-2.098-.06-.31-.168-.708-.227-1.019-.06-.31-.12-.62-.227-1.019-.207-.572-.461-1.231-.706-1.668-.38-.474-.761-.949-.995-1.162Z" fill="url(#b)"/><path d="M12.43 19.696a6.945 6.945 0 0 0-1.07-.89c-.37-.251-.877-.54-1.421-.694-1.002-.356-2.042-.575-2.887-.446-.447.021-.844.13-1.106.276l-.436.244c-.262.147-.339.42-.28.73 0 0 .099.174.245.436.147.262.43.562.712.862.566.6 1.442 1.14 2.395 1.41.67-.032 1.166.034 1.661.1.496.066.991.132 1.438.111.806.007 1.466-.248 1.466-.248l.087-.049c.262-.147.338-.419.192-.68-.087.048-.293-.524-.995-1.162Z" fill="url(#c)"/><defs><linearGradient id="a" x1="8.575" y1="9.818" x2="16.039" y2="15.621" gradientUnits="userSpaceOnUse"><stop stop-color="#FAD12F"/><stop offset="1" stop-color="#FA7E2F"/></linearGradient><linearGradient id="b" x1="18.625" y1="6.183" x2="20.996" y2="16.197" gradientUnits="userSpaceOnUse"><stop stop-color="#FAD12F"/><stop offset="1" stop-color="#FA7E2F"/></linearGradient><linearGradient id="c" x1="6.936" y1="18.889" x2="12.925" y2="21.096" gradientUnits="userSpaceOnUse"><stop stop-color="#FAD12F"/><stop offset="1" stop-color="#FA7E2F"/></linearGradient></defs></svg>