<?xml version="1.0" encoding="utf-8"?>
<!-- Generator: Adobe Illustrator 26.0.2, SVG Export Plug-In . SVG Version: 6.00 Build 0)  -->
<svg version="1.1" id="Layer_1" xmlns="http://www.w3.org/2000/svg" xmlns:xlink="http://www.w3.org/1999/xlink" x="0px" y="0px"
	 viewBox="0 0 3275.3 511.2" style="enable-background:new 0 0 3275.3 511.2;" xml:space="preserve">
<style type="text/css">
	.st0{fill:#0071BB;}
	.st1{fill:#494848;}
</style>
<path class="st0" d="M312.6,32.7c-26.3-0.3-72.3,0.2-90.4,0.4c-5.9,0.1-11.7,0.5-17.5,1.2c-6.6,0.9-13.1,2-19.7,3.4
	c-48.3,9.7-91.7,35.9-122.8,74.2c-34.3,41.5-50.7,93.9-50.7,145.5c0,52.2,16.7,103.3,49.4,143.7c23.7,29.3,54.5,52,89.5,65.9
	c14,5.5,28.5,9.5,43.3,11.9l26.6-75.2c-6.4-1.5-12.6-3.4-18.7-5.8c-77.7-30.6-115.9-118.3-85.3-195.9c6-15.2,14.4-29.3,24.9-41.9
	c14.7-17.6,33.2-31.5,54.2-40.7c9.5-4.2,19.4-7.5,29.6-9.7c4.5-0.9,9-1.7,13.5-2.3c4-0.5,8-0.8,12-0.8c12.3-0.2,43.4-0.5,61.5-0.3
	c3.9,0,8.5-0.1,13.4-0.1l26-73.7C337.3,32.6,323.3,32.6,312.6,32.7"/>
<path class="st1" d="M563.9,400.8c32.8-40.4,49.9-91.3,49.9-143.5c0-51.6-16.7-103.9-51-145.4c-21.3-26-48.3-46.6-78.9-60.4
	c-14-6.2-28.6-10.8-43.6-14c-6.6-1.4-13.1-2.5-19.7-3.4c-5.8-0.7-11.7-1.1-17.5-1.2c-7.1-0.1-18.6-0.2-31.4-0.3l-26.2,73.6
	c11.9,0.1,23.1,0.2,29.3,0.3c4,0,8,0.3,12,0.8c4.5,0.6,9,1.3,13.5,2.3c10.2,2.2,20.1,5.4,29.6,9.7c21,9.2,39.5,23.1,54.2,40.7
	c46.8,55.8,47.2,137.1,0.9,193.3c-2.9,3.5-5.9,6.8-9,10l-15.1-14.7H346.4l52.5,56.2c-4.3,0.9-8.6,1.5-13,2
	c-12.7,1.5-25.8,1.2-38.8,1.1c-10.3,0-29.7,0.1-34.6,0.1h-1.1c-4.8,0-23.2-0.1-33.5-0.1c-13,0-26,0.4-38.8-1.1l-0.8-0.1l-26.5,74.3
	c16.5,1.4,33.6,0.6,50.3,0.6c17.2-0.1,50.5,0.1,50.5,0.1s33.2-0.2,50.5-0.1c18.9,0.1,38.2,0.8,56.7-1.5c14-1.7,27.8-4.7,41.2-9
	l10,10.7H598l-57.8-56.2C548.7,418.2,556.7,409.8,563.9,400.8"/>
<path class="st0" d="M820.2,214.1l-21.3,35.3h-53.9c-17.6,0.2-34.4-7.1-46.3-20c-5.9-6.5-10.5-14-13.5-22.2
	c-3.3-8.9-5-18.3-4.9-27.9c-0.1-9.4,1.5-18.7,4.9-27.4c3-7.9,7.6-15.2,13.5-21.4c5.8-6,12.8-10.7,20.5-13.7c8.2-3.3,17-4.9,25.8-4.8
	h75.3l-21.4,35.7h-53.9c-4.3,0-8.6,0.8-12.5,2.5c-3.8,1.6-7.1,3.9-10,6.9c-2.9,3.1-5.1,6.7-6.6,10.6c-3.2,8.7-3.2,18.3-0.1,27
	c2.9,7.8,8.9,13.9,16.6,17c4,1.6,8.2,2.4,12.5,2.4L820.2,214.1z"/>
<path class="st0" d="M906.9,109.7c26.1,0,45.7,5.7,58.8,17.1c13.1,11.4,19.7,29.3,19.7,53.8c0,24.7-6.5,42.7-19.6,54.1
	s-32.7,17.1-58.9,17.1c-26.3,0-46-5.7-59-17.1c-13-11.4-19.5-29.4-19.5-54.1c0-24.5,6.5-42.5,19.6-53.8S880.7,109.7,906.9,109.7z
	 M906.9,216c7.1,0.1,14.2-0.4,21.2-1.3c5.8-0.9,10.4-2.6,14-5.2c3.7-2.7,6.4-6.5,7.8-10.8c1.6-4.6,2.4-10.6,2.4-18
	c0-7.4-0.8-13.4-2.4-18c-1.4-4.3-4.1-8-7.7-10.7c-3.6-2.5-8.3-4.3-14-5.1c-14.1-1.8-28.3-1.8-42.4,0c-5.8,0.9-10.4,2.6-14,5.1
	c-3.7,2.6-6.4,6.4-7.8,10.7c-1.6,4.6-2.4,10.6-2.4,18s0.8,13.4,2.4,18c1.4,4.3,4.1,8.1,7.8,10.8c3.6,2.6,8.2,4.3,14,5.2
	C892.7,215.6,899.8,216.1,906.9,216z"/>
<path class="st0" d="M1071.7,163.2c2.4,5.3,4.4,10,6.2,14.1c1.8,4.1,3.3,7.6,4.7,10.8c1.3,3.2,2.5,6,3.5,8.6c1,2.6,2,5.1,3,7.6
	c0.9-2.5,1.8-5,2.8-7.5s2.2-5.4,3.5-8.6s2.9-6.8,4.7-10.8s3.8-8.6,6.2-14l17.2-39c1.7-4,4.2-7.6,7.3-10.6c3-2.7,7-4.1,11-4
	c4.2,0,8.3,1.7,11.3,4.6c3.4,3.1,5.8,7.9,7.3,14.3l27.1,120.8h-33.1l-10.1-47.9c-1.7-7.8-3.2-14.7-4.3-20.6s-2.2-11.6-3-17.3
	c-1.8,4.8-3.9,10.1-6.1,15.9c-2.2,5.8-5.2,13.2-8.8,22.1l-14.4,34.5c-1.1,2.9-2.5,5.6-4.2,8.1c-1.2,1.8-2.7,3.3-4.4,4.6
	c-1.4,1.1-3.1,1.8-4.8,2.2c-3.7,0.7-7.5,0.7-11.2,0c-1.7-0.4-3.4-1.1-4.8-2.2c-1.7-1.3-3.2-2.9-4.4-4.6c-1.7-2.5-3.2-5.2-4.2-8.1
	l-14.4-34.7c-1.9-4.7-3.6-8.8-5.1-12.5s-2.9-7-4.1-10s-2.3-5.7-3.2-8.1s-1.8-4.9-2.6-7.2c-0.9,5.5-1.9,11.2-3.1,17.2
	c-1.2,6-2.6,12.8-4.2,20.6l-10.1,47.9h-32.7l27.8-120.8c1.5-6.4,4-11.2,7.4-14.3c3.1-2.9,7.1-4.6,11.4-4.6c4-0.1,7.8,1.3,10.8,3.9
	c3.2,3,5.7,6.6,7.3,10.7L1071.7,163.2z"/>
<path class="st0" d="M1341.4,163.6c0.1,7.1-1.1,14.2-3.5,20.9c-2.2,6-5.7,11.5-10.3,15.9c-4.8,4.5-10.4,8-16.6,10.3
	c-7.2,2.6-14.7,3.8-22.3,3.7h-56.2v35.1h-33.1v-70.3h92.4c5.1,0,9.1-1.4,12-4.3c2.9-2.9,4.3-6.7,4.2-11.5c0-4.8-1.4-8.6-4.2-11.4
	c-2.8-2.8-6.8-4.2-12-4.2h-92.4l22-35.8h67.4c7.6-0.1,15.2,1.2,22.3,3.8c6.2,2.3,11.8,5.9,16.5,10.6c4.6,4.6,8.1,10.1,10.3,16.2
	C1340.3,149.3,1341.5,156.4,1341.4,163.6z"/>
<path class="st0" d="M1474.6,214.1l-21.5,35.4h-94.9V112h33.2v102.1H1474.6z"/>
<path class="st0" d="M1519.4,249.5h-33.2V112h33.2L1519.4,249.5z"/>
<path class="st0" d="M1585.5,249.5l20.1-35.3h37c3,0,6.1,0.1,9.1,0.4c-1.5-2.5-3.2-5.6-5.2-9.4c-2-3.8-3.9-7.3-5.7-10.6l-19.3-36.4
	l-50.4,91.3h-39.3l68.9-124.3c2.3-4,5.1-7.6,8.5-10.7c7.4-6.2,18.1-6.3,25.6-0.3c3.5,3.1,6.4,6.8,8.6,11l67.1,124.3L1585.5,249.5z"
	/>
<path class="st0" d="M1831.1,251.8c-2.2,0-4.3-0.5-6.3-1.3c-2.1-0.9-4.4-2.9-7-6.1l-65.8-75.6v80.8h-30.2V135.4
	c-0.1-4,0.4-7.9,1.5-11.7c0.8-2.9,2.2-5.6,4-8c1.5-2,3.5-3.5,5.8-4.5c2.2-1,4.5-1.4,6.8-1.4c2.1,0,4.2,0.5,6.2,1.3
	c2.1,0.9,4.5,2.9,7.1,6.1l65.8,75.6V112h30.3v113.9c0.1,4-0.4,7.9-1.5,11.7c-0.8,2.9-2.2,5.7-4,8.1c-1.5,2-3.5,3.6-5.8,4.6
	C1835.8,251.3,1833.4,251.7,1831.1,251.8z"/>
<path class="st0" d="M2005.5,214.1l-21.3,35.3h-53.9c-17.6,0.2-34.4-7.1-46.3-20c-5.9-6.5-10.5-14-13.5-22.2
	c-3.3-8.9-5-18.3-4.9-27.9c-0.1-9.4,1.5-18.7,4.9-27.4c3-7.9,7.6-15.2,13.5-21.4c5.8-6,12.7-10.7,20.5-13.8c8.2-3.3,17-4.9,25.8-4.8
	h75.3l-21.3,35.8h-53.9c-4.3,0-8.6,0.8-12.5,2.5c-3.8,1.6-7.2,3.9-10,6.9c-2.9,3.1-5.1,6.7-6.6,10.6c-3.2,8.7-3.2,18.3-0.1,27
	c2.9,7.8,8.9,13.9,16.6,17c4,1.6,8.2,2.4,12.5,2.4L2005.5,214.1z"/>
<path class="st0" d="M2141.8,214.1l-21.4,35.3h-103.3V112h124.4l-21.5,35.8h-69.5v16.4h85.1l-19.1,31.2h-66v18.7H2141.8z"/>
<path class="st1" d="M2308.6,249h-94c-8.7,0.1-17.3-1.4-25.5-4.4c-7.7-2.8-14.8-7.3-20.6-13.1c-6.1-6.1-10.7-13.4-13.7-21.5
	c-3.3-8.6-5-18.5-5-29.9c0-24.5,6.5-42.5,19.6-53.8s32.7-17.1,58.9-17.1c26.1,0,45.7,5.7,58.8,17.1s19.7,29.3,19.7,53.8
	c0,8.9-1.6,16.6-4.7,23h-35.6c2.7-2.6,4.6-5.9,5.5-9.5c1.2-4.4,1.8-9,1.7-13.6c0-7.4-0.8-13.4-2.4-18c-1.4-4.3-4.1-8-7.8-10.7
	c-3.6-2.5-8.3-4.3-14-5.1c-14.1-1.8-28.3-1.8-42.4,0c-5.8,0.9-10.4,2.6-14,5.1c-3.7,2.6-6.4,6.4-7.8,10.7c-1.6,4.6-2.4,10.6-2.4,18
	c-0.1,5.4,0.6,10.8,2.2,16c1.2,3.9,3.4,7.4,6.3,10.3c2.8,2.7,6.3,4.6,10,5.6c4.3,1.1,8.8,1.7,13.3,1.6h6.9c2.1,0,4.4,0,6.7,0.1
	c2.1,0.1,4.2,0.2,6.3,0.5c-1.6-1.4-3.5-3-5.6-4.9s-4.1-3.8-5.9-5.8l-13.6-13.6h43.3L2308.6,249z"/>
<path class="st1" d="M2463,189c0,41.5-22.3,62.3-66.9,62.3c-12.9,0-24.1-1.3-33.4-3.9c-9.3-2.6-17-6.5-23-11.7
	c-6-5.2-10.6-11.9-13.3-19.4c-2.8-7.7-4.3-16.8-4.3-27.2v-77.5h33V189c-0.1,4.3,0.4,8.6,1.6,12.8c1,3.4,3.1,6.3,6,8.3
	c2.9,2.1,7.1,3.6,12.4,4.5c6.9,1,13.9,1.4,21,1.3c5.4,0.1,10.7-0.4,16-1.4c3.8-0.7,7.3-2.3,10.3-4.7c2.6-2.2,4.5-5.2,5.5-8.4
	c1.2-4,1.8-8.2,1.7-12.3v-77.5h33.4L2463,189z"/>
<path class="st1" d="M2606.5,213.6l-21.4,35.4h-103.3V111.5h124.4l-21.5,35.8h-69.5v16.4h85.1l-19.1,31.2h-66v18.7H2606.5z"/>
<path class="st1" d="M2717.4,166.4c13.2,0,23.2,3.1,30,9.4c6.8,6.2,10.3,15.7,10.3,28.3c0.1,6.4-0.8,12.7-2.6,18.9
	c-1.5,5.3-4.4,10.2-8.2,14.2c-4,4-9,7-14.4,8.8c-6.8,2.2-13.8,3.2-20.9,3.1h-100l21.3-35.3h81.2c4,0,6.8-0.8,8.7-2.4
	s2.7-4.1,2.7-7.7c0-3.6-0.9-6.1-2.7-7.6c-1.8-1.5-4.7-2.3-8.7-2.3h-58.4c-6.1,0.1-12.2-0.8-18-2.9c-4.7-1.7-9-4.4-12.5-8
	c-3.4-3.5-5.9-7.8-7.4-12.4c-1.7-5.2-2.5-10.7-2.4-16.1c-0.1-6,0.8-11.9,2.6-17.6c1.6-5.1,4.4-9.7,8.2-13.5
	c4.1-3.9,8.9-6.9,14.3-8.6c6.8-2.2,13.8-3.2,20.9-3.1h93.3l-21.4,35.8h-74.5c-3.8,0-6.7,0.7-8.6,2.1c-1.9,1.4-2.8,3.8-2.8,7.4
	s0.9,6.1,2.8,7.5s4.7,2.2,8.6,2.2L2717.4,166.4z"/>
<path class="st1" d="M2896.2,111.5l-21.5,35.8h-38.4V249h-33.2V147.2h-50.4l21.5-35.8L2896.2,111.5z"/>
<path class="st1" d="M1036.4,328.3c-8.7,0-15.6,2.9-20.7,8.7c-5,5.8-7.6,13.8-7.6,23.9c0,10.4,2.4,18.4,7.3,24.1
	c4.9,5.7,11.8,8.5,20.8,8.5c6.4-0.1,12.8-1.1,18.9-3v8.1c-5.5,2.1-12.3,3.1-20.4,3.1c-11.7,0-20.7-3.5-27-10.6
	c-6.3-7.1-9.5-17.2-9.5-30.2c-0.2-7.4,1.4-14.8,4.6-21.5c2.9-5.9,7.4-10.9,13.2-14.2c5.8-3.3,12.6-5,20.4-5c8.3,0,15.6,1.5,21.8,4.6
	l-3.9,7.9C1048.8,329.8,1042.7,328.4,1036.4,328.3z"/>
<path class="st1" d="M1122.6,370.8c0,9.7-2.4,17.3-7.3,22.7c-4.9,5.4-11.6,8.2-20.2,8.2c-5,0.1-9.9-1.2-14.2-3.8
	c-4.2-2.6-7.5-6.3-9.6-10.8c-2.3-5.1-3.5-10.7-3.4-16.4c0-9.7,2.4-17.3,7.3-22.7s11.6-8.1,20.2-8.1c8.3,0,14.9,2.8,19.8,8.3
	C1120.1,353.9,1122.6,361.3,1122.6,370.8z M1077.2,370.8c0,7.6,1.5,13.4,4.6,17.4s7.5,6,13.4,6c5.9,0,10.4-2,13.4-5.9
	c3.1-4,4.6-9.8,4.6-17.4c0-7.6-1.5-13.3-4.6-17.2c-3.1-3.9-7.6-5.9-13.5-5.9c-5.9,0-10.3,1.9-13.3,5.8S1077.3,363.1,1077.2,370.8z"
	/>
<path class="st1" d="M1214.2,400.6v-38.7c0-4.7-1-8.3-3-10.7s-5.2-3.6-9.4-3.5c-5.6,0-9.8,1.6-12.4,4.8s-4,8.2-4,14.9v33.2h-9v-38.7
	c0-4.7-1-8.3-3-10.7s-5.2-3.6-9.5-3.5c-5.6,0-9.8,1.7-12.4,5.1s-3.9,8.9-3.9,16.6v31.2h-9v-59.5h7.3l1.5,8.1h0.4
	c1.7-2.9,4.2-5.2,7.2-6.8c3.2-1.7,6.8-2.5,10.4-2.5c9.3,0,15.4,3.4,18.2,10.1h0.4c1.8-3.1,4.5-5.7,7.7-7.4c3.5-1.9,7.5-2.8,11.5-2.7
	c6.7,0,11.8,1.7,15.1,5.2c3.3,3.5,5,9,5,16.6v38.8L1214.2,400.6z"/>
<path class="st1" d="M1269.4,401.7c-3.6,0-7.3-0.7-10.6-2.1c-3.2-1.4-6-3.7-8.1-6.6h-0.6c0.4,3.3,0.6,6.6,0.7,9.9v24.5h-9v-86.2h7.3
	l1.2,8.1h0.4c2-3,4.8-5.4,8.1-7c3.3-1.5,6.9-2.2,10.6-2.2c7.9,0,14,2.7,18.3,8.1c4.3,5.4,6.4,13,6.4,22.7c0,9.8-2.2,17.4-6.5,22.8
	C1283.3,399,1277.2,401.7,1269.4,401.7z M1268.1,347.7c-6.1,0-10.5,1.7-13.2,5c-2.7,3.4-4.1,8.7-4.2,16.1v2c0,8.4,1.4,14.3,4.2,17.9
	c2.8,3.6,7.3,5.4,13.4,5.4c4.8,0.2,9.4-2.2,12.1-6.2c2.9-4.2,4.4-9.9,4.4-17.2c0-7.4-1.5-13.1-4.4-17.1S1273.4,347.7,1268.1,347.7
	L1268.1,347.7z"/>
<path class="st1" d="M1318.9,400.6h-9v-84.5h9V400.6z"/>
<path class="st1" d="M1363.1,401.7c-8.8,0-15.7-2.7-20.8-8c-5.1-5.3-7.6-12.8-7.6-22.3c0-9.6,2.4-17.2,7.1-22.9
	c4.7-5.6,11.1-8.5,19-8.5c7.5,0,13.4,2.5,17.7,7.4c4.3,4.9,6.5,11.4,6.5,19.4v5.7h-41c0.2,7,1.9,12.3,5.3,15.9s8.1,5.4,14.1,5.4
	c6.5,0,13-1.4,19-4v8c-2.9,1.3-5.9,2.3-9,3C1370,401.5,1366.6,401.7,1363.1,401.7z M1360.7,347.6c-4.8,0-8.6,1.6-11.4,4.7
	s-4.5,7.4-5,12.9h31.1c0-5.7-1.3-10-3.8-13.1C1369,349.1,1365.4,347.6,1360.7,347.6L1360.7,347.6z"/>
<path class="st1" d="M1419.6,394.2c1.5,0,3.1-0.1,4.6-0.4c1.2-0.2,2.4-0.4,3.5-0.7v6.9c-1.4,0.6-2.8,1-4.3,1.2
	c-1.7,0.3-3.4,0.5-5.1,0.5c-11.5,0-17.3-6.1-17.3-18.2v-35.4h-8.5v-4.3l8.5-3.8l3.8-12.7h5.2v13.8h17.3v7H1410v35
	c0,3.6,0.8,6.3,2.6,8.2C1414.4,393.3,1416.9,394.4,1419.6,394.2z"/>
<path class="st1" d="M1464.7,401.7c-8.8,0-15.7-2.7-20.8-8c-5.1-5.3-7.6-12.8-7.6-22.3c0-9.6,2.4-17.2,7.1-22.9
	c4.7-5.6,11.1-8.5,19-8.5c7.4,0,13.3,2.5,17.7,7.4c4.4,4.9,6.5,11.4,6.5,19.4v5.7h-41c0.2,7,1.9,12.3,5.3,15.9s8.1,5.4,14.1,5.4
	c6.5,0,13-1.4,19-4v8c-2.9,1.3-5.9,2.3-9,3C1471.6,401.5,1468.2,401.7,1464.7,401.7z M1462.3,347.6c-4.8,0-8.6,1.6-11.4,4.7
	s-4.5,7.4-5,12.9h31.1c0-5.7-1.3-10-3.8-13.1C1470.6,349.1,1467,347.6,1462.3,347.6z"/>
<path class="st1" d="M1601.1,360.8c0,10.2-2,18.6-6.1,25.4c-3.9,6.6-10.1,11.5-17.4,13.7l18.9,19.6h-13.4l-15.5-17.9l-3,0.1
	c-11.7,0-20.7-3.6-27.1-10.7c-6.3-7.2-9.5-17.2-9.5-30.3c0-12.9,3.2-22.9,9.6-30c6.4-7.1,15.4-10.6,27.1-10.7
	c11.4,0,20.3,3.6,26.7,10.9C1597.9,338.1,1601.1,348.1,1601.1,360.8z M1537.9,360.8c0,10.8,2.3,18.9,6.9,24.5
	c4.6,5.6,11.2,8.3,20,8.3c8.8,0,15.4-2.8,19.9-8.3c4.5-5.5,6.7-13.7,6.7-24.5c0-10.7-2.2-18.8-6.7-24.3s-11.1-8.3-19.8-8.3
	c-8.8,0-15.5,2.8-20.1,8.3S1537.9,350.2,1537.9,360.8L1537.9,360.8z"/>
<path class="st1" d="M1625.9,341.1v38.6c0,4.9,1.1,8.5,3.3,10.9s5.7,3.6,10.4,3.6c6.2,0,10.8-1.7,13.7-5.1c2.9-3.4,4.3-9,4.3-16.7
	v-31.3h9v59.5h-7.4l-1.3-8h-0.5c-1.9,2.9-4.5,5.3-7.7,6.7c-3.5,1.6-7.3,2.4-11.2,2.3c-7.2,0-12.6-1.7-16.2-5.2
	c-3.6-3.4-5.4-8.9-5.4-16.5v-38.9H1625.9z"/>
<path class="st1" d="M1722.2,400.6l-1.8-8.5h-0.4c-3,3.7-5.9,6.3-8.9,7.6c-3.5,1.4-7.2,2.1-11,2c-5.9,0-10.5-1.5-13.9-4.6
	c-3.3-3-5-7.4-5-13c0-12,9.6-18.3,28.8-18.9l10.1-0.3v-3.7c0-4.7-1-8.1-3-10.3c-2-2.2-5.2-3.3-9.6-3.3c-5,0-10.6,1.5-16.8,4.6
	l-2.8-6.9c3-1.6,6.3-2.9,9.6-3.8c3.4-0.9,7-1.4,10.5-1.4c7.1,0,12.3,1.6,15.8,4.7c3.4,3.2,5.1,8.2,5.1,15.1v40.6L1722.2,400.6z
	 M1701.9,394.2c5.6,0,10-1.5,13.2-4.6s4.8-7.4,4.8-12.9v-5.4l-9,0.4c-7.2,0.3-12.3,1.4-15.5,3.3c-3.2,2-4.7,5-4.8,9.2
	c0,3.3,1,5.7,3,7.4C1695.6,393.4,1698.4,394.2,1701.9,394.2z"/>
<path class="st1" d="M1756.5,400.6h-9v-84.5h9V400.6z"/>
<path class="st1" d="M1774.8,325c-0.1-1.7,0.4-3.3,1.5-4.5c2.1-1.9,5.4-1.9,7.5,0c1.1,1.2,1.7,2.9,1.6,4.5c0.1,1.7-0.4,3.3-1.6,4.5
	c-1,1-2.3,1.5-3.7,1.5c-1.4,0-2.8-0.5-3.8-1.5C1775.2,328.3,1774.7,326.6,1774.8,325z M1784.6,400.6h-9v-59.5h9V400.6z"/>
<path class="st1" d="M1822.9,394.2c1.5,0,3.1-0.1,4.6-0.4c1.2-0.2,2.4-0.4,3.5-0.7v6.9c-1.4,0.6-2.8,1-4.3,1.2
	c-1.7,0.3-3.4,0.5-5.1,0.5c-11.5,0-17.3-6.1-17.3-18.2v-35.4h-8.5v-4.3l8.5-3.8l3.8-12.7h5.2v13.8h17.3v7h-17.3v35
	c0,3.6,0.8,6.3,2.6,8.2C1817.7,393.3,1820.3,394.4,1822.9,394.2z"/>
<path class="st1" d="M1833.5,341.1h9.6l13,33.9c2.2,5.5,3.9,11.1,5.3,16.8h0.4c0.5-1.9,1.5-5,3-9.5s6.4-18.2,14.7-41.2h9.7
	l-25.5,67.8c-2.5,6.7-5.5,11.4-8.9,14.2c-3.5,2.8-7.9,4.3-12.5,4.2c-2.7,0-5.5-0.3-8.1-0.9v-7.2c2.2,0.5,4.4,0.7,6.7,0.6
	c6.2,0,10.6-3.5,13.2-10.4l3.3-8.5L1833.5,341.1z"/>
<path class="st1" d="M1953.6,400.6h-9.2v-71.2h-25.1v-8.2h59.5v8.2h-25.1V400.6z"/>
<path class="st1" d="M2016.5,340c2.4,0,4.8,0.2,7.1,0.7l-1.2,8.4c-2.1-0.5-4.3-0.8-6.5-0.8c-4.8,0-9.3,2.1-12.3,5.9
	c-3.5,4.1-5.3,9.3-5.1,14.6v31.9h-9v-59.5h7.4l1,11h0.4c1.9-3.6,4.7-6.7,8-9C2009.2,341,2012.8,340,2016.5,340z"/>
<path class="st1" d="M2071.3,400.6l-1.8-8.5h-0.4c-3,3.7-5.9,6.3-8.9,7.6c-3.5,1.4-7.2,2.1-11,2c-5.9,0-10.5-1.5-13.9-4.6
	s-5-7.4-5-13c0-12,9.6-18.3,28.8-18.9l10.1-0.3v-3.7c0-4.7-1-8.1-3-10.3c-2-2.2-5.2-3.3-9.6-3.3c-5,0-10.6,1.5-16.8,4.6l-2.8-6.9
	c6.2-3.3,13.1-5.1,20.1-5.1c7.1,0,12.3,1.6,15.8,4.7c3.4,3.2,5.1,8.2,5.1,15.1v40.6L2071.3,400.6z M2050.9,394.2
	c5.6,0,10-1.5,13.2-4.6c3.2-3.1,4.8-7.4,4.8-12.9v-5.4l-9,0.4c-7.2,0.3-12.3,1.4-15.5,3.3c-3.2,2-4.7,5-4.8,9.2c0,3.3,1,5.7,3,7.4
	C2044.6,393.4,2047.4,394.2,2050.9,394.2L2050.9,394.2z"/>
<path class="st1" d="M2137.2,400.6v-38.5c0-4.9-1.1-8.5-3.3-10.9s-5.7-3.6-10.4-3.6c-6.2,0-10.8,1.7-13.7,5
	c-2.9,3.4-4.3,8.9-4.3,16.7v31.2h-9v-59.5h7.3l1.5,8.1h0.4c1.9-3,4.6-5.3,7.8-6.8c3.5-1.6,7.3-2.5,11.1-2.4c7.2,0,12.6,1.7,16.2,5.2
	c3.6,3.5,5.4,9,5.4,16.6v38.8L2137.2,400.6z"/>
<path class="st1" d="M2203.1,384.4c0,5.5-2.1,9.8-6.2,12.8c-4.1,3-9.9,4.5-17.4,4.5c-7.9,0-14-1.3-18.4-3.8v-8.4
	c2.9,1.5,6,2.6,9.2,3.4c3.1,0.8,6.3,1.2,9.5,1.2c4.7,0,8.3-0.8,10.9-2.2c3.7-2.2,4.9-6.9,2.7-10.6c-0.5-0.8-1.2-1.6-1.9-2.2
	c-2-1.6-5.9-3.6-11.8-5.8c-4.1-1.4-8.1-3.2-11.8-5.4c-2.1-1.3-3.9-3.1-5.2-5.2c-1.2-2.1-1.8-4.6-1.7-7c-0.1-4.6,2.1-8.9,5.9-11.5
	c3.9-2.8,9.3-4.2,16.2-4.2c6.5,0,12.9,1.3,18.8,3.9l-3.2,7.3c-5.1-2.3-10.6-3.5-16.2-3.7c-4.3,0-7.5,0.7-9.7,2
	c-2,1.1-3.3,3.2-3.3,5.5c0,1.5,0.4,2.9,1.2,4.1c1.1,1.3,2.4,2.4,3.9,3.2c3.4,1.7,6.9,3.2,10.4,4.4c7.1,2.6,11.8,5.2,14.3,7.8
	C2201.9,377.2,2203.2,380.7,2203.1,384.4z"/>
<path class="st1" d="M2244.6,348.1h-15.1v52.5h-9v-52.5h-10.6V344l10.6-3.3v-3.3c0-14.6,6.4-21.9,19.2-21.9
	c3.8,0.1,7.5,0.7,11.1,1.9l-2.3,7.2c-2.9-1-5.9-1.6-8.9-1.7c-3.4,0-5.9,1.1-7.5,3.4s-2.4,5.9-2.4,10.9v3.9h15.1L2244.6,348.1z"/>
<path class="st1" d="M2306.8,370.8c0,9.7-2.4,17.3-7.3,22.7c-4.9,5.4-11.6,8.2-20.2,8.2c-5,0.1-9.9-1.2-14.2-3.8
	c-4.2-2.6-7.5-6.3-9.6-10.8c-2.3-5.1-3.5-10.7-3.4-16.4c0-9.7,2.4-17.3,7.3-22.7s11.6-8.1,20.2-8.1c8.3,0,14.9,2.8,19.8,8.3
	C2304.3,353.9,2306.8,361.3,2306.8,370.8z M2261.5,370.8c0,7.6,1.5,13.4,4.6,17.4s7.5,6,13.4,6c5.9,0,10.4-2,13.4-5.9
	c3.1-4,4.6-9.8,4.6-17.4c0-7.6-1.5-13.3-4.6-17.2c-3.1-3.9-7.6-5.9-13.6-5.9c-5.9,0-10.3,1.9-13.4,5.8
	C2263,357.4,2261.5,363.1,2261.5,370.8L2261.5,370.8z"/>
<path class="st1" d="M2349.7,340c2.4,0,4.8,0.2,7.1,0.7l-1.2,8.4c-2.1-0.5-4.3-0.8-6.5-0.8c-4.8,0-9.3,2.1-12.4,5.9
	c-3.5,4.1-5.3,9.3-5.1,14.6v31.9h-9v-59.5h7.4l1,11h0.4c1.9-3.6,4.7-6.7,8-9C2342.5,341,2346.1,340,2349.7,340z"/>
<path class="st1" d="M2443.8,400.6v-38.7c0-4.7-1-8.3-3-10.7s-5.1-3.6-9.4-3.5c-5.6,0-9.8,1.6-12.4,4.8s-4,8.2-4,14.9v33.2h-9v-38.7
	c0-4.7-1-8.3-3-10.7s-5.2-3.6-9.5-3.5c-5.7,0-9.8,1.7-12.4,5.1s-3.9,8.9-3.9,16.6v31.2h-9v-59.5h7.3l1.5,8.1h0.4
	c1.7-2.9,4.2-5.2,7.2-6.8c3.2-1.7,6.8-2.5,10.4-2.5c9.3,0,15.4,3.4,18.2,10.1h0.4c1.8-3.1,4.5-5.7,7.7-7.4c3.5-1.9,7.5-2.8,11.5-2.7
	c6.7,0,11.8,1.7,15.1,5.2c3.4,3.5,5,9,5,16.6v38.8L2443.8,400.6z"/>
<path class="st1" d="M2496.5,401.7c-8.8,0-15.7-2.7-20.8-8c-5.1-5.3-7.6-12.8-7.6-22.4c0-9.6,2.4-17.2,7.1-22.9
	c4.7-5.6,11.1-8.5,19-8.5c7.5,0,13.4,2.5,17.7,7.4c4.3,4.9,6.5,11.4,6.5,19.4v5.7h-41c0.2,7,1.9,12.3,5.3,15.9s8.1,5.4,14.1,5.4
	c6.5,0,13-1.4,19-4v8c-2.9,1.3-5.9,2.3-9,3C2503.4,401.4,2500,401.7,2496.5,401.7z M2494.1,347.6c-4.8,0-8.6,1.6-11.4,4.7
	s-4.5,7.4-5,12.9h31.1c0-5.7-1.3-10-3.8-13.1C2502.5,349.1,2498.8,347.6,2494.1,347.6z"/>
<path class="st1" d="M2574.2,392.6h-0.5c-4.2,6-10.4,9.1-18.7,9.1c-7.8,0-13.8-2.7-18.2-8c-4.3-5.3-6.5-12.9-6.5-22.7
	c0-9.8,2.2-17.4,6.5-22.9c4.3-5.4,10.4-8.1,18.1-8.1c8.1,0,14.3,2.9,18.6,8.8h0.7l-0.4-4.3l-0.2-4.2v-24.2h9v84.5h-7.3L2574.2,392.6
	z M2556.2,394.1c6.1,0,10.6-1.7,13.4-5c2.8-3.3,4.2-8.7,4.1-16.2V371c0-8.4-1.4-14.4-4.2-18c-2.8-3.6-7.3-5.4-13.4-5.5
	c-5.3,0-9.3,2.1-12.1,6.2c-2.8,4.1-4.2,9.9-4.2,17.4c0,7.6,1.4,13.3,4.2,17.2C2546.7,392.2,2550.8,394.1,2556.2,394.1L2556.2,394.1z
	"/>
</svg>
