<svg width="32" height="44" fill="none" xmlns="http://www.w3.org/2000/svg"><path d="m17.9 40.286.14-.116 1.269-1.045c.14-.117.307-.489.448-.605.14-.116.307-.489.333-.745.358-1 .434-1.77.395-2.678-.295-.933-.757-1.493-1.36-1.937-.602-.444-1.628-.54-2.679-.379-1.05.161-1.87.602-2.691 1.043-.82.44-1.525 1.022-2.23 1.602l-1.268 1.046c-.422.349-.704.58-.73.837l-.845.697c-.282.233-.68.325-.961.557 0 0 .282-.232.448-.605.282-.232.59-.72 1.037-1.325.308-.489.73-.837 1.038-1.326.025-.256.192-.629.192-.629s.281-.232.448-.604c.166-.373.73-.837 1.037-1.326.756-1.093 1.37-2.07 1.37-2.07.936-.301 1.987-.462 3.012-.367.91-.044 2.026.448 3.564.59.77.072 1.564-.112 2.359-.297.794-.185 1.755-.742 2.6-1.439l.142-.116c.422-.348.845-.697 1.152-1.186.308-.488.474-.86.525-1.373.384-1.257.345-2.166.165-2.958-.18-.793-.898-1.377-1.642-1.705-.372-.164-.744-.328-1.257-.375-.397.092-.91.044-1.448.253-.935.3-1.896.858-2.601 1.438l-1.127.93c-.282.232-.705.58-.871.953-.73.837-1.46 1.674-1.768 2.163-.448.605-1.012 1.07-1.55 1.278 0 0 .167-.372.448-.605.167-.372.474-.86.781-1.35.5-1.117 1.114-2.094 1.114-2.094l.333-.745c.166-.372.473-.86.806-1.605l.999-2.235c.935-.3 1.87-.601 3.037-.622.795-.185 2.192.075 3.5-.062.768.071 1.563-.113 2.383-.554.82-.441 1.64-.882 2.511-1.835l.141-.116c.423-.349.73-.837.922-1.466.141-.116.166-.373.307-.489l.077-.768c.102-1.025-.078-1.818-.515-2.634-.616-1.61-2.36-2.289-4.397-1.315-.82.441-1.666 1.138-2.37 1.72l-1.768 2.162c-.614.977-1.088 1.838-1.395 2.327-.333.745-.897 1.21-1.46 1.674 0 0 .499-1.117.857-2.118.282-.233.307-.489.307-.489.358-1 .832-1.862 1.678-2.559.704-.58 1.806-1.254 2.818-2.323.564-.465 1.012-1.07 1.486-1.931.332-.745.69-1.746.677-2.91l.025-.257a3.948 3.948 0 0 0-.219-1.701c.026-.256-.205-.537-.18-.793l-.461-.56c-.437-.816-1.27-1.54-2.155-1.752-1.628-.54-3.358-.054-4.216 2.064-.358 1.001-.575 1.886-.677 2.911-.102 1.025-.063 1.934.117 2.726.014 1.165.31 2.098.374 2.75.064.653.168 2.214-.357 3.587-.025.257-.192.629-.358 1.001-.167.373-.333.745-.525 1.374-.473.86-.832 1.862-1.139 2.35l-.5 1.117c-.064-.652.128-1.28.205-2.05.242-1.14 1.15-3.771.495-6.289l-.616-1.609c-.783-1.236-1.757-1.844-2.924-1.823-1.025-.096-2.102.321-2.832 1.158s-1.088 1.839-.96 3.143c.155 1.05.335 1.842.656 2.518.09.396.321.676.552.956l.693.84c.924 1.121 2.014 1.87 2.475 2.43.693.84 1.104 1.912 1.284 2.705l-.333.744-.332.745s-.308.489-.5 1.117a8.937 8.937 0 0 1-.64 1.234c-.166.372-.473.86-.78 1.35-.474.86-.948 1.721-1.396 2.326-.449.605-.756 1.093-.756 1.093.192-.628.268-1.397.46-2.025.308-.489.666-1.49 1.024-2.491-.065-.652.127-1.281.178-1.794-.064-.652.128-1.28.063-1.933-.064-.653-.154-1.049-.36-1.585-.642-1.353-1.59-2.217-2.616-2.313-1.141-.235-2.077.066-2.922.763-.423.348-.846.697-.897 1.21-.025.256-.307.488-.333.744-.025.256-.191.629-.217.885a8.442 8.442 0 0 0 1.221 4.639c.783 1.237 1.732 2.1 2.168 2.917.552.957.847 1.89.886 2.798l-.896 1.21-.282.232c-.14.116-.307.488-.589.72a36.208 36.208 0 0 1-1.767 2.164c-.59.72-1.32 1.558-1.768 2.162a5.876 5.876 0 0 1-.87.954c.191-.629.383-1.258.831-1.862.307-.489.781-1.35 1.396-2.327a3.98 3.98 0 0 0 .55-1.63c.025-.256.192-.628.217-.885.026-.256.192-.628.102-1.025a3.949 3.949 0 0 0-.22-1.7c-.244-1.446-1.193-2.31-2.334-2.546-1-.351-2.166-.33-3.012.367l-.563.464c-.141.117-.423.349-.449.605-.307.489-.614.977-.55 1.63-.102 1.025-.178 1.793.002 2.586.18.792.36 1.585.565 2.121.411 1.073 1.335 2.193 1.515 2.986.295.932.565 2.121.348 3.006l-.564.465-.422.348-.141.116.808.98.564-.464c.422-.348.73-.837 1.152-1.186l1.742-1.906c.398-.093 1.051-.161 1.449-.253l1.538.143c.885.212 2 .703 3.513 1.103.769.071 1.538.143 2.448.098.398-.092.795-.184 1.333-.393.14-.116.538-.208.68-.325.537-.208.678-.324 1.076-.417Z" fill="url(#a)"/><defs><linearGradient id="a" x1="36.791" y1="4.546" x2="9.174" y2="30.415" gradientUnits="userSpaceOnUse"><stop offset=".005" stop-color="#9ED978"/><stop offset=".135" stop-color="#98D476"/><stop offset=".312" stop-color="#86C671"/><stop offset=".517" stop-color="#69B068"/><stop offset=".743" stop-color="#41915B"/><stop offset=".983" stop-color="#0E694B"/><stop offset="1" stop-color="#0A664A"/></linearGradient></defs></svg>