<svg width="16" height="15" fill="none" xmlns="http://www.w3.org/2000/svg"><path d="M6.888 6.964c.696-.092 1.392-.185 2.11-.213.37.02.718-.027 1.088-.009.37.02.74.038 1.046.079.697.125 1.33.272 1.832.464s.939.406 1.289.577l.35.171c.087.043.109.108.109.108.087.043.11.108.132.173.067.196.026.5-.235.59l-.065.022-.13.045-.39.133c-.326.112-.782.268-1.325.381-.543.114-1.109.162-1.74.232-.348.047-.653.005-1 .052-.348.046-.653.005-1.024-.014a14.976 14.976 0 0 1-2.003-.114l-.915-.123c-.305-.04-.61-.082-.85-.145-.545-.105-.938-.189-1.33-.272-.327-.107-.48-.127-.48-.127-.087-.043-.175-.086-.197-.15a.468.468 0 0 1 .082-.61s.173-.133.476-.31c.13-.044.304-.176.564-.265l.716-.246c.566-.048 1.217-.27 1.89-.429Z" fill="url(#a)"/><path d="M8.28 1.491c.13-.045.217-.002.347-.046l.13-.045.066-.022c.152.02.35.171.286.41 0 0 .022.066-.02.153.022.066-.021.153-.042.305-.063.24-.169.568-.318.983-.171.35-.45.809-.774 1.138-.151.197-.302.394-.54.548-.173.132-.411.287-.65.44-.41.287-.91.53-1.343.752-.433.221-.911.312-1.302.446-.195.067-.413.068-.543.113-.13.045-.283.024-.435.004l-.436.003s-.065.022-.087-.043a.333.333 0 0 1-.156-.455l.171-.35c.15-.197.322-.547.516-.831.085-.175.258-.307.344-.482.15-.197.259-.307.41-.504.323-.33.647-.658 1.036-1.01.173-.132.411-.286.584-.418s.346-.264.584-.418c.369-.2.802-.42 1.128-.532.413-.069.76-.115 1.044-.139Z" fill="url(#b)"/><path d="M3.513 10.119a4.78 4.78 0 0 1 .958.036 3.5 3.5 0 0 1 1.047.296c.677.277 1.311.642 1.685 1.096.22.216.374.454.44.65l.112.325c.067.195-.019.37-.192.502l-.325.112c-.196.067-.479.09-.761.115-.566.048-1.263-.077-1.875-.377-.285-.193-.612-.3-.832-.515-.284-.194-.569-.388-.788-.603a3.038 3.038 0 0 1-.638-.8l-.022-.066c-.067-.195.019-.37.214-.437-.022-.065.411-.286.977-.334Z" fill="url(#c)"/><defs><linearGradient id="a" x1="11.72" y1="8.453" x2="5.229" y2="8.003" gradientUnits="userSpaceOnUse"><stop stop-color="#FAD12F"/><stop offset="1" stop-color="#FA7E2F"/></linearGradient><linearGradient id="b" x1="8.326" y1="2.476" x2="2.513" y2="6.524" gradientUnits="userSpaceOnUse"><stop stop-color="#FAD12F"/><stop offset="1" stop-color="#FA7E2F"/></linearGradient><linearGradient id="c" x1="6.746" y1="12.275" x2="2.661" y2="10.657" gradientUnits="userSpaceOnUse"><stop stop-color="#FAD12F"/><stop offset="1" stop-color="#FA7E2F"/></linearGradient></defs></svg>