<svg width="142" height="155" fill="none" xmlns="http://www.w3.org/2000/svg"><circle cx="73.5" cy="86.5" r="68.5" fill="#FFFBF0"/><path d="M105.498 123H57.405c-2.883-1.181-3.516-2.138-3.516-5.316V90.361c-.394 0-.689-.014-.998 0-6.568.197-12.685-3.924-14.893-10.125-.45-1.266-.66-2.616-.998-3.924V73.5c.056-.253.127-.492.155-.745 1.18-7.946 7.945-13.57 15.989-13.304.225.014.45 0 .717 0v-4.064c0-1.096.323-2.067 1.027-2.91.689-.802 1.589-1.14 2.517-1.477h36.422c.38.267.787.506 1.11.83 4.43 4.401 8.846 8.83 13.261 13.26.324.324.549.732.816 1.111v53.297c-.141.366-.267.746-.422 1.097-.619 1.322-1.758 1.997-3.094 2.405ZM92.139 53.84c-.183-.014-.295-.028-.408-.028H58.333c-1.097 0-1.617.563-1.631 1.66-.014 1.265.028 2.531-.014 3.797-.029.562.154.801.689.984 6.3 2.081 10.589 8.044 10.575 14.667-.014 6.61-4.304 12.558-10.547 14.611-.52.169-.718.394-.718.97.029 9.24.015 18.465.015 27.704 0 1.518.45 1.968 1.968 1.968h45.563c1.519 0 1.969-.45 1.969-1.968V67.861H94.15c-1.59 0-2.01-.422-2.01-1.997V53.84Zm-41.062 8.55c-5.668.436-11.405 5.583-11.236 12.811a12.622 12.622 0 0 0 13.218 12.333c7.257-.323 11.658-6.384 11.897-11.222H53.031c-1.49 0-1.954-.45-1.954-1.912V62.39Zm13.921 11.082c-.562-6.314-6.23-10.87-11.08-11.025v11.025h11.08Zm38.925-8.438-8.93-8.93v8.93h8.93Z" fill="#202020"/><path d="M95.233 94.987c-1.547-2.601-.225-5.203 1.645-6.117 1.603-.787 3.614-.478 4.866.802 1.265 1.294 1.575 3.29.745 4.88a4.228 4.228 0 0 1-4.458 2.25c-.253-.043-.618.042-.787.21a1553.56 1553.56 0 0 0-9.31 9.971c-.042.056-.084.112-.14.197.998 1.757.942 3.487-.366 5.076-1.251 1.547-3.515 1.899-5.287.886-1.688-.97-2.517-3.08-1.857-4.908.183-.52.099-.844-.239-1.251a214.072 214.072 0 0 1-3.572-4.43c-.253-.323-.492-.338-.885-.295a9.988 9.988 0 0 1-2.42-.028c-.435-.071-.674-.015-.955.295-1.435 1.575-2.87 3.15-4.332 4.711-.28.295-.337.534-.197.928.675 1.969-.126 4.022-1.898 5.006-1.8.999-4.008.591-5.288-.956-1.321-1.617-1.335-3.839.029-5.414 1.167-1.336 2.657-1.786 4.373-1.294.45.127.703.084 1.027-.267 1.42-1.589 2.868-3.15 4.33-4.711.282-.309.31-.549.184-.928-.605-1.786-.014-3.642 1.49-4.74 1.477-1.082 3.53-1.068 4.978.043 1.491 1.125 2.068 2.995 1.42 4.767-.154.408-.084.675.184.999a268.553 268.553 0 0 1 3.656 4.542c.253.323.478.394.886.295.562-.141 1.167-.225 1.73-.141.506.071.815-.014 1.153-.393 2.91-3.15 5.835-6.286 8.76-9.422.197-.183.352-.366.535-.563Zm4.908-2.376c0-.732-.675-1.392-1.407-1.392-.73 0-1.392.675-1.392 1.406 0 .731.675 1.392 1.407 1.392.745 0 1.406-.66 1.392-1.406Zm-25.707 4.247c-.73-.014-1.406.632-1.42 1.378-.014.731.633 1.406 1.378 1.42.732.014 1.407-.633 1.42-1.378.015-.745-.632-1.406-1.377-1.42Zm-10.687 14.034c.731 0 1.392-.675 1.392-1.406 0-.731-.675-1.392-1.406-1.392-.731 0-1.392.675-1.392 1.406 0 .745.66 1.406 1.406 1.392Zm21.91-1.406c-.015-.731-.676-1.392-1.407-1.378-.731.014-1.392.675-1.378 1.406.014.731.675 1.392 1.406 1.378.731 0 1.392-.675 1.378-1.406Zm2.826-33.174H78.358c-.24 0-.478.014-.703-.028-.732-.112-1.252-.689-1.252-1.378s.52-1.266 1.252-1.378c.225-.028.464-.028.703-.028h20.39c1.14 0 1.814.534 1.814 1.406 0 .872-.674 1.406-1.814 1.406H88.483Zm0 5.625H78.358c-.24 0-.478.014-.703-.028-.732-.112-1.252-.689-1.252-1.378s.52-1.28 1.252-1.378c.225-.028.464-.028.703-.028h20.39c1.14 0 1.814.534 1.814 1.406 0 .872-.674 1.406-1.814 1.406H88.483ZM80.467 62.25c-2.362 0-4.739.014-7.101-.014-.394 0-.914-.07-1.168-.324-.309-.309-.562-.871-.506-1.265.056-.394.492-.802.858-1.069.225-.169.633-.127.956-.127H87.85c.858.057 1.463.633 1.463 1.407 0 .773-.605 1.378-1.463 1.392-1.097.028-2.208.014-3.305.014-1.364-.014-2.714-.014-4.078-.014Zm.071 2.812c2.348 0 4.682-.014 7.03.014.395 0 .915.07 1.168.324.31.31.577.872.506 1.265-.056.394-.492.802-.858 1.07-.225.168-.632.126-.956.126-4.64.014-9.281 0-13.922 0h-.421c-.858-.056-1.463-.633-1.477-1.392 0-.774.605-1.378 1.462-1.407 1.027-.028 2.068-.014 3.094-.014 1.463.014 2.911.014 4.374.014Zm-8.34 8.452c.746.014 1.393.689 1.379 1.42-.015.746-.69 1.392-1.42 1.378-.746-.014-1.393-.689-1.379-1.42.014-.745.675-1.392 1.42-1.378Zm-.042 8.409c-.745-.014-1.392-.675-1.378-1.406.014-.745.675-1.392 1.406-1.378.746.014 1.392.675 1.378 1.406 0 .745-.675 1.392-1.406 1.378ZM52.06 84.736c-5.076-.169-9.35-4.5-9.407-9.549-.014-.9.38-1.476 1.125-1.63.9-.198 1.631.463 1.688 1.574.084 1.561.59 2.967 1.588 4.19 1.337 1.632 3.08 2.476 5.161 2.616.675.043 1.252.211 1.547.886.45 1.027-.38 1.955-1.701 1.913Z" fill="#202020"/><path d="M142 86.5c0 37.831-30.668 68.5-68.5 68.5C35.669 155 5 124.331 5 86.5 5 48.668 35.669 18 73.5 18c37.832 0 68.5 30.668 68.5 68.5Zm-130.15 0c0 34.048 27.602 61.65 61.65 61.65s61.65-27.602 61.65-61.65-27.602-61.65-61.65-61.65S11.85 52.452 11.85 86.5Z" fill="#FFD466"/><path d="M25.843 22.09c-1.115-1.302-2.23-2.604-3.492-3.824-.704-.569-1.262-1.22-1.966-1.788-.704-.57-1.408-1.138-2.03-1.56-1.473-.91-2.864-1.672-4.09-2.14-1.226-.47-2.37-.792-3.286-1.05-.229-.064-.686-.193-.833-.111l-.457-.129c-.147.082-.376.018-.523.1-.44.246-.715.786-.533 1.455l.082.147a1324.651 1324.651 0 0 0 .658 1.173c.41.733.986 1.76 1.79 2.85.575 1.027 1.526 2.036 2.559 3.191.557.651 1.179 1.073 1.737 1.725.557.65 1.179 1.073 1.883 1.642 1.18 1.073 2.588 2.21 3.832 3.055l1.866 1.267c.622.422 1.244.844 1.784 1.12 1.162.698 2.012 1.184 2.863 1.671.769.34 1.08.551 1.08.551.229.065.457.13.604.047.522-.1.945-.722.845-1.244 0 0-.1-.522-.364-1.337-.165-.294-.265-.816-.593-1.402l-.904-1.614c-.576-1.026-1.397-2.493-2.512-3.795Z" fill="url(#a)"/><path d="M33.436 9.164c-.164-.293-.393-.358-.557-.65l-.165-.294-.082-.147c-.31-.21-.915-.258-1.19.282 0 0-.147.082-.212.311-.146.082-.211.311-.422.622-.276.54-.616 1.309-1.02 2.306-.258.915-.498 2.206-.445 3.333-.047.604-.094 1.208.088 1.877.1.522.282 1.19.464 1.86.282 1.19.793 2.446 1.222 3.554.428 1.109 1.15 2.053 1.643 2.933.247.44.64.798.804 1.091.165.293.476.505.787.716l.786.715s.082.147.229.065a.812.812 0 0 0 1.026-.576s.13-.457.258-.915c.047-.604.305-1.52.416-2.352.129-.458.029-.98.158-1.438.047-.604.029-.98.076-1.584-.053-1.126-.106-2.253-.242-3.526-.1-.522-.282-1.19-.382-1.713-.1-.522-.2-1.044-.381-1.713-.347-.962-.775-2.07-1.186-2.804-.64-.797-1.28-1.595-1.673-1.953Z" fill="url(#b)"/><path d="M21.264 33.52c-.475-.504-1.18-1.073-1.802-1.495-.622-.422-1.472-.91-2.387-1.167-1.684-.598-3.433-.967-4.852-.75-.752.036-1.42.218-1.86.464l-.733.411c-.44.247-.57.704-.47 1.226l.412.734c.246.44.721.944 1.197 1.449.95 1.008 2.423 1.917 4.025 2.368 1.126-.053 1.96.059 2.793.17.833.111 1.666.222 2.417.187a7.424 7.424 0 0 0 2.464-.417l.146-.083c.44-.246.57-.704.323-1.144-.147.083-.493-.88-1.673-1.953Z" fill="url(#c)"/><defs><linearGradient id="a" x1="14.783" y1="16.917" x2="27.331" y2="26.67" gradientUnits="userSpaceOnUse"><stop stop-color="#FAD12F"/><stop offset="1" stop-color="#FA7E2F"/></linearGradient><linearGradient id="b" x1="31.676" y1="10.805" x2="35.662" y2="27.639" gradientUnits="userSpaceOnUse"><stop stop-color="#FAD12F"/><stop offset="1" stop-color="#FA7E2F"/></linearGradient><linearGradient id="c" x1="12.028" y1="32.165" x2="22.095" y2="35.875" gradientUnits="userSpaceOnUse"><stop stop-color="#FAD12F"/><stop offset="1" stop-color="#FA7E2F"/></linearGradient></defs></svg>