<svg width="137" height="140" fill="none" xmlns="http://www.w3.org/2000/svg"><circle cx="68.5" cy="71.5" r="68.5" fill="#F7F9F4"/><path d="M32 108V45.359h48.77v5.238c.292-.272.486-.427.66-.602 4.016-4.015 8.032-8.05 12.067-12.066 2.23-2.231 5.432-2.542 7.876-.854a6.077 6.077 0 0 1 1.164 8.982c-.233.272-.504.524-.757.795-6.828 6.83-13.657 13.658-20.486 20.486-.368.37-.523.738-.523 1.261.019 12.824.019 25.647.019 38.489V108H32Zm34.842-20.874c0 1.474.02 2.852-.02 4.23 0 .445.117.678.524.892 1.3.698 1.998 2.133 1.785 3.53a3.564 3.564 0 0 1-2.93 2.949c-1.377.233-2.851-.466-3.53-1.765-.233-.447-.505-.544-.95-.544-4.269.02-8.517 0-12.785 0h-.718v4.598H36.656V89.435h4.559V82.45h-4.54V70.85h4.56v-6.984h-4.56V52.323h11.62v4.56h4.637v-4.56h11.562v11.504h-11.62v-4.559h-4.637v4.617H43.66v6.984h4.56V82.47h-4.56v6.984h4.617v4.617c4.656 0 9.215 0 13.793-.02.175 0 .369-.232.524-.368.524-.504 1.048-1.028 1.572-1.552.116-.116.349-.252.349-.388.02-1.532.02-3.084.02-4.656h-9.255V68.522h.835c3.453 0 6.925-.02 10.379.02.523 0 .756-.156.911-.66a111.187 111.187 0 0 1 1.688-5.083 3.66 3.66 0 0 1 .737-1.203c2.716-2.755 5.47-5.49 8.206-8.225.175-.175.408-.427.408-.64.038-1.688.019-3.376.019-5.064H34.367v58.005h44.037v-35.23c-.757.31-1.475.602-2.27.932v15.733c-3.123.019-6.169.019-9.292.019ZM60.75 76.98c.854.912 1.688 1.804 2.464 2.638 2.212-2.211 4.326-4.306 6.44-6.44-1.319-.214-2.27-.99-2.715-2.27h-9.37v13.851h16.179V72.111c-.854.29-1.63.543-2.503.834.369.388.68.718.932.97l-8.827 8.827-4.19-4.19c.465-.447.97-.951 1.59-1.572Zm36.355-28.789c1.203-1.183 2.464-2.367 3.647-3.608 1.3-1.397 1.261-3.55 0-4.966-1.3-1.456-3.53-1.805-4.966-.544-1.397 1.203-2.58 2.658-3.822 3.958 1.63 1.649 3.376 3.395 5.141 5.16Zm-10.379.097L72.216 62.8c.504.504 1.066 1.086 1.532 1.552 4.811-4.792 9.641-9.642 14.491-14.472a60.08 60.08 0 0 0-1.513-1.59Zm3.395 3.473L75.65 66.233c.543.523 1.145 1.105 1.668 1.63L91.79 53.39c-.544-.524-1.126-1.106-1.669-1.63Zm-51.118 2.87v6.888h6.887v-6.887h-6.887Zm23.125 6.926v-6.906H55.26v6.906h6.868ZM45.87 80.142v-6.887h-6.887v6.887h6.887Zm-6.887 18.566h6.887V91.82h-6.887v6.887Zm56.259-48.655-5.2-5.257c-.562.543-1.144 1.106-1.648 1.59l5.199 5.258c.562-.543 1.144-1.106 1.649-1.59ZM70.76 65.03c-.523 1.61-1.105 3.278-1.571 4.966-.155.524.485 1.009 1.067.815 1.61-.504 3.181-1.048 4.734-1.571-1.397-1.378-2.775-2.755-4.23-4.21Zm-3.938 30.283a1.163 1.163 0 0 0-1.125-1.184 1.163 1.163 0 0 0-1.183 1.125c-.02.621.485 1.164 1.125 1.184.62 0 1.164-.505 1.183-1.125Z" fill="#202020"/><path d="M68.5 6.425c0-1.892 1.535-3.434 3.424-3.34a68.503 68.503 0 0 1 59.862 42.201 68.506 68.506 0 0 1-14.849 74.651A68.5 68.5 0 0 1 .086 74.924C-.01 73.034 1.533 71.5 3.425 71.5s3.415 1.535 3.52 3.423A61.65 61.65 0 1 0 71.923 9.945C70.035 9.84 68.5 8.317 68.5 6.425Z" fill="#6D892C"/><path d="m5.05 29.266.065-.17.583-1.537c.065-.171.364-.448.429-.62.064-.17.364-.447.598-.554.833-.66 1.536-.98 2.41-1.235.978-.02 1.656.238 2.27.666.615.428 1.034 1.369 1.22 2.416.185 1.047.031 1.965-.123 2.883-.154.918-.478 1.772-.802 2.626l-.582 1.537c-.194.512-.324.854-.558.96l-.389 1.025c-.13.341-.09.747-.219 1.089 0 0 .13-.342.429-.619.13-.341.493-.79.922-1.408.364-.448.558-.96.922-1.408.235-.107.534-.384.534-.384s.13-.342.429-.619c.299-.277.558-.96.922-1.408.793-1.067 1.52-1.963 1.52-1.963-.015-.982-.2-2.03-.62-2.97-.25-.876-1.075-1.774-1.704-3.185-.315-.705-.396-1.517-.476-2.329-.08-.812.138-1.9.527-2.925l.065-.171c.194-.512.388-1.025.752-1.473.364-.448.663-.725 1.132-.938 1.068-.767 1.94-1.022 2.749-1.106.808-.084 1.592.408 2.141 1.007.275.3.55.6.76 1.07.04.405.25.876.225 1.452.016.983-.203 2.072-.527 2.926l-.518 1.366c-.13.341-.323.854-.623 1.13-.558.961-1.116 1.922-1.48 2.37-.429.618-.688 1.301-.712 1.878 0 0 .299-.277.428-.619.3-.277.664-.725 1.028-1.173.897-.832 1.625-1.728 1.625-1.728l.599-.554c.299-.277.663-.725 1.261-1.28l1.796-1.663c-.016-.982-.032-1.965-.387-3.076-.08-.812-.775-2.052-1.065-3.334-.315-.705-.396-1.517-.242-2.435.154-.918.309-1.837.931-2.968l.065-.17c.195-.513.559-.96 1.092-1.344.065-.171.3-.278.364-.448l.704-.32c.937-.425 1.746-.51 2.659-.359 1.722.067 2.925 1.5 2.657 3.743-.154.918-.542 1.943-.866 2.796l-1.48 2.369c-.728.896-1.391 1.621-1.755 2.069-.599.554-.858 1.238-1.117 1.92 0 0 .898-.831 1.73-1.492.13-.341.365-.448.365-.448.833-.66 1.496-1.386 1.884-2.41.324-.854.608-2.114 1.295-3.416.26-.683.688-1.302 1.351-2.027.599-.554 1.431-1.215 2.54-1.577l.233-.106a3.949 3.949 0 0 1 1.682-.34c.234-.105.574.023.808-.083l.68.257c.913.151 1.866.708 2.35 1.478 1.035 1.368 1.13 3.163-.6 4.655-.833.661-1.6 1.151-2.539 1.577-.938.425-1.81.68-2.619.765-1.108.36-2.086.38-2.724.53-.639.148-2.15.551-3.283 1.49-.234.106-.533.383-.833.66-.299.277-.598.554-1.132.938-.663.725-1.496 1.386-1.86 1.834l-.897.832c.638-.149 1.172-.532 1.875-.852 1.003-.596 3.202-2.302 5.797-2.49l1.722.067c1.422.344 2.311 1.072 2.666 2.183.42.94.37 2.094-.187 3.054-.559.96-1.391 1.621-2.669 1.918-1.043.19-1.85.275-2.595.188-.404.042-.743-.086-1.082-.215l-1.019-.386c-1.357-.515-2.416-1.307-3.095-1.564-1.018-.386-2.166-.43-2.974-.347l-.599.555-.598.554s-.364.448-.898.832c-.299.277-.598.554-.962 1.002-.3.277-.663.725-1.027 1.173-.663.726-1.326 1.45-1.755 2.07-.429.618-.793 1.066-.793 1.066.534-.383 1.237-.703 1.77-1.086.365-.448 1.198-1.11 2.03-1.77.64-.149 1.173-.532 1.642-.745.638-.149 1.172-.532 1.81-.68.64-.15 1.043-.191 1.617-.169 1.488.173 2.61.794 3.03 1.735.59 1.005.606 1.987.217 3.012-.194.512-.388 1.025-.857 1.237-.234.107-.364.448-.598.555-.235.106-.534.383-.769.49a8.443 8.443 0 0 1-4.785.334c-1.422-.344-2.546-.965-3.459-1.116-1.083-.215-2.061-.196-2.934.06l-.857 1.237-.13.341c-.065.171-.364.448-.493.79a36.183 36.183 0 0 0-1.48 2.369c-.494.789-1.053 1.75-1.481 2.368-.429.619-.623 1.131-.623 1.131.534-.383 1.067-.767 1.496-1.386.364-.448 1.027-1.173 1.755-2.069a3.98 3.98 0 0 1 1.367-1.044c.234-.107.533-.384.768-.49.234-.107.533-.384.938-.426a3.947 3.947 0 0 1 1.68-.34c1.448-.232 2.571.39 3.16 1.394.655.834 1.01 1.945.622 2.97l-.26.683c-.064.17-.194.512-.428.619-.364.448-.728.896-1.367 1.044-.938.426-1.64.745-2.45.83-.808.084-1.616.168-2.19.145-1.148-.044-2.505-.559-3.314-.475-.978.02-2.19.146-2.958.637l-.26.683-.194.512-.064.17-1.188-.45.259-.683c.194-.512.558-.96.752-1.472l1.246-2.263c-.04-.405-.185-1.046-.226-1.452l-.63-1.411c-.484-.77-1.308-1.668-2.172-2.973-.315-.705-.63-1.41-.88-2.286a8.934 8.934 0 0 1-.056-1.389c.065-.17.025-.577.09-.747.024-.577.089-.748.048-1.154Z" fill="url(#a)"/><defs><linearGradient id="a" x1="32.827" y1="-.105" x2="17.202" y2="34.358" gradientUnits="userSpaceOnUse"><stop offset=".005" stop-color="#9ED978"/><stop offset=".135" stop-color="#98D476"/><stop offset=".312" stop-color="#86C671"/><stop offset=".517" stop-color="#69B068"/><stop offset=".743" stop-color="#41915B"/><stop offset=".983" stop-color="#0E694B"/><stop offset="1" stop-color="#0A664A"/></linearGradient></defs></svg>