<svg width="145" height="140" fill="none" xmlns="http://www.w3.org/2000/svg"><circle cx="76.5" cy="68.5" r="68.5" fill="#FEF7F3"/><path d="M40 54.503c.453-.586.85-1.228 1.36-1.757 1.417-1.473 2.928-2.89 4.326-4.364.813-.869 1.738-1.246 2.928-1.228 4.459.038 8.917.02 13.357.02h.755c.68-2.287.813-2.381 3.212-2.381 1.549 0 1.549 0 2.191-1.644-.566-.547-1.209-1.095-1.794-1.7-.87-.888-.964-1.851-.151-2.758a23.641 23.641 0 0 1 2.399-2.38c.831-.737 1.794-.661 2.607.094.529.491 1.058 1.02 1.549 1.55.245.264.472.358.793.15a1.62 1.62 0 0 1 .586-.245c.453-.095.567-.36.548-.813-.038-.68-.02-1.36 0-2.059.038-1.133.718-1.889 1.832-1.946a32.148 32.148 0 0 1 3.306 0c1.21.057 1.87.813 1.908 2.022.02.586.057 1.19 0 1.776-.056.604.17.869.737 1.133.661.284 1.058.246 1.493-.302.34-.435.774-.812 1.19-1.21.83-.793 1.813-.887 2.663-.131a26.973 26.973 0 0 1 2.437 2.437c.718.812.643 1.813-.094 2.607a29.937 29.937 0 0 1-1.55 1.549c-.264.245-.32.472-.15.793.132.227.17.51.32.7.133.17.36.358.549.377.49.057.982.019 1.492.019 2.021 0 2.418.321 2.815 2.38.34 0 .699-.019 1.077 0 .699.038 1.133.472 1.114 1.096-.019.604-.453.982-1.133 1.02-.321.019-.661 0-1.058 0-.038.283-.095.567-.113.831-.133 1.002-.832 1.663-1.852 1.7-.755.02-1.511.02-2.267 0-.359-.018-.529.114-.661.454-.434 1.133-.453 1.133.397 1.983.359.36.718.7 1.039 1.058.699.756.793 1.738.132 2.494a27.874 27.874 0 0 1-2.588 2.588c-.775.68-1.72.586-2.494-.132a30.016 30.016 0 0 1-1.549-1.55c-.264-.282-.472-.34-.85-.17-1.077.492-1.077.473-1.077 1.663 0 .492.02.983 0 1.493-.056 1.077-.68 1.794-1.738 1.87a27.283 27.283 0 0 1-3.514 0c-1.133-.076-1.757-.831-1.775-1.984-.02-.585-.057-1.19.019-1.775.056-.605-.095-.983-.737-1.115-.227-.038-.435-.17-.737-.302-.019.32-.038.566-.038.793v7.065c-.019.85-.397 1.304-1.077 1.285-.66-.019-1.039-.472-1.039-1.322-.019-1.53 0-3.06 0-4.59v-1.21c-1.416.888-2.342.095-3.23-.775-.586-.585-1.171-1.17-1.681-1.813-.68-.831-.624-1.776.113-2.55.51-.548 1.077-1.058 1.587-1.625.132-.151.208-.51.132-.699-.434-1.152-.453-1.152-1.738-1.152h-1.341c-1.134-.02-1.833-.662-1.965-1.814a4.414 4.414 0 0 0-.076-.491 1.05 1.05 0 0 0-.094-.246h-1.115c-4.382 0-8.765-.019-13.148.02-.378 0-.831.188-1.096.453a191.615 191.615 0 0 0-4.798 4.798c-.246.246-.435.68-.435 1.039-.019 9.88-.019 19.76-.019 29.64 0 .53.057.832.718.832 6.48-.019 12.96-.019 19.44-.019.113 0 .226-.019.359-.038.264-5.384 3.041-8.633 8.387-9.786v-3.967c0-.283-.019-.567.02-.85.075-.623.528-1.001 1.114-.944.604.056.963.415.963 1 .02 1.323.02 2.646.02 3.968v.831c.434.095.83.19 1.227.302 4.78 1.228 7.746 5.838 6.914 10.75-.793 4.666-5.195 8.104-9.974 7.632-3.91-.378-6.612-2.513-8.048-6.178-.189-.453-.378-.623-.85-.585-.718.037-1.455.019-2.192.019-.132.888.208 2.097-1.152 2.078-1.285-.02-.944-1.21-1.077-2.078h-.831c-4.628 0-9.238-.038-13.866.019-1.53.018-2.645-.416-3.287-1.852C40 75.718 40 65.12 40 54.504ZM86.51 37.86c-.66.699-1.208 1.322-1.775 1.908-.661.699-1.455.812-2.324.434-.49-.207-1.001-.415-1.492-.623-.926-.378-1.322-.926-1.322-1.946v-2.55H76.8v2.626c0 .906-.435 1.511-1.266 1.851-.397.151-.794.302-1.171.472-1.36.624-1.927.53-2.966-.51-.51-.51-.983-1.058-1.474-1.568a253.04 253.04 0 0 0-2.135 2.003c.7.68 1.323 1.247 1.927 1.832.661.661.756 1.417.397 2.267-.208.491-.434 1.002-.623 1.493-.378.944-.907 1.322-1.946 1.322h-2.55v2.796h2.455c1.096 0 1.644.397 2.04 1.398.19.453.36.907.567 1.36.435.983.321 1.663-.453 2.437-.586.586-1.19 1.134-1.833 1.738.718.737 1.323 1.38 2.04 2.116.379-.416.643-.737.926-1.04.303-.32.624-.641.945-.944.642-.623 1.398-.736 2.21-.377.491.207 1.001.434 1.493.623.982.397 1.36.944 1.379 1.984v2.512h2.796v-2.626c0-.907.453-1.511 1.284-1.832.454-.19.926-.36 1.38-.567 1.114-.491 1.737-.397 2.606.472.567.567 1.096 1.134 1.644 1.7.737-.717 1.379-1.322 2.097-2.002-.7-.661-1.322-1.228-1.908-1.832-.661-.662-.756-1.436-.397-2.267.208-.473.397-.945.586-1.436.397-1.001.963-1.398 2.04-1.417h2.494v-2.796h-2.55c-1.059-.019-1.587-.397-1.984-1.379-.17-.434-.34-.869-.53-1.303-.471-1.059-.377-1.72.473-2.55.567-.549 1.19-1.059 1.87-1.663-.774-.756-1.398-1.36-2.153-2.116ZM72.098 78.363a7.208 7.208 0 0 0-7.255 7.198c-.019 3.986 3.23 7.254 7.217 7.273 3.986 0 7.254-3.23 7.273-7.217 0-3.986-3.23-7.235-7.235-7.254Z" fill="#202020"/><path d="M99.546 66.896h10.56c1.738 0 2.324.586 2.324 2.343v6.782c0 1.473-.642 2.115-2.097 2.134H99.679v2.135h10.541c1.586 0 2.229.642 2.229 2.23v7.008c0 1.36-.68 2.04-2.041 2.06-.963 0-1.926.018-2.89 0-.756-.02-1.209-.435-1.19-1.097.019-.623.453-1.02 1.19-1.02.907-.019 1.833 0 2.777 0v-6.99H86.87v6.99h15.377c.756.02 1.228.435 1.209 1.077-.019.623-.453 1.02-1.19 1.04-.85.018-1.7 0-2.588 0v2.134h10.617c1.493 0 2.154.661 2.154 2.154v7.065c0 1.36-.68 2.059-2.041 2.059h-23.69c-1.322 0-2.002-.699-2.002-2.021v-1.549c0-.529.076-1.002-.567-1.361-.547-.302-.453-1.228.114-1.549.415-.245.453-.529.453-.906-.019-.586 0-1.172 0-1.776 0-1.455.661-2.116 2.097-2.116h10.636v-2.135H86.832c-1.474 0-2.135-.642-2.135-2.097v-7.14c0-1.361.68-2.041 2.04-2.041H97.43v-2.135H86.984c-1.739 0-2.306-.567-2.306-2.267v-6.725c0-1.7.586-2.267 2.305-2.267h10.485c0-.737-.02-1.417 0-2.097.019-.831.415-1.285 1.096-1.266.66.02 1 .435 1.02 1.247v1.058c0 .302-.02.623-.038 1.039Zm-12.714 35.913h23.425v-6.933H86.832v6.933Zm0-26.826h23.425v-6.915H86.832v6.915ZM56.549 59.188h-7.141c-.831 0-1.304-.472-1.228-1.19.076-.585.51-.926 1.285-.926h5.232c2.966 0 5.932-.019 8.898.02.397 0 .888.207 1.153.49.189.19.227.775.075 1.02-.189.303-.66.567-1.02.567-1.851.057-3.721.02-5.573.02h-1.68Zm.056 8.162h7.142c.963 0 1.567.793 1.095 1.51-.189.303-.68.586-1.02.586-4.836.038-9.654.038-14.49.02-.736 0-1.152-.435-1.152-1.059 0-.66.434-1.039 1.228-1.058h7.197Zm-.056 7.273h-7.066c-.51 0-.944-.095-1.19-.586-.359-.68.095-1.455.907-1.53.435-.038.888-.02 1.341-.02h12.79c.227 0 .472-.018.699.02.585.094 1.02.585.944 1.114-.075.586-.415.945-1.02.964-.208.019-.415 0-.642 0-2.248.038-4.515.038-6.763.038Zm.076-12.393h6.914c.944 0 1.454.378 1.436 1.058-.02.66-.51 1.058-1.398 1.058H49.52c-.925 0-1.398-.435-1.34-1.153.037-.623.453-.963 1.246-.963h7.198Zm-4.1 15.434c1.04 0 2.078-.019 3.117 0 .813.019 1.228.397 1.21 1.058 0 .623-.416 1.039-1.172 1.039-2.116.019-4.232.019-6.367 0-.736 0-1.152-.434-1.133-1.077 0-.642.416-1.02 1.171-1.039 1.058 0 2.116.02 3.174.02Zm8.917 21.329c.019.85-.661 1.416-1.342 1.171-.944-.321-1.605-.983-1.87-1.946-.132-.51.057-.945.53-1.171.471-.227.906-.132 1.284.245.359.36.718.718 1.039 1.096.189.208.283.472.359.605Zm38.293-48.759c-.133.85-.492 1.322-1.134 1.379-.623.038-1.02-.378-1.152-1.153a3.055 3.055 0 0 0-.321-.906c-.265-.567-.17-1.115.302-1.436.472-.321 1.114-.265 1.436.245.377.586.585 1.247.869 1.87Zm-.17 4.741c0 .322.037.662 0 .983-.057.548-.416.85-.945.869-.548.038-1.001-.227-1.077-.794a10.447 10.447 0 0 1 0-2.172c.057-.567.491-.831 1.058-.794.567.038.907.36.964.926.037.321.019.642 0 .982Zm0 5.215c0 .32.038.66 0 .982-.076.567-.454.869-1.001.888-.53.019-.964-.265-1.002-.794a9.782 9.782 0 0 1 .02-2.229c.056-.529.51-.774 1.038-.737.53.02.888.322.964.85.019.34-.02.7-.02 1.04ZM58.08 93.59c0-.322-.039-.662 0-.983.075-.567.434-.888 1-.888.567-.019.983.284 1.02.85.057.68.076 1.36.02 2.04-.057.605-.473.926-1.077.889-.548-.02-.926-.36-.983-.926a8.52 8.52 0 0 1 .02-.982c-.02 0-.02 0 0 0Zm6.649 6.763c-.321 0-.661.038-.982 0-.53-.076-.832-.416-.87-.945-.037-.567.227-1.02.794-1.077a10.447 10.447 0 0 1 2.173 0c.566.057.83.492.812 1.058-.038.567-.36.907-.926.964a5.87 5.87 0 0 1-1.001 0c0 .019 0 0 0 0Zm5.308 0c-.359 0-.699.038-1.058 0-.529-.057-.85-.397-.888-.926-.037-.567.227-1.02.775-1.077a11.927 11.927 0 0 1 2.172-.019c.567.057.85.492.813 1.058-.02.567-.34.907-.926.983a7 7 0 0 1-.888-.019c0 .019 0 0 0 0Zm5.12.019c-.302 0-.605.019-.907 0-.529-.057-.85-.378-.907-.907-.056-.567.19-1.02.756-1.096a8.809 8.809 0 0 1 2.23 0c.566.057.812.53.774 1.077-.038.529-.36.869-.888.926-.359.019-.718-.019-1.058 0Zm5.252 0c-.303 0-.605.018-.907 0-.567-.057-.888-.416-.926-.964-.037-.567.246-1.001.813-1.058a10.433 10.433 0 0 1 2.172 0c.567.057.831.51.794 1.077-.038.529-.34.869-.87.945-.377.018-.736-.019-1.076 0 0-.019 0 0 0 0Zm-2.777-44.584c-2.645-.17-5.007-1.587-6.291-4.496-1.247-2.834-.831-5.573 1.228-7.897 2.097-2.38 4.76-3.08 7.82-2.23.945.265 1.285.757 1.078 1.437-.19.66-.756.869-1.682.585-2.909-.869-5.856.7-6.725 3.57a5.326 5.326 0 0 0 3.552 6.67c2.04.604 3.891.15 5.384-1.38 1.51-1.549 1.908-3.42 1.265-5.478-.34-1.096-.226-1.644.51-1.87.68-.208 1.134.15 1.512 1.209 1.643 4.836-2.003 9.899-7.651 9.88Z" fill="#202020"/><path d="M81.448 48.307a3.257 3.257 0 0 1-3.268 3.268 3.236 3.236 0 0 1-3.269-3.325 3.246 3.246 0 0 1 3.306-3.23 3.23 3.23 0 0 1 3.23 3.287Zm-3.25-1.172c-.66 0-1.152.492-1.152 1.153s.491 1.152 1.134 1.171c.66 0 1.152-.491 1.17-1.133-.018-.662-.51-1.172-1.151-1.19Zm-6.706 39.37c1.133-1.133 2.135-2.153 3.155-3.155.17-.17.321-.34.51-.49.472-.34.982-.36 1.398.075.434.434.472.963.057 1.398a193.312 193.312 0 0 1-4.402 4.401c-.435.416-.964.397-1.398-.018a131.678 131.678 0 0 1-3.25-3.25c-.434-.453-.415-1.058-.018-1.454.415-.454 1.001-.473 1.511-.02.416.379.812.794 1.21 1.19.396.398.774.832 1.227 1.323Zm27.034 13.885h-7.198c-.264 0-.529 0-.775-.037-.51-.095-.793-.435-.83-.926-.038-.529.188-.926.717-1.077.265-.075.548-.075.831-.075h14.547c.226 0 .472 0 .699.056.567.133.85.492.831 1.058-.019.567-.34.926-.926.983-.321.037-.661.018-.982.018h-6.914Zm0-28.922h7.481c.888 0 1.36.377 1.341 1.076-.019.662-.472 1.04-1.322 1.04H91.045c-.87 0-1.36-.416-1.36-1.096.019-.661.49-1.04 1.322-1.04 2.531.02 5.025.02 7.519.02Z" fill="#202020"/><path d="M76.5 3.425c0-1.892 1.534-3.434 3.424-3.34a68.502 68.502 0 0 1 59.862 94.629 68.505 68.505 0 0 1-59.862 42.2c-1.89.095-3.424-1.447-3.424-3.339s1.535-3.415 3.423-3.52a61.644 61.644 0 0 0 53.534-37.963 61.654 61.654 0 0 0-13.364-67.185 61.65 61.65 0 0 0-40.17-17.962C78.035 6.84 76.5 5.317 76.5 3.425Z" fill="#F36A15"/><path d="M14.699 69.775a3.947 3.947 0 0 0-1.153 1.27c-.275.504-.55 1.008-.678 1.723-.17 1.998.296 3.555 1.036 4.609.74 1.053 1.724 1.78 2.137 2.592.444.632.856 1.442.94 2.01-.03.179.117.39.054.747.084.568.105 1.493.338 2.272.232.779.253 1.704.518 2.304.116.39.084.568.232.78-.031.178.148.21.148.21-.296-.422-.772-.875-.856-1.443a10.563 10.563 0 0 0-.91-2.19c-.296-.42-.38-.989-.676-1.41-.296-.421-.56-1.021-1.037-1.475-.476-.453-.983-.728-1.28-1.149-.655-.485-1.195-.58-1.734-.677-.54-.096-1.11-.013-1.502.102-.995.376-1.693 1.174-1.883 2.246-.096.536-.19 1.072-.106 1.64.084.568.349 1.168.793 1.8 1.184 1.686 2.56 2.299 3.786 2.701 1.227.403 2.55.269 3.269.397.899.16 1.914.709 2.39 1.162 0 0 .116.39.085.568-.032.179.116.39.116.39l-.032.178s.465 1.557 1.079 3.326l1.29 3.178c-.328-.242-.624-.663-1.1-1.117a2.514 2.514 0 0 1-.413-.81c-.116-.39-.444-.633-.708-1.233-.592-.842-1.185-1.685-2.168-2.413-.328-.242-.804-.695-1.344-.791-1.195-.582-2.306-.595-3.152-.008-.846.587-1.365 1.417-1.587 2.668-.01 1.104.338 2.272 1.29 3.179.296.421.804.696 1.132.938.328.243.656.485 1.195.581.688.307 1.407.435 2.126.563 1.29.044 2.433-.121 3.184-.172.931-.019 1.978.352 2.666.658l.528 1.2.148.211.445.632c.264.6.708 1.232 1.12 2.042.413.811.857 1.443 1.122 2.043.264.6.592.843.592.843a3.988 3.988 0 0 1-1.28-1.149c-.624-.664-1.925-2.739-4.135-3.869-.508-.275-.836-.517-1.375-.613-1.407-.435-2.402-.058-3.248.529-.666.618-1.037 1.659-1.047 2.763.169 1.136.729 2.157 1.86 3.096a5.018 5.018 0 0 0 2.391 1.162c.72.128 1.439.256 2.19.205 1.322-.134 2.316-.51 3.279-.708.963-.197 1.862-.038 2.729.301l.74 1.053.593.843c.476.453.888 1.264 1.332 1.896.624.664 1.068 1.296 1.544 1.749l.444.632.148.211c-.36-.064-.507-.275-.867-.339-.328-.242-.508-.274-.656-.485-.328-.243-.951-.907-1.787-1.424-.804-.696-1.82-1.245-2.866-1.615-.508-.275-1.048-.371-1.587-.467-1.439-.255-2.465.3-3.163 1.097-.698.798-.889 1.87-.54 3.038.38.99 1.121 2.043 2.316 2.624 1.883.888 3.385.786 4.74.474 1.353-.313 2.2-.9 2.982-1.129.963-.198 1.925-.396 2.645-.268l.148.211c.18.032.148.211.328.242.148.211.476.454.476.454s.327.242.803.696c.476.453 1.1 1.117 1.756 1.602.328.243.624.664.952.907.328.242.656.485.804.696.476.453.804.695.804.695-.54-.095-1.048-.37-1.735-.677-.508-.274-1.164-.759-2-1.277-.835-.517-1.882-.887-3.14-1.111-.54-.096-1.08-.192-1.65-.109-1.323.134-2.35.689-2.867 1.518-.519.83-.53 1.934-.15 2.924.382.989 1.334 1.895 2.56 2.298 1.947.53 3.48.25 4.687-.273 1.205-.523 2.084-1.289 2.866-1.519.815-.408 1.778-.605 2.708-.624 0 0 .328.242.476.453.328.242.476.453.476.453s.328.243.804.696c.328.243.476.453.804.696l.983.728a19.186 19.186 0 0 0 2 1.277c.507.274.835.517.835.517-.54-.096-1.079-.192-1.766-.498-.868-.339-2.867-1.616-5.268-1.674-.54-.096-1.11-.013-1.502.102-1.354.312-2.2.899-2.57 1.939-.34.862-.17 1.998.39 3.019a4.42 4.42 0 0 0 2.835 1.795c1.978.351 3.543-.108 4.601-.842 1.058-.733 1.936-1.499 2.571-1.939.846-.587 1.809-.785 2.592-1.014l1.163.759 3.046 1.648a37.873 37.873 0 0 0 3.078 1.469c-.57.082-1.11-.013-1.83-.141-.867-.339-3.141-1.112-5.574-.991-.571.083-.963.198-1.534.28-1.386.492-2.084 1.289-2.243 2.183-.158.893.01 2.029.783 2.904.592.843 1.787 1.424 3.078 1.469 1.11.013 1.893-.217 2.676-.446.751-.051 1.354-.313 1.809-.785 1.058-.734 1.608-1.742 2.274-2.361.667-.619 1.661-.995 2.444-1.225 0 0 .36.064.508.275.36.064.687.306.687.306l.37-1.04s-.18-.032-.507-.274c-.36-.064-.867-.339-1.375-.613-.867-.339-1.883-.888-1.883-.888-.444-.632-.645-1.59-.454-2.662.106-1.64 1.333-4.371-.38-7.257l-.148-.21c-.116-.39-.444-.632-.772-.875s-.508-.275-.836-.517c-.719-.128-1.29-.045-1.861.038-1.206.523-2.36 1.793-2.138 3.675.021.926.286 1.526.698 2.337.444.632.889 1.264 1.364 1.717.624.664 1.28 1.149 1.788 1.424.508.274.772.874 1.248 1.327 0 0-.18-.032-.508-.274-.328-.243-.687-.307-1.195-.581-.508-.275-.836-.517-1.195-.581-.328-.243-.508-.275-.508-.275s-.18-.032-.508-.275c-.328-.242-.835-.517-1.163-.759l-1.671-1.035c-.233-.778-.434-1.736-.095-2.597.127-.715.709-1.902.931-3.153.127-.715.223-1.251.17-1.998-.053-.746-.106-1.493-.518-2.304l.032-.179c-.677-1.41-2.052-2.023-3.406-1.711-1.354.312-2.655 1.372-2.645 3.401-.106 1.64.719 3.262 1.459 4.315.624.664 1.248 1.328 1.544 1.749a4.26 4.26 0 0 1 1.036 1.475l-1.67-1.035c-.836-.517-1.64-1.213-1.64-1.213s-.148-.21-.476-.453a10.433 10.433 0 0 1-1.132-.938c-.328-.243-.803-.696-1.131-.939-.328-.243-.476-.453-.476-.453-.233-.779-.074-1.672.265-2.534.306-.683.857-1.691 1.259-2.91.402-1.219.656-2.649.37-4.174l.032-.179c-.116-.389-.232-.778-.38-.989-.149-.211-.476-.453-.624-.664-.508-.275-1.227-.402-1.978-.352-1.323.134-2.772.983-3.121 2.948-.16.894-.106 1.641.126 2.419l.35 1.168c.115.39.263.6.38.99.412.81 1.036 1.474 1.332 1.896.297.421.56 1.021.825 1.621 0 0-.624-.664-1.428-1.36-.624-.664-1.427-1.36-1.427-1.36s-.804-.696-1.396-1.538c-.297-.421-.624-.664-.92-1.085-.149-.211-.329-.243-.297-.422l-.148-.21c-.053-.747.138-1.819.656-2.649.307-.683 1.217-1.627 1.767-2.635.582-1.187 1.164-2.374 1.09-4.047l.032-.178c-.074-1.673-1.237-2.432-2.707-2.509-1.29-.045-2.888.592-3.566 2.316-.063.357-.338.861-.402 1.219-.063.357-.127.714-.01 1.104.053.746.285 1.525.37 2.093.412.811.824 1.622.94 2.011.149.211.265.6.233.779.148.21.085.568.233.778 0 0-.148-.21-.476-.453-.328-.243-.444-.632-.74-1.053a15.356 15.356 0 0 0-1.216-1.507l-1.185-1.685-1.184-1.685c.127-.715.497-1.755.984-2.406.973-1.302 3.512-3.063 3.872-6.133l.032-.178c.106-1.64-.846-2.547-2.073-2.95-1.259-.223-2.973.025-4.01 1.684-.243.326-.306.683-.581 1.187l-.19 1.072c-.128.715-.075 1.462.158 2.241.2.957.433 1.736.55 2.125.264.6.168 1.136.253 1.704 0 0-.148-.21-.265-.6-.116-.389-.412-.81-.528-1.2-.296-.421-.413-.81-.529-1.2-.148-.21-.148-.21-.116-.389l-.148-.211s-.381-.99-.793-1.8c-.296-.421-.381-.99-.53-1.2-.115-.39-.263-.6-.263-.6.306-.683.645-1.544 1.311-2.163.667-.62 1.513-1.206 2.571-1.94.878-.765 1.82-1.888 2.285-3.465l.032-.178c.127-.715.075-1.462-.19-2.062-.264-.6-.952-.907-1.46-1.181-1.195-.581-2.877-.512-4.273 1.084-1.153 1.27-1.439 2.878-1.302 4.193.021.925.254 1.704.338 2.272-.634.44-.73.976-.825 1.512l.032-.178s-.148-.211-.116-.39l-.35-1.168-.76-1.979s-.149-.21-.085-.568c-.116-.389-.2-.957-.317-1.347a8.825 8.825 0 0 0-.317-1.346c.031-.179-.117-.39-.117-.39l.032-.178c.307-.683 1.005-1.48 1.82-1.889.634-.44 1.809-.785 2.867-1.518 1.058-.734 2.147-1.646 2.972-3.159l.032-.179c.614-1.365-.063-2.776-1.226-3.536-1.164-.76-2.814-.869-4.327.337-.846.587-1.333 1.238-1.64 1.921-.031.179-.243.326-.275.504l-.095.536-.19 1.072c-.16.894-.138 1.82-.202 2.177.085.568-.19 1.072-.286 1.608 0 0 .032-.178-.084-.568-.117-.39-.233-.779-.137-1.315-.117-.389-.053-.746-.201-.957-.085-.568-.032-2.955.064-3.491.275-.504.582-1.187.772-2.26.095-.536.37-1.04.466-1.576.095-.536.19-1.072.106-1.64-.085-.568.01-1.104-.286-1.526-.232-.778-.348-1.168-.824-1.62-.297-.422-.804-.697-1.312-.971-.54-.096-1.682.07-2.528.656Z" fill="url(#a)"/><defs><linearGradient id="a" x1="3.707" y1="84.894" x2="48.78" y2="114.631" gradientUnits="userSpaceOnUse"><stop stop-color="#FAD12F"/><stop offset="1" stop-color="#FA7E2F"/></linearGradient></defs></svg>