<svg version="1.2" xmlns="http://www.w3.org/2000/svg" width="137" height="147"><defs><linearGradient id="P" gradientUnits="userSpaceOnUse"/><linearGradient id="g1" x1="52.8" y1="140.6" x2="93.7" y2="115.2" href="#P"><stop offset="0" stop-color="#0060ad"/><stop offset=".2" stop-color="#1377be"/><stop offset=".7" stop-color="#24bdf0"/><stop offset="1" stop-color="#4fc2df"/></linearGradient></defs><style>.b{fill:#202020}</style><path d="M68.5 137C30.6 137 0 106.4 0 68.5S30.6 0 68.5 0 137 30.6 137 68.5 106.4 137 68.5 137z" style="fill:#f2f7fb"/><path fill-rule="evenodd" class="b" d="M87.9 38c4.6.5 8.4 2.5 11.2 6.2 2 2.7 3.1 5.6 3.2 8.9.2 7.3-4.6 13.9-12 15.7v7.5c1 .3 1.2 1 1.2 2v18c0 1.4-.4 1.7-1.8 1.7h-1.8v4.4c0 1.2-.4 1.6-1.7 1.6H36.6c-1.2 0-1.6-.4-1.6-1.6v-58c0-.7.2-1.2.8-1.6 4.7-3.4 9.3-6.9 13.9-10.3.3-.3.9-.5 1.3-.5h35.3c1.2 0 1.6.4 1.6 1.6V38zm-50.4 63.6h47.9V98h-1.9c-1.3 0-1.6-.3-1.6-1.7 0-6 0-12-.1-18.1 0-.9.2-1.7 1.2-1.8v-7.6c-7.2-1.7-12-8.1-11.9-14.8.1-9.3 5.4-14.4 14.3-16.1v-3.4H51.8v9.1c0 1.2-.3 1.6-1.6 1.6H37.5v56.4zm49.2-34.8c7.3 0 13.2-5.9 13.2-13.2 0-7.2-5.9-13.2-13.1-13.2-7.3 0-13.3 5.9-13.3 13.1 0 7.4 5.8 13.3 13.2 13.3zm-2.4 12v16.8H89V78.8h-4.7zM49.4 35.6c-3.2 2.4-6.3 4.7-9.5 7.2h9.5v-7.2zm38.4 40.8v-7.1h-2.3v7.1h2.3z"/><path fill-rule="evenodd" class="b" d="M63.9 82.4h-9.2c-.4 0-.7.1-.9.5-1.4 2.5-4.8 2.6-6.2.1-.3-.5-.6-.6-1-.6h-4.1c-.9 0-1.4-.5-1.4-1.2 0-.8.5-1.2 1.4-1.2h4.2c.4 0 .6-.1.8-.5.7-1.2 1.8-1.9 3.2-1.9 1.4 0 2.5.7 3.1 1.9.2.4.5.5.9.5h18.9c.6.1 1.1.6 1.1 1.2 0 .7-.5 1.2-1.1 1.2-.6.1-1.2 0-1.8 0h-7.9zM50.7 80c-.7 0-1.2.5-1.2 1.2-.1.6.5 1.2 1.1 1.2.7.1 1.2-.5 1.3-1.2 0-.6-.6-1.2-1.2-1.2zM51.8 87.2H61c.4 0 .7-.1 1-.5 1.3-2.5 4.8-2.5 6.2-.1.2.5.5.6 1 .6h4c.9 0 1.5.5 1.5 1.2s-.6 1.2-1.5 1.2H69c-.3 0-.6.1-.8.5-.6 1.2-1.7 1.9-3.1 1.9-1.4 0-2.5-.7-3.2-1.9-.2-.5-.5-.5-.9-.5H42.3c-.7 0-1.2-.5-1.2-1.2 0-.6.5-1.2 1.2-1.2h9.5zm13.3 2.4c.6 0 1.1-.6 1.1-1.2 0-.7-.5-1.2-1.2-1.2-.7.1-1.2.6-1.1 1.3 0 .6.5 1.1 1.2 1.1zM63.9 96.8h-9.2c-.4 0-.7.1-.9.5-1.4 2.6-4.8 2.6-6.2.1-.3-.5-.6-.6-1-.6q-2 .1-4.1 0c-.9 0-1.4-.4-1.4-1.1 0-.8.5-1.3 1.4-1.3h4.2c.4 0 .6 0 .8-.5.7-1.2 1.8-1.9 3.2-1.9 1.4 0 2.5.7 3.1 1.9.2.5.5.5.9.5h18.2c.2 0 .5 0 .7.1.6 0 1.1.5 1.1 1.1 0 .7-.5 1.2-1.1 1.2-.6.1-1.2 0-1.8 0h-7.9zm-13.2 0c.6 0 1.1-.5 1.2-1.2 0-.6-.6-1.2-1.3-1.2-.6 0-1.1.6-1.1 1.2 0 .7.5 1.2 1.2 1.2z"/><path class="b" d="M53.7 71.6h10.4c.6.2.9.6.9 1.2s-.3 1-.9 1.2H43.4c-.7-.1-1.1-.6-1.1-1.2s.4-1.1 1.1-1.2H53.7zM45.7 62.9c.8-.8 1.5-1.6 2.3-2.3.7-.7 1.4-.7 1.9-.2.5.5.5 1.2-.2 1.9-.8.7-1.6 1.5-2.4 2.4.8.8 1.6 1.5 2.4 2.3.7.6.7 1.3.2 1.9-.5.5-1.2.4-1.9-.3-.8-.7-1.5-1.5-2.3-2.4-.9.9-1.6 1.7-2.4 2.5-.6.6-1.4.7-1.9.1-.5-.5-.4-1.2.2-1.9.8-.7 1.6-1.5 2.4-2.3-.8-.8-1.6-1.6-2.4-2.3-.6-.7-.7-1.4-.2-1.9.5-.6 1.3-.5 1.9.2.8.7 1.5 1.5 2.4 2.3zM44.8 54.4c1.5-1.2 3.1-2.5 4.6-3.7l.3-.3c.7-.5 1.4-.5 1.8.1.5.5.4 1.2-.2 1.7q-2.1 1.7-4.1 3.4-.9.6-1.7 1.3c-.7.5-1.2.5-1.8-.1l-2.2-2.2c-.6-.7-.6-1.3-.1-1.9.5-.5 1.2-.4 1.8.2q.7.7 1.5 1.4l.1.1zM59.1 57.2h4.5c.9 0 1.5.5 1.5 1.3-.1.7-.6 1.1-1.5 1.1h-9.1c-.9 0-1.5-.5-1.4-1.2 0-.7.5-1.2 1.4-1.2h4.6zM59 64.4h-4.5c-.9 0-1.4-.4-1.4-1.2-.1-.7.5-1.2 1.4-1.2h9.1c.9 0 1.4.5 1.4 1.2.1.7-.5 1.2-1.4 1.2H59zM59.1 66.8h4.5c.9 0 1.4.5 1.4 1.2s-.5 1.2-1.4 1.2h-9.1c-.9 0-1.5-.4-1.5-1.2 0-.7.6-1.2 1.5-1.2h4.6zM59 54.8h-4.5c-.9 0-1.4-.4-1.4-1.1-.1-.7.5-1.3 1.3-1.3h9.2c.9 0 1.5.5 1.4 1.2 0 .8-.5 1.2-1.4 1.2-1.5.1-3 0-4.6 0z"/><path d="M68.5 3.4C68.5 1.5 70 0 71.9.1c7.8.4 15.6 2.1 22.8 5.1 8.3 3.5 15.9 8.5 22.2 14.9 6.4 6.3 11.4 13.9 14.9 22.2 3 7.2 4.7 15 5.1 22.8.1 1.9-1.4 3.4-3.3 3.4s-3.4-1.5-3.5-3.4c-.4-6.9-2-13.8-4.6-20.2-3.1-7.5-7.7-14.3-13.4-20-5.7-5.7-12.5-10.3-20-13.4-6.4-2.6-13.3-4.2-20.2-4.6-1.9-.1-3.4-1.6-3.4-3.5z" style="fill:#0060ad"/><path d="M34.7 124c.4-.4.9-.7 1.4-.8.6-.1 1.3-.1 2 .1.5.1 1.1.4 1.6.6.6.4 1 .6 1.5 1.1.4.3.8.7 1.2 1.1.7.7 1.3 1.5 1.6 1.9.5.5 2.8 1.6 3.3 1.9.3.1.7.2 1 .4.5.2 1 .4 1.4.4l.6.2c-.4-.4-.9-.8-1.5-1.1-.4-.3-1.2-.7-2-1.3q-.4-.3-.8-.7c-.1-.1-.3-.2-.4-.4l-.4-.4c-.4-.7-.8-1.5-1.1-2.4-.5-2 .6-3.4 1.8-4.2 1.3-.7 2.9-.5 3.9.7.1.1.1.1.2.1 1 1.4 1.3 3 1.5 4.3 0 1.5-.1 2.7 0 3.5.1.9.5 1.9 1 2.6 0 0 0 .1.1.1.2.1.3.2.5.2l1.5.3c.6.1 1.1.3 1.5.4.5.1.7.1.7.1s1.1.2 2.1.4c.4.1.9.1 1.3.2.2 0 .4 0 .5.1.1-.1.2 0 .2 0-.6-.3-1.1-.7-1.6-.9-.5-.3-1.4-.5-2.3-.9-1.2-.8-2.6-1.7-3.3-3.5-.7-1.9 0-3.5 1.2-4.4.5-.4 1.2-.8 1.9-.7.6-.1 1.4.1 2 .7 0 .1 0 .1.1.1 1.3 1.2 1.9 2.6 2.2 4 .3 1.3.3 2.5.6 3.3.3 1 .8 1.9 1.4 2.5h.7c.4.2.9.1 1.5.2 1.1.1 2.2.1 2.2.1h.7c.4 0 .8.1 1.4 0 .4.1.9 0 1.3 0 .3.1.6 0 .6 0-.5-.2-1.1-.5-1.7-.6-.5-.1-1.4-.2-2.3-.5-.7-.2-1.4-.6-2.1-1-.3-.3-.7-.5-1-.8-.3-.4-.6-.7-.8-1.1-1.1-1.7-.6-3.5.3-4.6 1-1 2.4-1.5 3.8-.6.1.1.1.1.2.1 2.9 2 3.2 5.3 3.9 6.8.4.9 1 1.7 1.8 2.2l2.2-.2c1-.1 2.1-.2 2.1-.2s1-.2 2.1-.4c.5 0 1-.1 1.4-.2.4-.1.6-.1.6-.1-.2-.2-.6-.2-.8-.3-.3 0-.7-.1-1-.1-.5 0-1.4 0-2.4-.1-.7 0-1.5-.2-2.2-.6-.4-.2-.8-.4-1.1-.6-.4-.3-.7-.6-1-.9-1.4-1.6-1.3-3.4-.5-4.6.8-1.2 2.1-1.9 3.6-1.2h.2c1.5.7 2.6 1.9 3.3 3.1.7 1.1 1.2 2.2 1.7 3 .6.8 1.3 1.4 2.1 1.8 0 0 .1.1.2 0 .1 0 .3-.1.5-.1.4-.1.9-.3 1.5-.4 1.1-.2 2.1-.6 2.1-.6l2-.6c1-.4 1.9-.7 1.9-.7-.6-.1-1.2-.1-1.8 0-.6.1-1.5.2-2.4.2h-1.2c-.4 0-.7-.1-1.2-.2-.8-.2-1.5-.6-2.3-1.2-1.6-1.3-1.7-3.1-1.1-4.4.3-.6.8-1.3 1.4-1.6.2-.1.6-.3.9-.3.3 0 .7 0 1.2.1l.1.1c1.7.5 2.9 1.4 3.8 2.4.9 1.1 1.5 2.2 2.1 2.8.7.7 1.6 1.3 2.4 1.5 0 0 .3-.2.6-.3.4-.1.9-.4 1.4-.6.5-.3 1-.4 1.4-.6l.6-.3s.9-.4 1.9-.9c.9-.5 1.8-.9 1.8-.9-.6.1-1.2.1-1.8.3-.6.1-1.4.4-2.4.6-1.4.2-3.2.2-4.8-.7-1.7-1.1-2.2-2.9-1.8-4.3.4-1.4 1.6-2.5 3.3-2.3.1-.1.1-.1.2 0 .8 0 1.6.3 2.3.6q.9.5 1.8 1.2c1 .9 1.7 1.9 2.4 2.4.8.7 1.8 1.1 2.6 1.2 0 0 .9-.5 1.9-1.1.5-.4 1-.6 1.3-.8.3-.3.6-.4.6-.4s.2-.1.6-.4c.3-.2.7-.5 1.1-.7.5-.3.9-.6 1.2-.8.3-.2.5-.4.5-.4-.6.1-1.3.2-1.8.5-.5.2-1.2.7-2.3.9-.7.3-1.5.5-2.3.5-.7 0-1.6-.1-2.5-.5-1.8-.8-2.6-2.5-2.4-3.9.1-.8.4-1.4.9-2 .2-.2.6-.5.9-.6.3-.2.8-.3 1.2-.3 0 0 .1-.1.2 0 3.5-.1 5.6 2.4 7.1 3.3.9.5 1.9.8 2.7.8 0 0 1-.7 1.8-1.4.5-.3.9-.7 1.2-1 .3-.2.5-.4.5-.4l.8.9s-.2.2-.5.4l-.5.5c-.1.8-.2 1.9 0 2.9.2.8.8 1.9 1 3.3.2.8.2 1.5.1 2.3-.1.8-.4 1.8-1 2.7-.7 1.2-1.8 1.9-2.9 2.2-1.1.2-2.3-.1-3.1-.8-.7-.7-1.1-1.8-.9-3.3.2-.6.3-1.1.5-1.6.9-2.3 2.8-3.9 3.6-4.7.5-.5.7-1.1 1-1.6 0 0-1.4 1.1-2.9 2.2-1.5 1-3.1 2-3.1 2l-1 .5c-.4.8-.5 1.8-.4 2.8.1.9.5 2.1.6 3.5 0 1.4-.2 3.1-1.5 4.8-.9 1.1-2 1.6-3.2 1.7-1.1.2-2.3-.3-2.9-1.1-.7-.9-.9-2-.5-3.4.2-.6.4-1.1.6-1.6 1.3-2.2 3.4-3.5 4.2-4.2.5-.4.9-1 1.2-1.5 0 0-.4.3-.9.6-.6.3-1.4.8-2.2 1.2l-1.2.6c-.4.1-.7.3-1 .5-.7.3-1 .5-1 .5s-.3.1-.7.2c-.3.2-.6.3-.6.3-.5.8-.8 1.7-.8 2.8-.1.8.2 2 .1 3.5-.2 1.4-.7 3-2.2 4.5-1 1.1-2.3 1.4-3.4 1.3-1.2 0-2.3-.7-2.8-1.5-.6-.9-.6-2.1 0-3.5.3-.5.6-.9.9-1.4.8-1 1.8-1.7 2.7-2.3.8-.6 1.6-1 2.1-1.2.5-.4.9-.8 1.4-1.3 0 0-.5.1-1.1.4-.4.1-.7.3-1.1.5-.5.1-.9.2-1.3.4-.9.3-1.7.6-2.4.8-.6.2-1.1.3-1.1.3l-.6.2c-.3.1-.4.1-.5.2h-.2c-.6.7-1 1.6-1.2 2.6-.2.8-.1 2-.4 3.4-.4 1.4-1.1 2.9-2.9 4.2-1.2.8-2.5 1-3.6.7-1.2-.3-2.1-1-2.5-2-.5-1.1-.4-2.2.5-3.4.3-.5.7-.9 1.1-1.3.9-.8 1.9-1.5 2.9-1.9 1-.3 1.8-.7 2.3-.9l.8-.4c.4-.3.6-.4.8-.6h-.3c-.2 0-.5.2-.8.2-.6.2-1.6.4-2.4.6-.9.2-1.8.2-2.5.4-.8.1-1.2.2-1.2.2l-1.3.1c-.7.6-1.3 1.5-1.6 2.5-.4.8-.5 2-1 3.3-.3.7-.7 1.4-1.2 2-.6.6-1.3 1.2-2.3 1.7-1.3.6-2.7.6-3.8.2-1-.4-1.9-1.3-2.2-2.4-.2-1.1.2-2.2 1.2-3.2.4-.4.8-.8 1.3-1.1 2.1-1.3 4.6-1.6 5.7-1.9.6 0 1.1-.4 1.7-.7 0 0-.4 0-1.1.1-.7 0-1.6 0-2.5.1H67l-1.3-.1c-.8.5-1.4 1.2-2 2.2-.5.7-.7 1.8-1.5 3-.4.6-.9 1.2-1.5 1.7-.4.3-.8.5-1.2.7-.5.2-.9.5-1.4.6-1.4.4-2.8.1-3.8-.5-.9-.6-1.6-1.7-1.7-2.7-.1-1.1.4-2.2 1.6-3 .5-.4 1-.6 1.5-.9 1.3-.5 2.5-.7 3.5-.8.5 0 1-.1 1.4-.1.5-.1.8-.1 1.1-.1.6 0 1.2-.2 1.8-.4 0 0-1.8-.2-3.7-.5l-3.6-.6s-.1.1-.2 0c-.1 0-.3 0-.4-.1-.4-.1-.7-.2-.7-.2-.8.4-1.6 1-2.3 1.8-.5.6-1.1 1.8-2 2.8-.9 1.1-2.3 2-4.5 2.3-.7.1-1.4 0-1.9-.2-.6-.2-1.2-.4-1.6-.8-.9-.8-1.5-1.8-1.3-3 0-.5.2-1 .6-1.5.3-.4.8-.8 1.4-1.2.6-.2 1.1-.5 1.6-.6.6-.2 1.2-.3 1.8-.3.6 0 1.2.1 1.7.1q1.7.2 2.5.3c.6 0 1.3 0 1.8-.1 0 0-.1 0-.2-.1-.2 0-.5-.1-.8-.2-.7-.1-1.6-.4-2.4-.7-.9-.2-1.7-.5-2.4-.8-.3 0-.5-.1-.7-.2-.7-.1-1.6-.2-2.4-.1-.9.2-2 .6-3.4.8-1.4 0-3-.2-4.9-1.4-.6-.4-1-.9-1.3-1.4-.3-.6-.5-1.1-.6-1.7-.1-1.1.3-2.2 1.1-2.9z" style="fill:url(#g1)"/></svg>