<svg width="57" height="57" fill="none" xmlns="http://www.w3.org/2000/svg"><path d="M34.82 56.098s-.257-13.804 6.131-16.212c6.389-2.44-5.49 12.616-6.131 16.212Zm5.137-1.958s4.88-17.464 13.836-18.106c8.925-.642-11.685 13.836-13.836 18.106ZM3.969 12.76c3.37 1.508 15.57.738 15.987-.225C20.373 11.572 12.7 2.07 9.33.56 5.96-.916 2.043.625.566 3.996-.91 7.366.598 11.283 3.97 12.76Zm30.529 6.773c-2.022 3.082-3.242 15.249-2.375 15.827.866.577 11.524-5.458 13.515-8.54 2.022-3.081 1.155-7.223-1.926-9.213a6.643 6.643 0 0 0-9.214 1.926ZM17.355 42.872c3.468 1.22 15.57-.45 15.923-1.445.353-.995-8.025-9.887-11.492-11.14-3.467-1.22-7.288.61-8.508 4.078a6.67 6.67 0 0 0 4.077 8.507Z" fill="#509B67"/><path d="M34.724 55.231c0-.289-.514-27.929-15.185-42.632l.321-.32C34.66 27.14 35.173 54.941 35.173 55.23h-.45Z" fill="#509B67"/></svg>