<svg width="44" height="78" fill="none" xmlns="http://www.w3.org/2000/svg"><path d="M41.353.367a4.187 4.187 0 0 0-1.8-.27c-.606.054-1.212.108-1.918.417-1.862 1.027-2.962 2.354-3.455 3.627-.493 1.273-.556 2.57-1.028 3.41-.296.765-.768 1.606-1.22 2.015-.176.077-.275.332-.627.486-.452.409-1.256.972-1.805 1.636-.55.664-1.354 1.227-1.728 1.814-.275.331-.451.409-.55.663-.176.078-.099.255-.099.255.198-.51.317-1.196.768-1.605.276-.332.826-.996 1.396-2.091.198-.51.649-.919.846-1.428.198-.51.571-1.096.69-1.782.12-.687.064-1.296.261-1.806.042-.864-.191-1.396-.424-1.928-.233-.533-.643-.988-.974-1.266-.918-.655-2.032-.801-3.09-.338-.53.231-1.058.463-1.51.872-.451.41-.825.996-1.12 1.76-.79 2.037-.52 3.61-.153 4.93.367 1.319 1.264 2.406 1.574 3.116.389.887.502 2.106.382 2.793 0 0-.274.332-.45.409-.177.077-.276.332-.276.332l-.176.077s-1.1 1.327-2.299 2.91l-2.044 3.009c.02-.432.218-.942.338-1.628.099-.255.197-.51.472-.841.275-.332.296-.764.67-1.35.394-1.02.789-2.038.852-3.334.02-.432.14-1.119-.093-1.65-.19-1.397-.833-2.385-1.85-2.786-1.015-.4-2.052-.37-3.287.17-.98.642-1.805 1.637-2.044 3.01-.197.51-.14 1.12-.162 1.551-.02.432-.042.864.191 1.397.135.787.446 1.496.756 2.206.72 1.165 1.54 2.075 2.026 2.708.565.81.855 1.951.99 2.738l-.748 1.173-.099.255-.296.764c-.373.586-.67 1.35-1.141 2.191-.473.841-.769 1.605-1.142 2.192-.374.586-.395 1.018-.395 1.018a4.222 4.222 0 0 1 .26-1.805c.219-.942 1.283-3.31.978-5.926-.057-.61-.036-1.042-.269-1.574-.445-1.496-1.362-2.152-2.378-2.553-.939-.223-2.074.062-3.055.703-.902.818-1.473 1.914-1.635 3.465a5.322 5.322 0 0 0 .383 2.792c.31.71.621 1.42 1.108 2.052.897 1.088 1.814 1.744 2.555 2.476.741.733 1.13 1.62 1.342 2.585l-.494 1.273-.394 1.018c-.12.687-.592 1.528-.888 2.292-.218.941-.514 1.705-.634 2.392l-.296.764-.098.255c-.156-.355-.057-.61-.213-.965.021-.432-.056-.61.043-.864.02-.432.239-1.373.203-2.415.14-1.119.027-2.338-.263-3.48-.056-.609-.29-1.141-.523-1.674-.621-1.419-1.715-1.997-2.83-2.144-1.114-.146-2.172.317-2.997 1.313-.649.918-1.142 2.191-.95 3.588.325 2.183 1.299 3.448 2.372 4.458 1.072 1.01 2.089 1.412 2.752 1.967.741.733 1.482 1.466 1.793 2.175l-.099.255c.078.177-.099.255-.02.432-.1.255-.12.687-.12.687s-.021.432-.141 1.118c-.12.687-.338 1.628-.38 2.493-.02.432-.218.941-.239 1.373-.021.432-.042.864-.14 1.119-.12.686-.141 1.118-.141 1.118-.233-.532-.29-1.141-.424-1.928-.057-.61-.015-1.474-.05-2.515-.037-1.042-.326-2.184-.87-3.426-.233-.532-.466-1.064-.876-1.52-.896-1.087-1.99-1.665-3.027-1.634-1.037.03-2.017.672-2.666 1.59-.648.918-.888 2.291-.52 3.61.678 2.03 1.829 3.218 3 3.973 1.171.756 2.364 1.08 3.027 1.635.84.478 1.58 1.211 2.146 2.021 0 0-.021.432-.12.687-.02.432-.12.686-.12.686s-.02.432-.14 1.12c-.021.431-.12.686-.14 1.118l-.064 1.296c-.042.864-.006 1.906.051 2.515.057.61.036 1.042.036 1.042-.233-.532-.466-1.065-.6-1.852-.213-.964-.263-3.48-1.626-5.631-.233-.533-.642-.988-.974-1.266-1.073-1.01-2.089-1.41-3.225-1.125-.959.209-1.861 1.026-2.432 2.122a4.688 4.688 0 0 0 .086 3.557c.854 1.952 2.181 3.062 3.451 3.564 1.27.5 2.463.825 3.225 1.125 1.016.401 1.757 1.134 2.42 1.69l.015 1.473.34 3.657c.17 1.828.517 3.58.517 3.58-.41-.456-.642-.988-.953-1.698-.212-.964-.87-3.425-2.408-5.5-.41-.455-.741-.733-1.15-1.188-1.25-.933-2.365-1.08-3.246-.693-.882.386-1.784 1.204-2.101 2.4-.395 1.018-.204 2.415.516 3.58.643.987 1.306 1.542 1.97 2.098.487.632 1.072 1.01 1.757 1.133 1.27.501 2.483.393 3.421.617.939.223 1.856.879 2.52 1.434 0 0 .155.355.056.61.156.354.135.786.135.786l1.135-.286s-.077-.177-.056-.609c-.156-.355-.213-.964-.27-1.574-.211-.964-.325-2.183-.325-2.183.296-.764 1.022-1.505 2.08-1.968 1.51-.872 4.642-1.398 6.178-4.608l.099-.254c.275-.332.296-.764.317-1.196.02-.432-.057-.61-.036-1.042-.31-.71-.72-1.165-1.13-1.62-1.171-.756-2.97-1.025-4.5.28-.804.563-1.178 1.149-1.65 1.99-.296.764-.592 1.528-.712 2.215-.218.94-.26 1.805-.203 2.415.057.609-.317 1.196-.437 1.882 0 0-.077-.177-.056-.61.02-.431-.135-.786-.191-1.396-.057-.61-.036-1.041-.191-1.396.02-.432-.057-.61-.057-.61s-.078-.177-.057-.61c.021-.431-.036-1.04-.015-1.473l-.071-2.083c.55-.664 1.276-1.404 2.235-1.613.706-.309 2.095-.494 3.33-1.035.705-.309 1.234-.54 1.862-1.026.627-.487 1.255-.973 1.727-1.814l.176-.077c.846-1.428.577-3.002-.495-4.012-1.073-1.01-2.773-1.535-4.558-.33-1.509.872-2.454 2.554-2.947 3.827-.218.941-.436 1.883-.634 2.392a4.512 4.512 0 0 1-.69 1.782l-.072-2.083c-.035-1.041.105-2.16.105-2.16s.099-.255.12-.687c.02-.432.042-.864.161-1.55.021-.433.14-1.12.162-1.551.02-.432.12-.687.12-.687.55-.664 1.431-1.05 2.39-1.258.783-.132 1.997-.24 3.309-.603s2.722-.98 3.9-2.13l.176-.078c.275-.331.55-.663.649-.918.098-.255.12-.687.218-.941-.057-.61-.367-1.32-.855-1.952-.896-1.088-2.498-1.866-4.437-1.017-.882.386-1.51.872-2.06 1.536l-.824.995c-.275.332-.374.587-.649.918-.472.842-.69 1.783-.888 2.292-.197.51-.57 1.096-.944 1.682 0 0 .218-.941.358-2.06.219-.941.36-2.06.36-2.06s.14-1.119.534-2.137c.198-.51.219-.941.416-1.45.099-.255.021-.433.197-.51l.099-.255c.628-.486 1.686-.95 2.723-.98.783-.132 2.151.115 3.365.007 1.39-.186 2.779-.371 4.21-1.421l.177-.077c1.431-1.05 1.417-2.524.619-3.866-.72-1.165-2.223-2.198-4.142-1.781-.353.154-.96.209-1.312.363-.353.154-.705.309-.98.64-.628.487-1.178 1.15-1.63 1.56-.471.84-.944 1.682-1.219 2.014-.098.254-.373.586-.55.663-.098.255-.45.41-.55.664 0 0 .1-.255.12-.687.021-.432.296-.764.493-1.273.395-1.019.613-1.96.613-1.96l.79-2.037.788-2.037c.706-.309 1.841-.594 2.702-.548 1.721.092 4.77 1.295 7.69-.195l.176-.078c1.51-.872 1.748-2.245 1.38-3.564-.543-1.242-1.771-2.608-3.845-2.545-.43-.023-.783.131-1.39.185l-1.058.463c-.705.31-1.333.795-1.883 1.459a27.141 27.141 0 0 0-1.55 1.736c-.374.587-.903.818-1.355 1.227 0 0 .099-.254.374-.586.275-.332.472-.841.747-1.173.197-.51.472-.841.747-1.173.099-.255.099-.255.275-.332l.099-.254s.649-.919 1.12-1.76c.198-.509.65-.918.748-1.173.275-.332.374-.586.374-.586.783-.132 1.742-.34 2.68-.117.939.224 1.955.625 3.225 1.126 1.192.324 2.737.493 4.402-.024l.176-.077c.706-.31 1.333-.796 1.707-1.382.373-.586.239-1.373.182-1.983-.19-1.396-1.243-2.839-3.472-3.131-1.799-.27-3.386.425-4.465 1.32-.804.564-1.354 1.227-1.805 1.636-.762-.3-1.291-.069-1.82.163l.176-.077s.099-.255.275-.332l.825-.996 1.297-1.836s.099-.255.452-.41c.274-.331.726-.74 1-1.072.452-.41.727-.74 1.002-1.073.176-.077.275-.332.275-.332l.176-.077c.783-.131 1.898.015 2.738.493.762.301 1.757 1.134 3.027 1.635 1.27.501 2.716.925 4.536.763l.177-.077c1.566-.263 2.412-1.69 2.397-3.164-.015-1.474-.89-2.994-2.845-3.618-1.016-.401-1.877-.447-2.66-.316-.176.078-.43-.023-.606.055l-.53.231-1.057.463c-.882.386-1.686.95-2.038 1.104-.452.41-1.058.463-1.587.695 0 0 .176-.077.45-.41.276-.331.55-.663 1.08-.894.275-.332.627-.487.726-.741.451-.41 2.588-1.768 3.117-2 .607-.054 1.39-.185 2.448-.648.529-.232 1.136-.286 1.665-.517.528-.232 1.057-.464 1.509-.873.451-.409.98-.64 1.177-1.15.55-.663.825-.995.945-1.682.197-.509.14-1.119.084-1.728-.233-.532-1.052-1.442-2.068-1.843Z" fill="url(#a)"/><defs><linearGradient id="a" x1="21.546" y1="-.427" x2="21.852" y2="56.839" gradientUnits="userSpaceOnUse"><stop stop-color="#FAD12F"/><stop offset="1" stop-color="#FA7E2F"/></linearGradient></defs></svg>