<svg width="28" height="79" fill="none" xmlns="http://www.w3.org/2000/svg"><path d="M23.448.72a3.949 3.949 0 0 0-1.691.288c-.528.227-1.055.454-1.596.939-1.366 1.468-1.96 2.98-2.027 4.266-.067 1.286.258 2.465.083 3.358-.04.771-.216 1.664-.5 2.163-.135.121-.148.378-.418.62-.284.5-.839 1.241-1.136 1.998-.297.756-.851 1.497-1.013 2.133-.149.378-.284.5-.297.756-.136.121-.014.257-.014.257.027-.514-.068-1.164.216-1.664.148-.378.446-1.134.634-2.284.027-.514.31-1.013.338-1.528.026-.514.188-1.15.093-1.8-.095-.65-.325-1.18-.298-1.693-.217-.787-.583-1.195-.948-1.603-.366-.408-.866-.696-1.245-.847-1.015-.317-2.057-.12-2.868.607-.405.363-.811.726-1.095 1.226-.284.499-.446 1.134-.486 1.906-.107 2.057.597 3.387 1.315 4.46.717 1.074 1.84 1.785 2.328 2.329.61.68 1.07 1.739 1.165 2.39 0 0-.149.377-.284.498-.135.122-.149.379-.149.379l-.135.12s-.594 1.514-1.202 3.284l-.945 3.297c-.109-.393-.082-.907-.177-1.557.013-.258.027-.515.175-.893.149-.378.04-.771.202-1.407.054-1.028.108-2.057-.218-3.236-.108-.394-.203-1.044-.569-1.452-.582-1.195-1.448-1.89-2.477-1.95-1.028-.06-1.947.273-2.894 1.12-.69.863-1.135 1.998-.945 3.299-.027.514.203 1.043.312 1.436.108.394.217.787.582 1.195.352.665.84 1.21 1.327 1.754.988.831 1.99 1.405 2.612 1.829.744.559 1.34 1.496 1.692 2.162l-.324 1.27-.013.258-.04.77c-.162.636-.203 1.408-.378 2.3-.175.893-.215 1.664-.377 2.3-.162.635-.054 1.028-.054 1.028a3.98 3.98 0 0 1-.298-1.694c-.082-.907.174-3.343-.87-5.596-.23-.53-.338-.922-.704-1.33-.84-1.21-1.854-1.527-2.882-1.587-.906.076-1.84.666-2.53 1.529-.567.998-.755 2.148-.443 3.585a5.018 5.018 0 0 0 1.164 2.389c.488.544.975 1.088 1.597 1.512 1.124.71 2.139 1.027 3.018 1.465.88.438 1.489 1.119 1.963 1.92l-.067 1.286-.054 1.028c.095.65-.08 1.543-.12 2.315.082.907.041 1.678.136 2.329l-.04.771-.013.257c-.244-.272-.23-.529-.474-.801-.108-.393-.23-.53-.217-.787-.108-.393-.19-1.3-.529-2.223-.203-1.043-.664-2.102-1.26-3.04-.23-.528-.595-.937-.96-1.345C5.15 37.696 4 37.5 2.958 37.697c-1.042.197-1.853.923-2.299 2.058-.31 1.014-.377 2.3.205 3.494.935 1.86 2.18 2.706 3.438 3.295 1.259.59 2.287.65 3.045.952.88.438 1.759.876 2.246 1.42l-.013.258c.121.136-.014.257.108.393-.013.257.095.65.095.65s.109.393.204 1.044c.095.65.176 1.557.393 2.344.109.393.082.907.19 1.3.109.394.217.787.204 1.044.095.65.203 1.044.203 1.044-.365-.409-.595-.938-.947-1.603-.23-.53-.448-1.316-.786-2.238-.34-.923-.935-1.86-1.788-2.813-.365-.408-.73-.816-1.231-1.103-1.124-.71-2.274-.907-3.193-.573-.92.333-1.61 1.195-1.92 2.209-.31 1.014-.12 2.314.597 3.388 1.205 1.617 2.585 2.343 3.857 2.675 1.272.332 2.435.27 3.193.573.893.181 1.773.62 2.517 1.178 0 0 .108.394.095.65.108.394.095.651.095.651s.108.393.204 1.044c.108.393.095.65.203 1.043l.325 1.18c.217.786.556 1.709.786 2.238.23.53.339.922.339.922-.365-.408-.73-.816-1.083-1.481-.474-.802-1.26-3.04-3.114-4.567-.366-.408-.866-.695-1.245-.846-1.259-.59-2.287-.65-3.22-.059-.798.47-1.366 1.468-1.554 2.618a4.42 4.42 0 0 0 1.124 3.16c1.34 1.497 2.856 2.101 4.141 2.176 1.285.075 2.449.014 3.22.06 1.028.059 1.908.497 2.665.8l.448 1.315 1.381 3.175a37.943 37.943 0 0 0 1.517 3.055c-.5-.287-.866-.695-1.353-1.24-.474-.8-1.788-2.812-3.777-4.218-.5-.287-.88-.438-1.38-.725-1.394-.468-2.436-.27-3.112.335-.676.605-1.243 1.604-1.175 2.768-.054 1.029.529 2.223 1.517 3.055.866.695 1.624.997 2.381 1.3.623.422 1.259.588 1.908.497 1.286.075 2.34-.379 3.247-.455.906-.076 1.921.24 2.679.543 0 0 .243.272.23.53.244.271.352.665.352.665l.933-.59s-.122-.137-.23-.53c-.244-.272-.474-.801-.704-1.33-.474-.802-.935-1.86-.935-1.86.04-.772.473-1.65 1.284-2.376 1.095-1.226 3.746-2.619 4.177-5.946l.014-.258c.148-.378.04-.771-.069-1.164-.108-.393-.23-.53-.338-.923-.488-.544-.988-.831-1.49-1.118-1.271-.332-2.962-.044-3.949 1.575-.554.741-.716 1.377-.891 2.27-.04.77-.08 1.542.015 2.192.081.908.298 1.694.528 2.224.23.529.069 1.164.164 1.815 0 0-.122-.137-.23-.53-.11-.393-.353-.665-.583-1.194-.23-.53-.339-.923-.582-1.195-.109-.393-.23-.53-.23-.53s-.122-.135-.23-.528c-.11-.394-.34-.923-.448-1.316l-.678-1.845c.298-.757.73-1.634 1.528-2.103.54-.485 1.731-1.06 2.678-1.907.54-.485.946-.848 1.365-1.468.42-.62.838-1.241 1.014-2.134l.135-.12c.337-1.528-.367-2.86-1.625-3.448-1.259-.59-2.936-.558-4.18 1.046-1.095 1.225-1.446 3.01-1.513 4.296.082.907.163 1.815.136 2.33.096.65.069 1.164-.093 1.799l-.678-1.845c-.338-.922-.542-1.966-.542-1.966s.013-.257-.095-.65-.217-.787-.312-1.437c-.108-.393-.203-1.043-.312-1.437-.108-.393-.095-.65-.095-.65.297-.757.973-1.362 1.771-1.831.663-.348 1.718-.803 2.786-1.514 1.069-.712 2.15-1.68 2.867-3.057l.135-.121c.148-.378.297-.756.31-1.014.014-.257-.095-.65-.081-.907-.23-.53-.718-1.074-1.34-1.497-1.124-.71-2.788-.936-4.275.396-.676.605-1.095 1.226-1.392 1.982l-.446 1.135c-.149.378-.162.635-.31 1.013-.176.893-.095 1.8-.121 2.314-.027.515-.189 1.15-.351 1.785 0 0-.082-.907-.285-1.95-.082-.908-.285-1.952-.285-1.952s-.204-1.043-.15-2.072c.026-.514-.082-.907-.055-1.422.013-.257-.109-.393.027-.514l.013-.257c.419-.62 1.23-1.347 2.15-1.68.663-.348 1.961-.53 3.016-.985 1.19-.575 2.38-1.15 3.354-2.512l.135-.121c.973-1.362.526-2.678-.584-3.645-.988-.832-2.638-1.315-4.234-.376-.27.242-.798.47-1.069.711-.27.242-.54.485-.689.863-.419.62-.716 1.377-1 1.876-.175.892-.35 1.785-.5 2.163-.013.257-.161.635-.297.756-.013.258-.284.5-.297.757 0 0 .014-.257-.095-.65-.108-.394.04-.772.067-1.286.054-1.029-.028-1.936-.028-1.936l.107-2.057.107-2.057c.54-.485 1.474-1.075 2.259-1.287 1.569-.425 4.653-.245 6.83-2.439l.135-.121c1.095-1.226.905-2.527.188-3.6-.853-.952-2.355-1.814-4.195-1.147-.392.106-.662.348-1.19.575l-.811.727c-.541.484-.96 1.104-1.257 1.86-.433.878-.73 1.635-.879 2.013-.162.635-.567.998-.851 1.498 0 0 .013-.258.162-.636s.175-.892.324-1.27c.027-.515.175-.893.324-1.271.013-.257.013-.257.149-.378l.013-.258s.31-1.013.486-1.906c.027-.514.31-1.013.324-1.27.149-.379.162-.636.162-.636.663-.348 1.46-.817 2.367-.893.906-.076 1.934-.016 3.22.059 1.163-.061 2.597-.365 3.936-1.318l.135-.122c.54-.484.96-1.104 1.122-1.74.162-.635-.19-1.3-.42-1.83-.583-1.194-1.95-2.176-4.033-1.782-1.69.288-2.908 1.378-3.61 2.497-.555.742-.852 1.498-1.136 1.998-.771-.045-1.177.318-1.582.681l.135-.121s.013-.257.148-.378l.446-1.135.621-2.027s.014-.257.284-.5c.149-.377.433-.877.581-1.255.284-.5.433-.877.581-1.256.135-.12.149-.378.149-.378l.135-.12c.663-.35 1.704-.546 2.597-.365.771.045 1.908.498 3.193.573 1.286.075 2.706.029 4.289-.653l.135-.12c1.325-.697 1.662-2.225 1.215-3.54-.447-1.316-1.679-2.42-3.613-2.404-1.028-.06-1.813.152-2.476.5-.135.122-.392.107-.527.228l-.406.363-.811.726c-.676.606-1.23 1.347-1.5 1.59-.285.499-.812.726-1.218 1.089 0 0 .136-.121.284-.5.149-.377.297-.756.703-1.119.148-.378.419-.62.432-.877.284-.5 1.798-2.346 2.204-2.709.527-.227 1.19-.575 2.002-1.302.405-.363.933-.59 1.338-.953.406-.364.812-.727 1.095-1.226.284-.5.69-.863.717-1.377.297-.756.445-1.135.35-1.785.027-.514-.203-1.043-.433-1.573-.366-.408-1.367-.982-2.395-1.042Z" fill="url(#a)"/><defs><linearGradient id="a" x1="5.471" y1="5.841" x2="22.608" y2="57.048" gradientUnits="userSpaceOnUse"><stop stop-color="#FAD12F"/><stop offset="1" stop-color="#FA7E2F"/></linearGradient></defs></svg>