<svg xmlns="http://www.w3.org/2000/svg" width="40" height="36" fill="none"><g fill="#484848" stroke="#484848" stroke-width=".5" clip-path="url(#a)"><path d="M0 27.106c.088.256.193.506.313.749.496.876 1.272 1.27 2.263 1.27h11.865c-.186 1.086-.359 2.125-.553 3.16-.013.078-.175.17-.275.178-.337.03-.679 0-1.014.037a1.744 1.744 0 0 0-1.121.576 1.756 1.756 0 0 0 .024 2.359c.295.32.7.517 1.132.554.104.009.209.011.313.011h14.1c1.035 0 1.733-.561 1.89-1.501a1.745 1.745 0 0 0-.814-1.755 1.728 1.728 0 0 0-.637-.232c-.359-.046-.729-.013-1.09-.05-.104-.01-.273-.12-.29-.209-.193-1.023-.362-2.052-.547-3.13h3.459c.52 0 .807-.21.812-.585.005-.375-.279-.59-.799-.59H2.862c-1.346 0-1.812-.533-1.658-1.932h37.693c-.084.453-.095.906-.263 1.29-.208.484-.68.645-1.202.644h-5.155c-.143-.005-.287 0-.43.018a.52.52 0 0 0-.464.503c-.028.294.097.515.384.604.15.04.306.056.461.049h5.039c1.458 0 2.243-.576 2.685-1.96.007-.022.031-.04.048-.059V2.015c-.047-.12-.095-.238-.14-.357-.376-.965-1.068-1.517-2.1-1.623a4.353 4.353 0 0 0-.468-.015H13.036c-.116 0-.234 0-.35.007-.337.026-.521.226-.558.55-.033.3.208.56.543.602.168.017.337.022.506.016H37.24c1.166 0 1.591.432 1.591 1.613v21.976H1.175V2.714c0-1.058.464-1.519 1.53-1.519h6.95c.636 0 .908-.187.897-.608-.01-.422-.26-.568-.892-.568-2.2 0-4.4.046-6.6-.016C1.527-.04.468.495 0 2.013v25.093Zm15.631 2.044h8.744c.19 1.107.375 2.196.569 3.322H19.69a1.813 1.813 0 0 0-.465.04c-.29.078-.424.29-.408.587a.524.524 0 0 0 .442.523c.155.023.311.031.467.025h7.106a3.24 3.24 0 0 1 .429.017c.334.044.52.256.52.58 0 .326-.195.533-.532.57-.104.008-.208.01-.313.008H13.07c-.13.005-.26-.003-.389-.022a.57.57 0 0 1-.46-.55.574.574 0 0 1 .436-.568c.153-.028.31-.04.465-.034h3.437c.409 0 .659-.222.674-.556.016-.335-.241-.591-.661-.614-.169-.01-.339 0-.507 0h-1.008l.574-3.328Z"/><path d="m8.309 16.795 2.59 5.106c.041.081.062.187.127.24.179.149.377.383.566.382.19-.001.458-.203.557-.388.706-1.336 1.379-2.691 2.062-4.039.065-.127.132-.253.238-.454.264.523.528.98.734 1.464.206.485.505.674 1.026.643.625-.039 1.25-.007 1.875-.01.492 0 .754-.21.748-.595-.006-.386-.27-.578-.767-.58-.497-.003-.99-.015-1.483.006-.255.01-.395-.065-.508-.306-.313-.66-.659-1.303-.984-1.957-.137-.277-.28-.55-.636-.553-.357-.003-.504.262-.645.54a727.725 727.725 0 0 1-1.998 3.941c-.062.125-.128.247-.218.419-.086-.164-.149-.276-.208-.39-.82-1.614-1.64-3.229-2.458-4.845-.136-.27-.288-.514-.625-.516-.338-.002-.492.24-.625.51-.478.955-.969 1.904-1.44 2.864-.104.215-.23.303-.475.294a27.217 27.217 0 0 0-1.6 0c-.424 0-.678.235-.675.592.003.356.253.577.683.58.716.005 1.432-.006 2.147.005a.712.712 0 0 0 .71-.442c.354-.712.717-1.419 1.079-2.128.06-.12.123-.23.203-.383ZM3.48 8.72v3.602c0 .658.175.828.834.828h2.653c.508 0 .715-.2.716-.708.006-2.505.006-5.01 0-7.516 0-.487-.208-.69-.694-.695a182.69 182.69 0 0 0-2.77 0c-.533 0-.736.2-.738.732-.006 1.251 0 2.505 0 3.757Zm1.197-3.289h1.814v6.522H4.677V5.431Zm14.158 4.045V6.501c0-.506-.209-.714-.709-.716a263.58 263.58 0 0 0-2.812 0c-.47 0-.693.222-.694.701a1072.74 1072.74 0 0 0 0 5.95c0 .502.217.71.717.713.937.006 1.874.006 2.812 0 .477 0 .683-.21.685-.698.004-.992 0-1.984 0-2.975Zm-1.2-2.503v4.979h-1.813V6.973h1.813Zm-8.598 3.366c0 .705-.005 1.412 0 2.117.006.487.209.69.693.693.937.006 1.875.006 2.812 0 .482 0 .695-.21.698-.691.008-1.437.008-2.875 0-4.313 0-.467-.208-.668-.676-.673-.95-.01-1.901-.01-2.852 0-.486.006-.67.21-.674.711-.006.718 0 1.438 0 2.156Zm1.193-1.673h1.817v3.28H10.23v-3.28Zm19.065 3.39h6.362c.118.006.235.004.352-.007a.54.54 0 0 0 .51-.547.536.536 0 0 0-.416-.584 1.79 1.79 0 0 0-.463-.037H22.993c-.625 0-.907.188-.901.604.006.415.267.572.882.572h6.32Zm.025 6.209h6.322c.13.004.26 0 .39-.013a.57.57 0 0 0 .49-.523.575.575 0 0 0-.404-.593 1.747 1.747 0 0 0-.46-.046H22.972a1.843 1.843 0 0 0-.463.042c-.307.085-.445.314-.41.627a.523.523 0 0 0 .507.502c.13.01.26.014.39.01l6.323-.006Zm-.004-12.861H35.6c.143.005.286 0 .428-.013a.571.571 0 0 0 .494-.523.576.576 0 0 0-.403-.595 1.34 1.34 0 0 0-.383-.043H22.895a1.35 1.35 0 0 0-.422.05c-.285.094-.406.314-.376.609a.524.524 0 0 0 .468.498c.142.018.285.023.428.017h6.323Zm2.539 3.124h3.94c.464 0 .728-.21.728-.57 0-.363-.271-.604-.75-.604h-7.916c-.453 0-.73.226-.737.581-.007.356.27.592.755.593h3.98Zm-5.083 6.66h3.94c.482 0 .762-.226.757-.596-.006-.37-.277-.579-.73-.579h-7.916c-.482 0-.743.226-.73.614.015.356.261.56.704.56h3.975Zm6.041 6.193h2.965c.483 0 .758-.225.753-.598-.005-.373-.28-.577-.772-.577h-5.89c-.49 0-.751.209-.747.594.004.384.267.58.763.581.976.002 1.951 0 2.928 0Zm1.99-6.193c.351 0 .701.005 1.052 0 .417-.009.678-.246.672-.597-.005-.351-.267-.574-.69-.577a152.94 152.94 0 0 0-2.142 0c-.445 0-.72.237-.714.596.008.358.28.574.73.578h1.092ZM23.854 8.527c.377 0 .753.007 1.13 0 .377-.007.613-.24.625-.562a.587.587 0 0 0-.36-.559.58.58 0 0 0-.229-.044 54.49 54.49 0 0 0-2.375 0 .554.554 0 0 0-.554.628c.02.32.241.529.597.538.39.006.78-.001 1.166-.001Z"/></g><defs><clipPath id="a"><path fill="#fff" d="M40 0H0v36h40z"/></clipPath></defs></svg>