<svg xmlns="http://www.w3.org/2000/svg" width="64" height="64" fill="none"><path fill="#4FC2DF" d="M10.937 25.806c-1.343-1.341-2.607-2.656-3.929-3.914-1.703-1.62-3.024-3.465-3.56-5.785a14.453 14.453 0 0 1-.327-2.356c-.062-1 .325-1.362 1.328-1.364 5.117-.002 10.235 0 15.35 0h.852V1.41C20.651.319 20.973 0 22.08 0h40.507C63.68 0 64 .323 64 1.426v61.156c0 1.095-.324 1.418-1.423 1.418-16.62 0-33.24.003-49.86-.002-3.365-.001-6.076-1.347-8.09-4.048-6.895-9.242-6.002-21.744 2.14-29.972 1.359-1.374 2.735-2.735 4.171-4.172Zm13.211-.018c1.435 1.43 2.79 2.778 4.141 4.13 3.475 3.48 5.665 7.632 6.466 12.494.164.986.243 1.985.365 3.01.963 0 1.887-.004 2.809 0 .932.006 1.299.36 1.299 1.28.003 3.958.003 7.915 0 11.872 0 .93-.361 1.297-1.28 1.299-1.85.005-3.699.029-5.548-.017-.48-.013-.953-.257-1.477-.408l-2.157 2.456h33.13V2.114H22.75V12.39h.726c2.408 0 4.816-.004 7.225.002.956.001 1.331.375 1.297 1.338-.098 2.85-1.125 5.32-3.116 7.36-1.53 1.567-3.11 3.088-4.734 4.699Zm-6.617 36.146c1.72 0 3.44.029 5.159-.007 2.392-.052 4.378-1.008 5.88-2.875 5.874-7.305 6.005-18.13.149-25.462-1.882-2.357-4.16-4.4-6.274-6.569-.134-.138-.424-.174-.643-.174-2.838-.01-5.675-.015-8.513.007a1.224 1.224 0 0 0-.776.319 237.58 237.58 0 0 0-4.562 4.559C.757 39.17.085 50.569 6.351 58.812c1.557 2.048 3.642 3.09 6.214 3.12 1.656.019 3.311.003 4.966.002Zm12.32-47.455H5.266c.027.258.033.49.08.714.355 1.653 1.074 3.126 2.261 4.339 1.564 1.597 3.17 3.152 4.72 4.76.444.461.886.58 1.502.41-.917-2.293-1.428-4.638-1.424-7.118h2.045c.043 2.09.413 4.081 1.17 5.996.47 1.189.464 1.193 1.708 1.193.387 0 .776-.023 1.16.006.349.026.564-.07.677-.423.36-1.122.815-2.218 1.084-3.36.261-1.115.34-2.274.497-3.398h1.97c-.013 2.5-.53 4.849-1.5 7.293.536-.14 1.023-.117 1.264-.35 1.79-1.733 3.574-3.478 5.276-5.298 1.224-1.31 1.906-2.921 2.095-4.764Zm5.22 33.036c-.03.215-.065.382-.078.55a21.436 21.436 0 0 1-1.705 6.96c-.4.92-.188 1.832-.236 2.75h4.084v-10.26h-2.064Z"/><path fill="#4FC2DF" d="M46.371 21.178c1.607-1.607 3.152-3.15 4.765-4.765-.364-.35-.765-.731-1.164-1.115-.351-.337-.54-.728-.342-1.216.206-.508.614-.67 1.137-.668 2.621.007 5.244 0 7.866.005.85.002 1.233.375 1.235 1.211.007 2.645 0 5.289.005 7.933 0 .498-.17.883-.645 1.088-.483.21-.884.04-1.22-.315-.381-.404-.748-.823-1.152-1.27-.263.246-.437.398-.599.56-2.585 2.583-5.167 5.167-7.752 7.752-.807.805-1.236.8-2.054-.018-1.015-1.015-2.028-2.032-3.073-3.08-.21.199-.383.352-.547.513l-5.7 5.7c-.78.778-1.222.773-2.008-.012-1.218-1.214-2.434-2.43-3.647-3.649-.691-.695-.69-1.172.006-1.868 3.295-3.302 6.595-6.6 9.894-9.896.717-.716 1.185-.712 1.915.015 1.035 1.034 2.062 2.073 3.08 3.095Zm1.117 7.305c2.76-2.763 5.443-5.46 8.143-8.14.294-.291.663-.613 1.04-.682.333-.062.729.208 1.087.329v-4.463h-4.544c.66.967.628 1.256-.192 2.076a8069.18 8069.18 0 0 1-5.474 5.473c-.903.903-1.288.903-2.191-.002l-2.925-2.933c-2.977 2.983-5.902 5.911-8.757 8.77l2.608 2.614c.105-.13.233-.332.397-.497a2553.55 2553.55 0 0 1 5.699-5.703c.752-.75 1.206-.75 1.961.003 1.034 1.029 2.06 2.065 3.148 3.155ZM51.614 46.445v-12c0-1.094.321-1.413 1.424-1.413 1.85-.001 3.699-.003 5.548.002.922.004 1.283.365 1.283 1.294.002 8.086.003 16.17 0 24.256 0 .922-.367 1.282-1.295 1.285-1.893.006-3.785.006-5.677 0-.922-.003-1.282-.364-1.282-1.295-.003-4.043-.001-8.086-.001-12.129Zm6.148 11.332V35.15h-4.05v22.627h4.05ZM41.294 50.58c0-2.644-.002-5.29.002-7.934.001-1.013.34-1.352 1.353-1.354 1.87-.003 3.742-.003 5.611 0 .926.002 1.289.363 1.289 1.289.003 5.333.003 10.666 0 15.998 0 .926-.365 1.287-1.29 1.29-1.892.005-3.785.005-5.677 0-.925-.001-1.287-.363-1.288-1.29-.002-2.667 0-5.333 0-7.998Zm2.097-7.196v14.383h4.05V43.384h-4.05ZM24.809 6.147V4.164h12.326v1.983H24.81ZM24.826 8.287h12.306v1.987H24.827V8.287ZM41.24 6.18h-1.96V4.172h1.96V6.18ZM41.254 10.31h-1.973V8.303h1.973v2.007ZM17.604 34.068c6.758-.017 12.303 5.543 12.335 12.368.033 6.77-5.535 12.382-12.304 12.403-6.848.02-12.461-5.523-12.463-12.307-.002-6.931 5.5-12.447 12.432-12.464Zm10.271 12.41c-.005-5.697-4.617-10.347-10.26-10.347A10.327 10.327 0 0 0 7.235 46.489c-.002 5.68 4.665 10.3 10.388 10.285 5.62-.015 10.255-4.67 10.251-10.297Z"/><path fill="#4FC2DF" d="M16.537 40.215v-1.989h2.024v1.998c1.06.094 1.913.481 2.526 1.307.62.836.65 1.79.57 2.811h-2.015c-.095-.764.232-1.76-1.005-2.021v3.07c1 .081 1.86.493 2.48 1.34.665.904.6 1.948.556 2.977-.067 1.593-1.188 2.675-3.084 2.975v1.992h-2.038v-1.999c-1.06-.093-1.911-.483-2.526-1.308-.622-.834-.653-1.787-.567-2.809h2.012c.095.766-.23 1.76 1.007 2.022v-3.07c-1-.084-1.86-.495-2.48-1.342-.667-.905-.598-1.949-.556-2.978.06-1.59 1.19-2.68 3.096-2.976Zm-.041 5.187v-3.037c-.723.12-.976.403-1.005 1.096-.057 1.416.08 1.698 1.005 1.941Zm2.109 5.153c.94-.219 1.133-.632 1.013-2.042-.055-.63-.372-.931-1.013-.947v2.989Z"/></svg>