<svg xmlns="http://www.w3.org/2000/svg" width="70" height="64" fill="none"><path fill="#4453A4" d="m41.404 46.32.581 15.33h4.742c.253 0 .51-.018.76.007.644.065 1.144.597 1.135 1.18-.01.558-.49 1.068-1.097 1.148-.205.026-.416.01-.623.01h-24.52c-1.09 0-1.715-.424-1.72-1.168-.006-.743.623-1.175 1.708-1.177 1.57-.002 3.14-.005 4.71-.011.042 0 .085-.024.205-.063l.58-15.257h-.935c-6.995 0-13.992-.013-20.986.01-1.816.005-3.404-.438-4.633-1.857-.83-.96-1.296-2.08-1.298-3.332C-.002 29.157-.006 17.175.01 5.193.015 2.352 2.47.012 5.39.006 11.808-.005 18.227.002 24.645.002h38.927c3.419 0 5.693 2.282 5.693 5.715.002 11.705.002 23.412 0 35.117 0 2.663-1.605 4.74-4.19 5.35-.596.14-1.235.128-1.856.128-6.972.007-13.945.006-20.918.006l-.897.001Zm-6.75-43.98v-.003h-2.7c-8.796-.002-17.593.004-26.389-.015-.898-.002-1.683.2-2.34.817-.789.739-.933 1.688-.931 2.715.01 11.544.005 23.086.005 34.63 0 .161.008.324.006.484-.026 2.049 1.755 3.1 3.238 3.098 19.37-.026 38.74-.026 58.11-.002 1.604.002 3.312-1.11 3.303-3.245-.044-11.751-.046-23.502.004-35.255.007-1.884-1.515-3.266-3.286-3.255-9.672.065-19.346.032-29.02.032Zm-5.118 59.33h10.181c-.127-3.112-.26-6.126-.37-9.14a231.17 231.17 0 0 1-.132-5.668c-.006-.51-.226-.605-.678-.604-2.676.017-5.355.008-8.031.01-.131 0-.262.022-.404.035l-.566 15.367Z"/><path fill="#4453A4" d="M52.02 21.14c2.37-1.592 4.648-3.122 7.1-4.767-.978 0-1.765.009-2.551-.004-.798-.013-1.233-.46-1.184-1.188.038-.589.441-1.02 1.084-1.04 2.144-.066 4.29-.12 6.435-.142.872-.009 1.357.695 1.13 1.544-.561 2.097-1.13 4.19-1.686 6.286-.15.565-.515.859-1.079.881-.557.022-.912-.303-1.075-.803-.064-.202-.04-.455.011-.667.276-1.105.575-2.204.91-3.476-.845.55-1.576 1.015-2.295 1.5-2.095 1.41-4.19 2.82-6.265 4.257-.222.153-.432.484-.449.746-.238 3.585-1.448 6.803-3.655 9.623-2.741 3.5-6.312 5.728-10.688 6.51-5.1.91-9.746-.278-13.856-3.43-.909-.699-1.742-1.519-2.505-2.376-.74-.833-1.346-1.788-2.069-2.765-.825.698-1.682 1.417-2.534 2.142-1.015.867-2.02 1.75-3.045 2.605-.675.563-1.255.5-1.862-.151-.566-.606-1.13-1.214-1.75-1.877-.871.772-1.714 1.514-2.552 2.26-.499.446-.985.907-1.49 1.343-.522.45-1.164.414-1.6-.06-.427-.464-.453-1.083.046-1.54a249.237 249.237 0 0 1 4.956-4.42c.56-.485 1.12-.374 1.69.23.583.62 1.16 1.25 1.777 1.917l3.127-2.645c.598-.506 1.185-1.023 1.795-1.514.373-.3.432-.588.273-1.064-2.02-6.09-1.13-11.738 2.813-16.797 2.814-3.612 6.598-5.774 11.125-6.399 5.832-.805 10.91.939 15.063 5.12 2.743 2.758 4.331 6.144 4.854 10.161ZM34.621 38.399c8.319.118 15.21-6.821 15.262-15.081.053-8.432-6.636-15.324-15.098-15.407-8.698-.085-15.37 6.96-15.416 15.207-.046 8.358 6.927 15.416 15.252 15.281ZM54.231 7.893c-.9 0-1.799.006-2.698-.002-.741-.005-1.238-.456-1.236-1.102.002-.638.512-1.107 1.24-1.109 1.774-.007 3.551-.007 5.326 0 .761.004 1.205.425 1.205 1.11-.002.68-.453 1.098-1.209 1.103-.875.004-1.752 0-2.628 0ZM62.29 7.891c-.415 0-.83.019-1.245-.004a1.124 1.124 0 0 1-1.05-1.076c-.014-.538.454-1.103 1.008-1.123a36.628 36.628 0 0 1 2.626 0c.55.018 1.033.585 1.024 1.115-.011.553-.482 1.057-1.051 1.084-.436.023-.874.004-1.312.004Z"/><path fill="#4453A4" d="M44.643 21.556c-.306.513-.541 1.093-.938 1.524-.765.83-1.602 1.598-2.45 2.346-.38.336-.47.689-.39 1.15.208 1.15.37 2.31.61 3.45.189.895-.079 1.608-.75 2.15-.677.551-1.457.654-2.258.237-1.1-.573-2.202-1.14-3.288-1.738-.383-.21-.687-.227-1.08-.006-.998.566-2.034 1.064-3.037 1.618-.843.468-1.678.534-2.459-.059-.759-.578-1.02-1.346-.79-2.322.25-1.067.391-2.16.576-3.245.083-.493.02-.903-.414-1.278-.822-.706-1.574-1.492-2.366-2.233-.678-.632-1.012-1.39-.746-2.296.262-.894.914-1.404 1.845-1.537 1.112-.16 2.222-.345 3.34-.47.522-.06.873-.219 1.104-.736.477-1.064 1.03-2.093 1.54-3.142.401-.823 1.033-1.269 1.962-1.26.9.008 1.517.45 1.908 1.242.506 1.025 1.055 2.034 1.51 3.08.247.57.607.754 1.192.819 1.184.133 2.365.323 3.536.543 1.036.194 1.67 1.02 1.668 2.056.059.039.116.074.175.107Zm-2.614-.028c-1.119-.166-2.15-.386-3.19-.458-1.276-.088-2.159-.61-2.676-1.812-.44-1.021-.977-2.002-1.533-3.125-.611 1.241-1.147 2.353-1.707 3.454-.37.731-.905 1.24-1.784 1.35-1.282.165-2.554.392-3.624.56.774.862 1.585 1.803 2.438 2.704.649.685.924 1.418.712 2.379-.26 1.178-.405 2.38-.621 3.69.982-.524 1.882-.97 2.747-1.474 1.2-.7 2.336-.886 3.585-.027.846.582 1.828.964 2.86 1.492-.195-1.104-.315-2.081-.551-3.029-.344-1.378-.143-2.54 1.045-3.44.31-.234.573-.537.85-.812.469-.462.929-.929 1.45-1.452Z"/></svg>