<svg xmlns="http://www.w3.org/2000/svg" width="53" height="66" fill="none"><path fill="#F89A28" stroke="#F89A28" stroke-width=".5" d="M33.4 1.002c1.473 1.44 2.956 2.866 4.406 4.326.412.415.855.672 1.423.815 1.755.439 3.493.937 5.247 1.384.596.151.905.49 1.056 1.081.474 1.854.976 3.699 1.494 5.54.085.302.265.612.485.837a212.801 212.801 0 0 0 4.023 4.017c.479.463.587.933.405 1.57-.515 1.82-.992 3.651-1.455 5.486-.077.305-.075.664.003.969.474 1.853.97 3.7 1.482 5.543.162.583.057 1.03-.388 1.462a227.354 227.354 0 0 0-4.06 4.068 2.044 2.044 0 0 0-.482.838c-.52 1.862-1.02 3.73-1.502 5.602-.14.543-.43.853-.981.993-1.387.354-2.762.747-4.2 1.14l1.12 4.182c.136.51.077.963-.423 1.245-.562.317-1.18.005-1.379-.707-.352-1.261-.678-2.53-1.02-3.795-.037-.133-.097-.26-.167-.441-1.235 1.228-2.423 2.42-3.621 3.601-1.71 1.687-1.137 1.507-3.43.917-.617-.158-1.233-.32-1.972-.512.994 3.71 1.959 7.307 2.947 10.999 1.136-1.247 2.22-2.397 3.256-3.589.462-.53.932-.66 1.597-.433 1.488.508 2.995.962 4.605 1.473-.312-1.185-.595-2.263-.88-3.34-.053-.201-.12-.398-.166-.601-.129-.572.12-1.045.618-1.19.54-.159 1.005.11 1.191.71.124.396.217.803.324 1.205.37 1.386.771 2.765 1.09 4.163.08.352.013.898-.213 1.115-.23.217-.78.262-1.127.16-1.757-.51-3.495-1.083-5.232-1.658-.405-.135-.663-.082-.958.253-1.128 1.282-2.288 2.535-3.445 3.792-.25.273-.53.52-.797.778h-.625c-.242-.367-.595-.703-.705-1.107a924.37 924.37 0 0 1-3.396-12.695c-.154-.588-.484-.811-.985-.796-.495.013-.897.155-1.062.795a874.126 874.126 0 0 1-3.395 12.695c-.11.403-.465.74-.705 1.108h-.625c-1.233-1.322-2.535-2.587-3.677-3.985-.692-.848-1.3-1-2.302-.6-1.425.568-2.923.957-4.388 1.427-.431.138-.855.228-1.226-.13-.369-.355-.309-.77-.189-1.217 1.199-4.458 2.389-8.918 3.58-13.378.032-.119.057-.24.105-.439-1.132-.308-2.232-.691-3.363-.89-1.16-.203-1.748-.746-1.983-1.93-.324-1.628-.827-3.221-1.292-4.818a2.557 2.557 0 0 0-.577-.992c-.768-.82-1.586-1.593-2.378-2.393-.522-.527-.567-1.06-.15-1.473.422-.419.943-.37 1.477.156.918.909 1.846 1.807 2.733 2.745.272.289.495.675.605 1.055.49 1.699.948 3.405 1.378 5.12.105.42.29.619.709.724 1.733.44 3.461.898 5.181 1.39.362.103.733.31 1.002.571 1.29 1.244 2.556 2.51 3.803 3.795.305.315.57.369.977.254a203.93 203.93 0 0 1 5.242-1.405c.325-.084.708-.08 1.035.001 1.753.444 3.501.912 5.243 1.399.383.106.635.063.925-.237a160.177 160.177 0 0 1 3.798-3.802 2.629 2.629 0 0 1 1.052-.603 182.68 182.68 0 0 1 5.237-1.422c.356-.091.501-.26.591-.608.437-1.713.882-3.423 1.377-5.12.127-.437.381-.88.695-1.21a136.586 136.586 0 0 1 3.705-3.718c.313-.305.368-.572.25-.987-.472-1.66-.927-3.327-1.33-5.003a3.21 3.21 0 0 1-.01-1.452c.412-1.718.908-3.417 1.33-5.132.058-.24-.04-.623-.21-.8-1.227-1.275-2.51-2.498-3.733-3.776a3.053 3.053 0 0 1-.704-1.204 129.188 129.188 0 0 1-1.368-5.056c-.105-.419-.288-.62-.707-.727-1.733-.44-3.462-.897-5.181-1.385a2.48 2.48 0 0 1-1.002-.573 135.21 135.21 0 0 1-3.757-3.754c-.342-.355-.637-.405-1.087-.278-1.7.482-3.406.942-5.121 1.37-.364.09-.789.087-1.152-.005a193.008 193.008 0 0 1-5.185-1.378c-.385-.107-.633-.06-.923.24a150.58 150.58 0 0 1-3.755 3.755 2.768 2.768 0 0 1-1.099.643c-1.676.49-3.363.945-5.058 1.367-.495.123-.71.356-.828.843a117.9 117.9 0 0 1-1.318 4.942 3.05 3.05 0 0 1-.694 1.211 153.536 153.536 0 0 1-3.748 3.764c-.277.27-.332.515-.228.881.476 1.702.946 3.407 1.37 5.122a3 3 0 0 1 .01 1.333c-.272 1.195-.615 2.375-.939 3.559-.193.708-.631 1.011-1.21.858-.558-.148-.776-.643-.593-1.358.093-.364.157-.739.297-1.082.73-1.782.641-3.533-.012-5.325-.397-1.09-.618-2.243-.937-3.363-.158-.555-.05-.992.377-1.409a212.373 212.373 0 0 0 4.058-4.071c.232-.239.419-.57.509-.892A234.063 234.063 0 0 0 7.5 8.602c.145-.572.447-.885 1.02-1.032 1.813-.463 3.621-.945 5.42-1.462a2.734 2.734 0 0 0 1.1-.63c1.305-1.256 2.568-2.556 3.853-3.835.234-.231.502-.43.754-.643h.625c.064.042.126.103.198.123 1.923.517 3.848 1.03 5.773 1.54.117.032.253.074.362.044 2.056-.564 4.111-1.135 6.166-1.707.212.002.42.002.629.002ZM20.64 62.165c.99-3.702 1.95-7.282 2.94-10.982-1.117.297-2.12.537-3.106.832-.572.172-.988.038-1.398-.38-1.325-1.353-2.674-2.683-4.015-4.02-.15-.15-.313-.285-.543-.492l-3.349 12.509c1.632-.524 3.123-.972 4.593-1.484.694-.241 1.175-.088 1.649.455 1.021 1.177 2.09 2.312 3.228 3.562Z"/><path fill="#F89A28" stroke="#F89A28" stroke-width=".5" d="M9.746 20.775h4.768c1.583 0 3.167.017 4.75-.008.645-.01 1.148.145 1.388.913 1.292-1.053 2.567-2.017 3.754-3.08 1.105-.989 1.473-2.329 1.49-3.782.005-.457-.022-.926.081-1.365a2.562 2.562 0 0 1 2.387-1.955c1.218-.046 2.27.635 2.633 1.799.795 2.543 1.1 5.123.452 7.755-.02.08-.025.161-.052.34h.679c1.603 0 3.208-.005 4.811.001 1.28.007 2.277.529 2.792 1.73.5 1.165.268 2.232-.593 3.174-.102.111-.154.375-.095.511.518 1.22.346 2.307-.529 3.305-.11.127-.155.415-.091.572.513 1.257.303 2.35-.624 3.338-.121.128-.163.444-.098.618.742 2.032-.575 3.972-2.745 3.98-3.353.014-6.707 0-10.062.007-.778.002-1.448-.267-2.11-.66-.611-.365-1.288-.62-2.12-1.01 0 .512.012.81-.001 1.105-.035.732-.367 1.06-1.099 1.065-1.583.008-3.166.004-4.75.004h-.606a9.91 9.91 0 0 0-.075.136c.608.514 1.195 1.053 1.828 1.533 10.508 7.949 26.077 1.707 28.115-11.31 1.013-6.478-1.022-11.94-5.868-16.354-.092-.084-.192-.16-.28-.25-.422-.432-.46-.936-.105-1.337.346-.394.913-.462 1.331-.052 1.01.989 2.075 1.945 2.939 3.054 9.058 11.625 2.38 28.825-12.149 31.345-10.666 1.85-20.801-5.239-22.718-15.89C5.207 19.06 12.857 8.57 23.87 7.104c3.703-.493 7.258.013 10.675 1.522.43.19.828.451.728.953-.063.317-.315.695-.592.838-.235.122-.653.02-.938-.105-2.183-.958-4.465-1.438-6.842-1.521-7.33-.257-14.496 4.576-16.995 11.473-.048.133-.086.27-.161.51ZM20.61 35.23c1.286.157 2.393.582 3.403 1.294.247.173.628.212.95.217 1.645.02 3.292.01 4.937.01 1.666 0 3.333.006 5-.004.646-.005 1.081-.408 1.09-.963.008-.547-.427-.962-1.064-.998-.25-.015-.5.001-.75-.007-.665-.025-1.033-.347-1.045-.905-.011-.585.372-.942 1.062-.964.562-.016 1.127.014 1.687-.025a.943.943 0 0 0 .886-.955.955.955 0 0 0-.891-.951c-.372-.035-.75-.003-1.124-.029-.64-.041-1.006-.416-.985-.976.022-.534.379-.862 1.004-.885.561-.02 1.126.017 1.686-.023.575-.04.944-.456.942-.976-.003-.548-.403-.943-1.01-.965-.5-.018-1 .002-1.5-.006-.722-.012-1.137-.375-1.122-.967.014-.57.41-.898 1.112-.905.708-.007 1.417.012 2.125-.008.623-.018 1.015-.393 1.035-.943.02-.58-.37-.977-1.02-1.027-.165-.014-.333-.005-.5-.005-2.083 0-4.167.005-6.25-.003-.953-.004-1.338-.534-1.012-1.427.95-2.599.785-5.19.015-7.787-.136-.46-.41-.746-.905-.658-.463.082-.631.426-.608.88.01.208.008.417.007.625-.022 2.203-.827 4.053-2.509 5.498-.458.393-.941.757-1.408 1.139-.968.79-1.948 1.563-2.887 2.386-.2.175-.33.53-.335.807-.031 1.561-.015 3.125-.015 4.686l-.001 5.82ZM9.177 22.673c-.985 4.982-.183 9.558 2.582 13.785.382.582.772.852 1.493.817 1.33-.065 2.665-.018 3.999-.018h1.426V22.675c-3.181-.002-6.303-.002-9.5-.002Z"/></svg>