<svg xmlns="http://www.w3.org/2000/svg" width="65" height="64" fill="none"><path fill="#90C23F" d="M31.966 63.917C16.303 63.811 3.23 52.767.47 37.258-1.931 23.776 5.051 9.764 17.253 3.588 33.412-4.59 52.477 1.654 60.604 17.835c2.922 5.82 3.845 12.008 2.989 18.458-.135 1.01-.773 1.549-1.583 1.42-.823-.131-1.265-.835-1.142-1.82 1.576-12.799-4.763-24.618-16.226-30.251-14.919-7.329-33.4-.268-39.66 15.153-6.026 14.854.703 31.47 15.388 37.912 4.943 2.168 10.116 2.861 15.471 2.145 1.044-.138 1.76.282 1.895 1.129.13.832-.423 1.43-1.49 1.605-.15.024-.298.058-.447.068-1.279.09-2.556.177-3.833.263Z"/><path fill="#90C23F" d="M31.368 5.117c13.98.016 25.35 9.908 27.156 23.13.153 1.116.187 2.252.233 3.38.043 1.016-.484 1.653-1.313 1.681-.837.028-1.414-.631-1.432-1.673-.09-5.519-1.78-10.508-5.31-14.737C44.69 9.692 36.92 6.57 27.683 8.324c-10.265 1.949-16.75 8.334-19.206 18.486-2.937 12.154 4.75 24.876 16.839 28.254 2.115.592 4.267.91 6.467.936 1.16.014 1.842.945 1.436 1.902-.271.64-.794.849-1.458.847-4.14-.022-8.119-.863-11.753-2.83C9.743 50.364 4.693 41.691 5.226 30.02c.48-10.503 7.948-20.046 17.947-23.428 2.856-.97 5.78-1.49 8.195-1.474Z"/><path fill="#90C23F" d="M35.012 49.528c-.016-8.038 6.455-14.532 14.49-14.538a14.482 14.482 0 0 1 14.522 14.506C64.022 57.498 57.572 63.972 49.572 64c-8.034.026-14.544-6.444-14.56-14.472Zm14.524-11.797c-6.48-.006-11.767 5.253-11.781 11.72-.014 6.48 5.243 11.782 11.703 11.804 6.508.022 11.823-5.267 11.82-11.763 0-6.476-5.27-11.755-11.742-11.761ZM33.347 24.091c0 1.257-.028 2.514.023 3.77.01.275.229.647.464.796 1.623 1.03 2.305 2.914 1.627 4.647a3.729 3.729 0 0 1-4.342 2.277c-.498-.115-.774-.006-1.104.33-1.691 1.72-3.405 3.416-5.112 5.122-.159.159-.316.328-.493.466-.583.46-1.351.42-1.846-.08a1.356 1.356 0 0 1-.062-1.848c.424-.495.907-.94 1.37-1.402 1.4-1.406 2.8-2.813 4.215-4.207.29-.286.424-.521.29-.971-.508-1.708.15-3.381 1.678-4.278.415-.243.531-.503.527-.95-.018-2.312-.008-4.623-.008-6.936 0-.225-.01-.452.008-.677.067-.871.585-1.412 1.354-1.424.798-.012 1.383.55 1.406 1.448.032 1.305.008 2.612.008 3.92-.005-.003-.003-.003-.003-.003Zm-1.425 8.827c.57.018 1.025-.404 1.015-.973-.01-.591-.33-.937-.915-.998-.557-.058-1.031.376-1.06.933a.978.978 0 0 0 .96 1.038ZM20.862 44.499c-.191.436-.252.754-.437.961a19.443 19.443 0 0 1-1.637 1.645c-.52.459-1.29.396-1.78-.058-.506-.473-.603-1.287-.134-1.832.503-.586 1.021-1.197 1.653-1.617.364-.242 1.024-.286 1.44-.129.38.14.61.678.895 1.03ZM50.935 30.517c.388.028.792.018 1.182.093.676.128 1.032.583 1.08 1.259.048.66-.358 1.29-1.028 1.363-.86.093-1.747.093-2.606-.006-.672-.078-.998-.63-1.016-1.301-.018-.654.43-1.2 1.105-1.317.416-.075.846-.063 1.283-.09ZM33.366 50.841c-.02.398 0 .805-.066 1.197-.121.71-.686 1.158-1.368 1.146-.682-.012-1.249-.476-1.315-1.197a13.73 13.73 0 0 1-.018-2.172c.05-.766.605-1.267 1.31-1.29.735-.027 1.324.482 1.417 1.268.042.346.006.7.006 1.05.012-.002.022-.002.034-.002ZM33.32 13.023c0 .374.044.756-.01 1.122-.105.734-.715 1.235-1.4 1.208-.664-.024-1.243-.517-1.3-1.224-.058-.745-.06-1.503.004-2.247.063-.732.616-1.178 1.314-1.19.695-.012 1.249.418 1.371 1.134.069.39.048.796.067 1.197h-.047ZM13.068 33.348c-.447-.022-.827-.004-1.195-.066-.718-.12-1.16-.664-1.158-1.355.002-.696.44-1.265 1.168-1.332.769-.068 1.55-.066 2.32.002a1.286 1.286 0 0 1 1.17 1.338c-.039.698-.399 1.19-1.108 1.325-.413.082-.845.066-1.197.088ZM46.208 16.416c.286.229.813.458.982.842.166.386.138 1.038-.093 1.376-.444.65-1.052 1.209-1.671 1.711-.515.419-1.136.362-1.66-.074-.504-.42-.703-1.076-.347-1.547.591-.784 1.371-1.428 2.091-2.11.11-.104.328-.098.698-.198ZM17.789 16.35c.432.21.764.297.995.5.525.462 1.026.96 1.489 1.482a1.34 1.34 0 0 1-.07 1.895 1.329 1.329 0 0 1-1.839.024 18.22 18.22 0 0 1-1.537-1.54c-.382-.431-.472-.998-.13-1.46.273-.369.724-.606 1.092-.902Z"/><path fill="#90C23F" d="M50.772 41.156c1.745.396 3.14 1.255 4.048 2.803.531.907.402 1.744-.33 2.176-.722.426-1.448.169-2.005-.714-1.1-1.743-3.982-2.226-5.6-.937-1.223.973-1.063 2.482.414 3.02.85.31 1.82.286 2.725.463.98.191 2.005.306 2.908.694 1.731.748 2.886 2.091 2.894 4.048.008 2.076-1.022 3.634-2.878 4.6-.396.205-.835.378-1.273.444-.581.089-.984.195-1.139.901-.134.618-.72.877-1.367.809-.65-.069-1.118-.439-1.164-1.082-.04-.575-.344-.732-.805-.891-1.546-.533-2.76-1.525-3.68-2.866-.537-.782-.419-1.585.267-2.053.64-.437 1.44-.276 1.967.456 1.317 1.834 3.091 2.492 5.27 2.037.47-.098.96-.346 1.322-.66 1.125-.975.984-2.439-.343-3.105-.674-.337-1.472-.45-2.229-.585-.812-.145-1.657-.12-2.46-.3-2.356-.524-3.89-2.19-3.98-4.22-.092-2.165 1.332-4.087 3.615-4.805.567-.18 1.02-.29 1.13-1.028.082-.545.613-.826 1.205-.834.621-.008 1.06.28 1.29.85.095.22.123.475.198.779Z"/></svg>