<svg xmlns="http://www.w3.org/2000/svg" width="42" height="42" fill="none"><path fill="#484848" stroke="#484848" stroke-width=".5" d="M37.667 40.885H4.333A3.337 3.337 0 0 1 1 37.552v-25a3.337 3.337 0 0 1 3.333-3.334H21a.833.833 0 0 1 0 1.667H4.333c-.919 0-1.666.748-1.666 1.667v25c0 .919.747 1.666 1.666 1.666h33.334c.919 0 1.666-.747 1.666-1.666v-25c0-.92-.747-1.667-1.666-1.667a.833.833 0 0 1 0-1.667A3.337 3.337 0 0 1 41 12.552v25a3.337 3.337 0 0 1-3.333 3.333Z"/><path fill="#484848" stroke="#484848" stroke-width=".5" d="M37.67 37.552H9.335v-25h8.333a.833.833 0 0 1 0 1.666h-6.666v21.667h25V14.218h-1.667a.833.833 0 0 1 0-1.666h3.333v25ZM7.667 35.885H1V14.218h6.667v21.667Zm-5-1.667H6V15.885H2.667v18.333Z"/><path fill="#484848" stroke="#484848" stroke-width=".5" d="m15.535 23.852 2.2-6.915L32.727 1.945c1.259-1.26 3.455-1.26 4.714 0a3.336 3.336 0 0 1 0 4.713L22.449 21.652l-6.914 2.2Zm3.665-6.023-1.1 3.457 3.457-1.1L36.264 5.48c.65-.65.65-1.707 0-2.357-.63-.63-1.728-.63-2.358 0L19.2 17.83ZM1.836 20.885h5v1.667h-5v-1.667Zm0 6.667h5v1.666h-5v-1.666Z"/><path fill="#484848" stroke="#484848" stroke-width=".5" d="M35.67 8.082a.83.83 0 0 1-.59-.245l-3.535-3.535a.833.833 0 0 1 1.178-1.179L36.26 6.66a.833.833 0 0 1-.59 1.423Zm-4.711 4.714a.831.831 0 0 1-.59-.244l-3.535-3.536a.832.832 0 0 1 .27-1.36.833.833 0 0 1 .908.182l3.536 3.535a.832.832 0 0 1-.59 1.423Zm-8.957 8.957a.83.83 0 0 1-.59-.245l-3.535-3.535a.833.833 0 1 1 1.178-1.179l3.536 3.536a.833.833 0 0 1-.59 1.423Zm-6.836 3.299a.833.833 0 0 1-.589-1.423l1.65-1.649a.833.833 0 1 1 1.178 1.178l-1.65 1.65a.83.83 0 0 1-.589.244Z"/></svg>