<svg width="41" height="42" fill="none" xmlns="http://www.w3.org/2000/svg"><path d="M20.593 7.577c-7.177 0-13.016 5.839-13.016 13.016 0 4.297 2.094 8.114 5.315 10.486v2.21c0 1.096.75 2.02 1.764 2.286a1.964 1.964 0 0 0 1.795 2.751h.19A1.964 1.964 0 0 0 18.47 41h4.246a1.964 1.964 0 0 0 1.828-2.674h.19a1.964 1.964 0 0 0 1.796-2.75 2.368 2.368 0 0 0 1.764-2.288v-2.21c3.221-2.37 5.315-6.188 5.315-10.485 0-7.177-5.838-13.016-13.015-13.016Zm2.122 32.173H18.47a.713.713 0 0 1 0-1.424h4.245a.713.713 0 0 1 0 1.424Zm2.019-2.674H16.45a.713.713 0 0 1 0-1.423h8.283a.713.713 0 0 1 0 1.423Zm2.31-3.788c0 .615-.5 1.115-1.115 1.115H15.256c-.614 0-1.114-.5-1.114-1.115v-1.394a12.937 12.937 0 0 0 6.45 1.714c2.346 0 4.549-.624 6.451-1.714v1.394Zm-6.451-11.62a5.94 5.94 0 0 1-1.467-3.933 5.94 5.94 0 0 1 1.467-3.933 5.94 5.94 0 0 1 1.466 3.933 5.94 5.94 0 0 1-1.466 3.934Zm.625 10.674v-3.156a7.678 7.678 0 0 0 5.765-2.027 7.676 7.676 0 0 0 2.446-5.011.625.625 0 0 0-.52-.668 7.678 7.678 0 0 0-6.492 1.943c-.455.42-.858.894-1.2 1.411v-2.003a7.286 7.286 0 0 0 2.092-5.095 7.284 7.284 0 0 0-2.289-5.289.625.625 0 0 0-.855 0 7.285 7.285 0 0 0-2.289 5.289c0 1.902.76 3.743 2.091 5.095v2.003a7.735 7.735 0 0 0-1.198-1.411 7.678 7.678 0 0 0-6.492-1.943.625.625 0 0 0-.521.668 7.677 7.677 0 0 0 2.447 5.011 7.678 7.678 0 0 0 5.765 2.027v3.156c-6.199-.326-11.141-5.471-11.141-11.75 0-6.487 5.278-11.765 11.766-11.765 6.487 0 11.765 5.278 11.765 11.766 0 6.277-4.942 11.423-11.14 11.749Zm.076-4.402c.543-3.024 3.224-5.314 6.351-5.314.153 0 .307.005.46.016-.543 3.024-3.224 5.314-6.351 5.314-.154 0-.307-.005-.46-.016Zm-1.402 0c-.154.01-.308.016-.46.016-3.128 0-5.81-2.29-6.352-5.314.153-.01.307-.016.46-.016 3.127 0 5.809 2.29 6.352 5.314Zm20.293-7.347a.625.625 0 0 1-.625.625h-3.188a.625.625 0 0 1 0-1.25h3.188a.625.625 0 0 1 .625.625ZM34.447 6.739a.625.625 0 0 1 0 .883l-2.255 2.255a.623.623 0 0 1-.884 0 .625.625 0 0 1 0-.884l2.255-2.254a.626.626 0 0 1 .884 0Zm-14.48-1.926V1.625a.625.625 0 1 1 1.25 0v3.188a.625.625 0 0 1-1.25 0ZM8.994 9.877 6.74 7.622a.625.625 0 1 1 .883-.883l2.255 2.254a.626.626 0 0 1-.884.884ZM5.438 20.593a.625.625 0 0 1-.625.625H1.625a.625.625 0 1 1 0-1.25h3.188a.625.625 0 0 1 .625.625Z" fill="#0072BC" stroke="#0072BC" stroke-width=".5"/></svg>