<svg width="42" height="42" fill="none" xmlns="http://www.w3.org/2000/svg"><path d="M10.182 34.268c0-.522.022-1.051-.006-1.578-.032-.601-.342-1.07-.789-1.465-1.377-1.216-2.736-2.45-4.12-3.656a4.267 4.267 0 0 1-1.375-2.228c-.891-3.43-1.82-6.85-2.748-10.271-.347-1.285-.04-2.327 1.025-3.145a.546.546 0 0 0 .16-.38c.03-1.384.931-2.501 2.202-2.71 1.328-.223 2.599.59 3.053 1.913.946 2.76 1.902 5.519 2.867 8.273a.8.8 0 0 0 .326.391c1.855 1.108 3.732 2.201 5.602 3.304 2.114 1.243 3.169 3.091 3.164 5.544v6.005c.59.247.668.363.668.972v4.888c0 .655-.222.876-.877.877h-8.938c-.658 0-.88-.222-.88-.873v-4.887c-.003-.62.08-.738.666-.974Zm8.028.024v-.301c0-1.993.02-3.984-.007-5.977-.023-1.71-.78-3.046-2.217-3.98-.446-.287-.908-.54-1.365-.808a781.39 781.39 0 0 0-4.54-2.656c-.806-.468-1.707-.175-2.004.632-.241.657 0 1.286.652 1.671 1.225.715 2.46 1.418 3.683 2.137.383.223.482.585.295.923-.188.337-.567.445-.937.239-1.317-.752-2.64-1.495-3.93-2.289-.965-.592-1.469-1.795-1.082-2.831.266-.714.154-1.305-.087-1.947-.123-.324-.223-.66-.326-.99-.458-1.416-.911-2.833-1.373-4.247-.215-.66-.755-1.054-1.402-1.04a1.24 1.24 0 0 0-1.185.99c-.049.3-.032.608.05.9.925 3.481 1.87 6.956 2.797 10.437.125.502.401.953.79 1.292 1.41 1.244 2.804 2.507 4.219 3.745.874.765 1.313 1.705 1.286 2.866-.009.412 0 .823 0 1.234h6.683Zm.634 5.354v-3.963h-7.97v3.963h7.97ZM3.696 11.466c1.464.155 2.32.995 2.673 2.4.083.322.204.633.306.95l1.444 4.447.89-.268-1.349-3.898c-.452-1.312-.906-2.623-1.36-3.935-.243-.697-.924-1.121-1.59-1.002a1.277 1.277 0 0 0-1.014 1.306ZM31.576 34.274c.575.223.668.35.668.933v4.93c0 .63-.23.861-.85.862h-8.98c-.646 0-.864-.223-.866-.89 0-1.603.01-3.204-.005-4.805 0-.51.081-.922.674-1.015v-6.045c0-2.455 1.058-4.301 3.173-5.54 1.836-1.075 3.676-2.143 5.503-3.23.203-.127.36-.317.446-.542.973-2.75 1.926-5.51 2.885-8.266a2.722 2.722 0 0 1 3.024-1.831c1.26.217 2.167 1.336 2.195 2.673a.652.652 0 0 0 .2.445c.994.792 1.33 1.782.994 3.041-.775 2.92-1.554 5.836-2.338 8.746-.154.578-.316 1.152-.458 1.734a3.71 3.71 0 0 1-1.194 1.961c-1.37 1.203-2.712 2.44-4.097 3.625-.691.589-1.047 1.274-.978 2.184.025.332.004.667.004 1.03Zm-1.337.03v-1.325c-.01-1.114.414-2.022 1.25-2.756 1.421-1.25 2.83-2.517 4.25-3.77.39-.338.667-.787.794-1.287.932-3.507 1.877-7.011 2.814-10.518.223-.85-.123-1.56-.862-1.777-.703-.21-1.448.237-1.704 1.033-.652 2.01-1.306 4.02-1.94 6.036a.97.97 0 0 0 .038.622c.506 1.194.19 2.587-.884 3.27-1.313.835-2.682 1.585-4.035 2.357a.636.636 0 0 1-.9-.25c-.183-.323-.087-.676.25-.905.069-.047.143-.086.216-.128l3.435-1.98c.404-.231.722-.53.79-1.014.074-.537-.079-1.003-.536-1.318-.484-.334-.992-.334-1.494-.042a1856.967 1856.967 0 0 0-5.76 3.378c-1.596.945-2.395 2.36-2.404 4.21-.011 1.923 0 3.845 0 5.767v.393l6.683.004Zm-7.324 1.364v3.961h7.97v-3.96h-7.97Zm15.159-24.201c-.019-.669-.445-1.194-1.04-1.298-.667-.118-1.315.283-1.559.973-.637 1.832-1.272 3.667-1.903 5.505-.27.78-.542 1.56-.818 2.352l.892.253c.608-1.88 1.225-3.736 1.807-5.605.4-1.3 1.238-2.032 2.621-2.18ZM20.88 2.963a6.906 6.906 0 0 1 3.689-1.87c3.707-.649 7.393 2.21 7.685 5.957.164 2.145-.512 3.971-2.027 5.486l-8.681 8.687c-.528.527-.806.528-1.33 0-2.953-2.953-5.928-5.885-8.85-8.869-3.162-3.23-2.259-8.56 1.757-10.617a6.683 6.683 0 0 1 7.414.92l.343.306Zm-.037 17.027c.098-.079.144-.11.182-.148 2.814-2.816 5.649-5.613 8.437-8.457 2.034-2.075 1.973-5.41-.068-7.462a5.346 5.346 0 0 0-7.492-.082c-.171.163-.334.335-.506.497-.346.32-.69.324-1.032.008-.194-.18-.373-.375-.566-.557a5.332 5.332 0 0 0-6.413-.668c-3.017 1.846-3.47 5.885-.933 8.436a2153.95 2153.95 0 0 0 6.905 6.914c.494.497.976.997 1.486 1.52Z" fill="#484848" stroke="#484848" stroke-width=".5"/><path d="M22.885 12.246c0 .668.005 1.275 0 1.886-.006.542-.25.78-.798.787-.807.006-1.614.006-2.421 0-.545 0-.78-.248-.79-.795-.005-.61 0-1.22 0-1.878h-1.812c-.63 0-.859-.228-.86-.85V9.096c0-.631.222-.86.847-.862h1.825V6.413c0-.626.229-.85.859-.852h2.339c.572 0 .807.24.812.815v1.858h1.749c.715 0 .924.207.925.912v2.214c0 .659-.223.883-.869.89-.587-.004-1.167-.004-1.806-.004Zm-5.328-1.336h1.775c.655 0 .876.222.879.873v1.768h1.336v-1.783c0-.629.223-.855.852-.858h1.797V9.573h-1.769c-.656 0-.877-.223-.88-.872v-1.77h-1.34v1.782c0 .627-.23.856-.853.859h-1.8l.004 1.338Z" fill="#484848" stroke="#484848" stroke-width=".5"/></svg>