<svg width="42" height="42" fill="none" xmlns="http://www.w3.org/2000/svg"><path d="m30.356 16.11.019-6.983a1.25 1.25 0 0 0-2.14-.878c-1.618 1.653-5.766 5.882-15.03 7.37a1.873 1.873 0 0 0-1.58-.869H6a1.877 1.877 0 0 0-1.8 1.358 52.17 52.17 0 0 1-1.136-.05 1.882 1.882 0 0 0-1.401.52 2.089 2.089 0 0 0-.653 1.509L1 21.942a2.092 2.092 0 0 0 .66 1.53 1.838 1.838 0 0 0 1.394.506c.38-.026.75-.046 1.119-.064a1.876 1.876 0 0 0 1.75 1.457c.244.502.48 1 .682 1.439 1.003 1.955.506 4.53.246 5.545a.926.926 0 0 0 .265.918.892.892 0 0 0 .88.175l4.265-1.525a.927.927 0 0 0 .534-.505.954.954 0 0 0 .003-.756l-1.789-4.136c-.176-.374-.33-.758-.461-1.15h1.077a1.875 1.875 0 0 0 1.66-1.008c9.055 1.49 13.242 5.806 14.883 7.5a1.261 1.261 0 0 0 1.367.29 1.242 1.242 0 0 0 .78-1.151l.02-6.982a4.36 4.36 0 0 0 .021-7.915ZM4.125 22.664c-.381.019-.766.04-1.158.067a.609.609 0 0 1-.454-.173.85.85 0 0 1-.263-.613l.01-3.855a.844.844 0 0 1 .26-.602.635.635 0 0 1 .473-.183c.381.022.757.037 1.132.05v5.31Zm7.397 8.196-3.32 1.187c.282-1.387.539-3.812-.473-5.783a78.026 78.026 0 0 0-.416-.889h1.92c.17.57.383 1.128.638 1.666l1.65 3.819Zm.728-7.36a.626.626 0 0 1-.625.625H6a.625.625 0 0 1-.625-.625v-6.875A.626.626 0 0 1 6 16h5.625a.626.626 0 0 1 .625.625V23.5ZM29.125 31l-.06-.001c-1.72-1.777-6.12-6.311-15.565-7.865v-6.31a32.135 32.135 0 0 0 7.936-2.32 23.89 23.89 0 0 0 7.689-5.379V31Zm1.213-8.417.014-5.03a3.111 3.111 0 0 1-.014 5.03Zm4.1-4.395a.623.623 0 0 0 .441-.183l1.875-1.875a.625.625 0 0 0-.883-.884l-1.875 1.875a.625.625 0 0 0 .441 1.067Zm-.442 4.817 1.875 1.875a.625.625 0 0 0 .883-.884l-1.875-1.875a.625.625 0 0 0-.883.884Z" fill="#484848" stroke="#484848" stroke-width=".5"/><path d="M9.439 20.064a.625.625 0 1 0-1.25-.003.625.625 0 0 0 1.25.003ZM24.751 6.313a.622.622 0 0 0 .365-.118l3.91-2.818a.624.624 0 0 0 1.202.262l.726-1.777a.625.625 0 0 0-.661-.856l-1.882.25a.624.624 0 0 0-.207 1.172l-3.82 2.753a.625.625 0 0 0 .366 1.132h.001Zm11.25-.938c.13 0 .257-.04.363-.116l2.898-2.07a.619.619 0 0 0 .889.23.625.625 0 0 0 .23-.27l.565-1.27a.624.624 0 0 0-.646-.874l-1.464.179a.623.623 0 0 0-.38 1.044l-2.819 2.014a.625.625 0 0 0 .364 1.133Zm-1.418.89a.625.625 0 1 0-1.25-.003.625.625 0 0 0 1.25.003Zm-11.394.987a.625.625 0 1 0-1.25-.003.625.625 0 0 0 1.25.003Zm7.038 31.108a.624.624 0 0 0-1.2.263l-3.911-2.817a.625.625 0 1 0-.731 1.014l3.819 2.752a.624.624 0 0 0 .207 1.172l1.881.25a.625.625 0 0 0 .662-.856l-.727-1.777Zm10.154.491a.622.622 0 0 0-1.12-.04l-2.897-2.07a.625.625 0 0 0-.727 1.018l2.819 2.013a.617.617 0 0 0-.037.809.624.624 0 0 0 .417.235l1.463.18a.625.625 0 0 0 .647-.875l-.565-1.27Zm-6.491-2.422a.625.625 0 1 0 0-1.25.625.625 0 0 0 0 1.25ZM22.492 35.42a.625.625 0 1 0 0-1.25.625.625 0 0 0 0 1.25ZM38.5 20.063a.625.625 0 0 0-.625-.625H34.75a.625.625 0 0 0 0 1.25h3.125a.625.625 0 0 0 .625-.625Zm-19.063-8.75a1.875 1.875 0 1 0 0-3.75 1.875 1.875 0 0 0 0 3.75Zm0-2.5a.625.625 0 1 1 0 1.25.625.625 0 0 1 0-1.25Zm0 21.875a1.875 1.875 0 1 0 0 3.75 1.875 1.875 0 0 0 0-3.75Zm0 2.5a.625.625 0 1 1 0-1.25.625.625 0 0 1 0 1.25Z" fill="#484848" stroke="#484848" stroke-width=".5"/></svg>