<svg width="42" height="42" fill="none" xmlns="http://www.w3.org/2000/svg"><path d="m40.36 17.069-5.236-1.245a14.605 14.605 0 0 0-.549-1.297l2.794-4.529a.835.835 0 0 0-.12-1.026l-4.314-4.323a.834.834 0 0 0-1.028-.12l-4.576 2.826a13.848 13.848 0 0 0-1.312-.54l-1.22-5.173A.833.833 0 0 0 23.99 1h-6.112a.832.832 0 0 0-.81.641L15.827 6.87a14.71 14.71 0 0 0-1.295.548L9.997 4.624a.832.832 0 0 0-1.027.12L4.656 9.06a.833.833 0 0 0-.12 1.027l2.818 4.578c-.205.434-.386.873-.54 1.313L1.64 17.204a.833.833 0 0 0-.641.811v6.105c0 .387.265.722.641.811l5.226 1.237c.16.44.346.874.555 1.301l-2.798 4.532a.832.832 0 0 0 .12 1.027l4.322 4.324a.833.833 0 0 0 1.027.12l4.578-2.827c.416.194.851.374 1.302.535l1.229 5.18c.089.375.425.64.81.64h6.104a.833.833 0 0 0 .81-.64l1.246-5.233a14.73 14.73 0 0 0 1.299-.552l4.532 2.8a.831.831 0 0 0 1.027-.12l4.314-4.315a.832.832 0 0 0 .12-1.026l-2.829-4.583c.209-.442.388-.875.542-1.308l5.182-1.227a.833.833 0 0 0 .641-.811V17.88a.833.833 0 0 0-.64-.811Zm-1.027 6.257-4.99 1.182a.835.835 0 0 0-.604.561c-.2.634-.46 1.265-.795 1.927a.852.852 0 0 0-.09.381v.007a.843.843 0 0 0 .124.434l2.722 4.41-3.382 3.383-4.368-2.698a.83.83 0 0 0-.825-.03 13.15 13.15 0 0 1-1.925.82.833.833 0 0 0-.544.597l-1.198 5.033H18.67l-1.183-4.985a.832.832 0 0 0-.552-.6 13.268 13.268 0 0 1-1.931-.796.83.83 0 0 0-.818.033l-4.409 2.722-3.39-3.39 2.698-4.37a.834.834 0 0 0 .028-.829 12.2 12.2 0 0 1-.798-1.853.833.833 0 0 0-.618-.613l-5.031-1.19v-4.788l4.983-1.182a.835.835 0 0 0 .604-.564c.2-.645.467-1.294.793-1.93a.832.832 0 0 0-.033-.816L6.3 9.772 9.683 6.39l4.369 2.69a.834.834 0 0 0 .817.033 13.13 13.13 0 0 1 1.924-.813.833.833 0 0 0 .551-.6l1.192-5.032h4.792l1.175 4.983a.836.836 0 0 0 .564.605c.645.2 1.293.467 1.93.793.258.131.569.12.817-.033l4.407-2.722 3.384 3.39-2.69 4.363a.835.835 0 0 0-.033.817c.343.67.608 1.3.812 1.924.09.276.317.485.6.553l5.04 1.198v4.788Z" fill="#484848" stroke="#484848" stroke-width=".5"/><path d="M21.001 9.673c-6.274 0-11.343 5.07-11.34 11.328 0 6.376 5.197 11.326 11.348 11.326 4.437 0 8.393-2.576 10.24-6.478A11.334 11.334 0 0 0 29.02 12.99a11.274 11.274 0 0 0-8.019-3.317Zm.008 20.987a9.74 9.74 0 0 1-4.84-1.305l-.002-.069a3.863 3.863 0 0 1 3.882-3.719h1.91c2.137 0 3.842 1.668 3.88 3.783v.005h.009a9.579 9.579 0 0 1-4.84 1.305Zm8.735-5.526a9.616 9.616 0 0 1-2.361 3.125c-.534-2.515-2.74-4.359-5.425-4.359H20.05a5.523 5.523 0 0 0-5.424 4.365A9.595 9.595 0 0 1 11.327 21c-.002-5.282 4.272-9.66 9.674-9.66a9.617 9.617 0 0 1 6.841 2.83 9.665 9.665 0 0 1 1.902 10.964Z" fill="#484848" stroke="#484848" stroke-width=".5"/><path d="M21.092 14.215c-2.227 0-4.037 1.805-4.037 4.023 0 2.24 1.8 4.945 4.037 4.945 2.236 0 4.037-2.705 4.037-4.945 0-2.218-1.81-4.023-4.037-4.023Zm0 7.3c-1.199 0-2.37-1.876-2.37-3.277 0-1.299 1.063-2.356 2.37-2.356a2.366 2.366 0 0 1 2.37 2.356c0 1.401-1.171 3.278-2.37 3.278Z" fill="#484848" stroke="#484848" stroke-width=".5"/></svg>