<svg width="42" height="39" fill="none" xmlns="http://www.w3.org/2000/svg"><path fill-rule="evenodd" clip-rule="evenodd" d="M30.753 25.813a.119.119 0 0 1 .101-.043h.387c.046 0 .07.01.1.043a.12.12 0 0 1 .04.102l-.194 5.355a.14.14 0 0 1-.28 0l-.193-5.355a.118.118 0 0 1 .04-.102Zm.295 6.842a1.386 1.386 0 0 0 1.389-1.34l.193-5.355a1.361 1.361 0 0 0-.389-1.015 1.36 1.36 0 0 0-1-.425h-.387c-.386 0-.732.147-1 .425a1.36 1.36 0 0 0-.389 1.015l.194 5.355a1.386 1.386 0 0 0 1.389 1.34Zm0 2.46a.356.356 0 1 1 0-.712.356.356 0 0 1 0 .712Zm0-1.96c-.885 0-1.605.72-1.605 1.605s.72 1.604 1.604 1.604c.886 0 1.606-.72 1.606-1.604 0-.885-.72-1.606-1.605-1.606Zm8.389 2.93a2.273 2.273 0 0 0 0-2.297l-6.4-11.084a2.274 2.274 0 0 0-1.99-1.149c-.83 0-1.574.43-1.989 1.15l-6.4 11.083a2.274 2.274 0 0 0 0 2.297 2.273 2.273 0 0 0 1.99 1.149h12.799c.83 0 1.574-.429 1.99-1.149Zm1.082-2.922-6.4-11.084a3.511 3.511 0 0 0-3.072-1.774c-1.282 0-2.43.663-3.072 1.774l-6.399 11.084a3.512 3.512 0 0 0 0 3.547 3.51 3.51 0 0 0 3.072 1.774h12.799a3.51 3.51 0 0 0 3.072-1.774 3.51 3.51 0 0 0 0-3.547ZM25.795 8.384c.344-.672.93-1.17 1.648-1.402a2.815 2.815 0 0 1 2.157.174 2.81 2.81 0 0 1 1.403 1.65c.232.718.17 1.484-.175 2.157a2.83 2.83 0 0 1-3.806 1.227 2.831 2.831 0 0 1-1.227-3.806Zm.657 4.918a4.082 4.082 0 0 0 5.488-1.77c.497-.969.587-2.074.252-3.11a4.052 4.052 0 0 0-2.021-2.378 4.05 4.05 0 0 0-3.111-.251 4.05 4.05 0 0 0-2.377 2.021 4.05 4.05 0 0 0-.252 3.11 4.049 4.049 0 0 0 2.021 2.378ZM21.8 10.97l-.81.655.239.742 1.04.057a.625.625 0 0 1 .513.321c.408.738.95 1.374 1.608 1.893a.625.625 0 0 1 .234.557l-.11 1.036.694.355.776-.694a.626.626 0 0 1 .589-.135c.807.232 1.64.299 2.476.2a.625.625 0 0 1 .56.227l.654.811.742-.24.058-1.04a.623.623 0 0 1 .32-.512 6.263 6.263 0 0 0 1.893-1.608.625.625 0 0 1 .557-.235l1.036.11.355-.693-.694-.776a.624.624 0 0 1-.135-.589c.232-.807.299-1.64.2-2.476a.624.624 0 0 1 .228-.56l.81-.655-.239-.741-1.04-.058a.625.625 0 0 1-.513-.321 6.263 6.263 0 0 0-1.608-1.893.625.625 0 0 1-.235-.556l.11-1.036-.693-.355-.776.694a.625.625 0 0 1-.59.135 6.256 6.256 0 0 0-2.475-.2.625.625 0 0 1-.56-.228l-.654-.81-.742.239-.058 1.04a.624.624 0 0 1-.32.512 6.254 6.254 0 0 0-1.893 1.609.625.625 0 0 1-.558.234l-1.035-.11-.356.694.695.776a.624.624 0 0 1 .135.589 6.26 6.26 0 0 0-.2 2.476.624.624 0 0 1-.228.56Zm-1.63 2.189a.624.624 0 0 0 .561.432l1.134.063a7.49 7.49 0 0 0 1.481 1.743l-.12 1.128a.625.625 0 0 0 .337.623l1.457.746a.625.625 0 0 0 .702-.09l.845-.757a7.48 7.48 0 0 0 2.28.184l.714.884a.626.626 0 0 0 .678.202l1.558-.503a.624.624 0 0 0 .432-.56l.063-1.134a7.487 7.487 0 0 0 1.743-1.481l1.129.12a.627.627 0 0 0 .622-.337l.747-1.457a.625.625 0 0 0-.09-.702l-.757-.845c.177-.746.24-1.515.184-2.28l.883-.714a.626.626 0 0 0 .202-.678l-.503-1.558a.625.625 0 0 0-.56-.432l-1.134-.063a7.5 7.5 0 0 0-1.48-1.743l.12-1.129a.625.625 0 0 0-.337-.622l-1.458-.747a.625.625 0 0 0-.702.09l-.845.758a7.487 7.487 0 0 0-2.28-.184l-.714-.884a.624.624 0 0 0-.678-.202l-1.558.503a.625.625 0 0 0-.432.56l-.063 1.134c-.654.401-1.241.9-1.743 1.48l-1.128-.119a.624.624 0 0 0-.623.336l-.746 1.458a.626.626 0 0 0 .09.701l.757.846a7.481 7.481 0 0 0-.184 2.28l-.884.714a.625.625 0 0 0-.202.677l.503 1.559ZM18.9 31.571l-1.355-.602a.626.626 0 0 0-.602.053 8.303 8.303 0 0 1-3.048 1.263.627.627 0 0 0-.463.389l-.532 1.382h-1.268l-.532-1.382a.626.626 0 0 0-.463-.39 8.31 8.31 0 0 1-3.047-1.262.621.621 0 0 0-.603-.053l-1.354.602-.897-.897.601-1.355a.624.624 0 0 0-.052-.601 8.316 8.316 0 0 1-1.264-3.049.626.626 0 0 0-.389-.463l-1.381-.532v-1.267l1.382-.533a.624.624 0 0 0 .389-.463 8.312 8.312 0 0 1 1.263-3.047.624.624 0 0 0 .052-.602l-.601-1.355.897-.897 1.354.602a.624.624 0 0 0 .602-.053 8.318 8.318 0 0 1 3.048-1.263.625.625 0 0 0 .463-.389l.532-1.382h1.268l.533 1.382a.624.624 0 0 0 .462.389 8.316 8.316 0 0 1 3.048 1.263.626.626 0 0 0 .602.053l1.354-.602.897.897-.601 1.354a.626.626 0 0 0 .052.602 8.314 8.314 0 0 1 1.264 3.05.626.626 0 0 0 .389.462l1.381.532v1.267l-1.382.532a.626.626 0 0 0-.389.464 8.316 8.316 0 0 1-1.263 3.047.627.627 0 0 0-.052.602l.601 1.355-.896.897Zm2.213-1.013a.626.626 0 0 1-.13.696l-1.503 1.504a.626.626 0 0 1-.695.129l-1.438-.638a9.557 9.557 0 0 1-2.87 1.19l-.564 1.466a.625.625 0 0 1-.584.4h-2.126a.624.624 0 0 1-.583-.4l-.565-1.467a9.554 9.554 0 0 1-2.869-1.19l-1.438.639a.624.624 0 0 1-.695-.129l-1.504-1.504a.625.625 0 0 1-.13-.696l.639-1.437a9.533 9.533 0 0 1-1.19-2.87l-1.466-.564A.625.625 0 0 1 1 25.104v-2.127a.624.624 0 0 1 .4-.583l1.468-.565a9.54 9.54 0 0 1 1.189-2.869l-.639-1.438a.625.625 0 0 1 .13-.695l1.503-1.504a.626.626 0 0 1 .696-.13l1.438.64a9.544 9.544 0 0 1 2.869-1.19l.565-1.467a.625.625 0 0 1 .583-.4h2.127a.625.625 0 0 1 .583.4l.565 1.467a9.542 9.542 0 0 1 2.868 1.19l1.438-.64a.624.624 0 0 1 .696.13l1.504 1.504a.625.625 0 0 1 .129.695l-.638 1.438c.55.885.952 1.854 1.19 2.87l1.466.564a.624.624 0 0 1 .4.583v2.127a.625.625 0 0 1-.4.583l-1.467.565a9.545 9.545 0 0 1-1.19 2.868l.639 1.438Zm-8.847-2.26a4.262 4.262 0 0 0 4.257-4.257 4.262 4.262 0 0 0-4.257-4.258 4.262 4.262 0 0 0-4.257 4.258 4.262 4.262 0 0 0 4.257 4.257Zm0-9.765a5.514 5.514 0 0 0-5.507 5.508 5.513 5.513 0 0 0 5.507 5.506 5.513 5.513 0 0 0 5.507-5.506 5.514 5.514 0 0 0-5.507-5.508Z" fill="#484848" stroke="#484848" stroke-width=".5"/></svg>