<svg width="40" height="40" fill="none" xmlns="http://www.w3.org/2000/svg"><path d="M38.908 20.669H21.44a.932.932 0 0 0-.932.932v3.58H2.499a.633.633 0 0 1-.634-.631v-8.86a6.688 6.688 0 0 0 4.844 2.075h.403v.497c0 .88.715 1.596 1.595 1.596h.726c.88 0 1.596-.716 1.596-1.596v-.497h7.617v.497c0 .88.715 1.596 1.595 1.596h.726c.88 0 1.595-.716 1.595-1.596v-.497h.403a6.687 6.687 0 0 0 4.843-2.074v4.312h1.865V6.497c0-.422-.106-.82-.293-1.169l-.009-.02-.02-.032A2.496 2.496 0 0 0 27.177 4h-5.36V2.535A2.538 2.538 0 0 0 19.282 0h-8.883a2.538 2.538 0 0 0-2.534 2.535V4H2.498A2.502 2.502 0 0 0 0 6.5v18.05a2.5 2.5 0 0 0 2.498 2.496H20.51v12.022c0 .515.417.932.932.932h17.467a.932.932 0 0 0 .932-.932V21.6a.932.932 0 0 0-.932-.932ZM9.697 18.262a.264.264 0 0 1-.264.264h-.726a.264.264 0 0 1-.264-.264v-2.858c0-.146.118-.264.264-.264h.726c.145 0 .264.118.264.264v2.858Zm11.533 0a.264.264 0 0 1-.263.264h-.726a.264.264 0 0 1-.264-.264v-2.858c0-.146.118-.264.264-.264h.726c.145 0 .263.118.263.264v2.858Zm1.735-2.361h-.403v-.497c0-.88-.716-1.596-1.595-1.596h-.726c-.88 0-1.596.716-1.596 1.596v.497h-7.617v-.497c0-.88-.715-1.596-1.595-1.596h-.726c-.88 0-1.596.716-1.596 1.596v.497H6.71a4.849 4.849 0 0 1-4.844-4.844v-4.56c0-.348.284-.631.632-.631h24.68a.63.63 0 0 1 .553.333.62.62 0 0 1 .078.3v4.56a4.849 4.849 0 0 1-4.843 4.842ZM9.73 2.535c0-.37.3-.67.67-.67h8.882c.37 0 .67.3.67.67V4H9.73V2.535Zm19.322 23.384a.665.665 0 0 0-.772 0l-.427.303v-3.689h4.581v3.69l-.426-.304a.665.665 0 0 0-.772 0l-1.092.778-1.092-.778Zm8.924 12.216H22.374V22.534h4.147v4.981a.667.667 0 0 0 1.052.542l1.093-.777 1.091.777a.665.665 0 0 0 .773 0l1.092-.777 1.092.777a.664.664 0 0 0 1.052-.542v-4.98h4.21v15.602Z" fill="#484848"/><path d="M26.43 33.608h-2.158a.666.666 0 0 0-.666.666v2.159c0 .368.298.666.666.666h2.158a.666.666 0 0 0 .666-.666v-2.159a.666.666 0 0 0-.666-.666Zm-.666 2.16h-.826v-.828h.826v.827Zm5.013-2.16h-2.159a.666.666 0 0 0-.666.666v2.159c0 .368.298.666.666.666h2.159a.666.666 0 0 0 .666-.666v-2.159a.666.666 0 0 0-.666-.666Zm-.666 2.16h-.827v-.828h.827v.827Zm-6.506-4.19c0 .368.299.666.666.666h4.347a.666.666 0 1 0 0-1.332H24.27a.666.666 0 0 0-.666.666Z" fill="#484848"/></svg>