<svg width="42" height="42" fill="none" xmlns="http://www.w3.org/2000/svg"><path d="M17.35 36.264a5.164 5.164 0 1 0 7.303-7.303l-.916.916a3.871 3.871 0 0 1 0 5.471 3.871 3.871 0 0 1-5.471 0 3.871 3.871 0 0 1 0-5.47l-.916-.917a5.16 5.16 0 0 0 0 7.303Z" fill="#484848" stroke="#484848" stroke-width=".5"/><path d="M21.646 26.806h-1.29v5.162h1.29v-5.162Z" fill="#484848" stroke="#484848" stroke-width=".5"/><path d="M12.611 32.613a8.388 8.388 0 1 0 16.776 0 8.388 8.388 0 0 0-16.776 0Zm8.387-7.097a7.097 7.097 0 1 1 0 14.194 7.097 7.097 0 0 1 0-14.194Zm-14.916-8.31.91.916a.647.647 0 0 1 .916 0l.91-.916a1.936 1.936 0 0 0-2.736 0Z" fill="#484848" stroke="#484848" stroke-width=".5"/><path d="m4.719 15.839.91.91a2.58 2.58 0 0 1 3.651 0l.91-.91a3.87 3.87 0 0 0-5.471 0Z" fill="#484848" stroke="#484848" stroke-width=".5"/><path d="m10.68 15.38.91-.91a5.807 5.807 0 0 0-8.207 0l.91.91a4.517 4.517 0 0 1 6.387 0Zm-3.684 3.684a.645.645 0 1 0 .915.91.645.645 0 0 0-.915-.91Z" fill="#484848" stroke="#484848" stroke-width=".5"/><path d="M7.452 22.29a6.452 6.452 0 1 0 0-12.903 6.452 6.452 0 0 0 0 12.903Zm0-11.613a5.162 5.162 0 1 1 0 10.324 5.162 5.162 0 0 1 0-10.324ZM34.548 22.29a6.452 6.452 0 1 0 0-12.903 6.452 6.452 0 0 0 0 12.903Zm0-11.613a5.161 5.161 0 1 1 0 10.323 5.161 5.161 0 0 1 0-10.323ZM21 13.903A6.452 6.452 0 1 0 21 1a6.452 6.452 0 0 0 0 12.903Zm3.226-2.426a5.161 5.161 0 0 1-6.452 0 1.142 1.142 0 0 1 0-.154c0-1.426 1.445-2.581 3.226-2.581 1.78 0 3.226 1.155 3.226 2.58.003.052.003.104 0 .155ZM19.71 6.161a1.29 1.29 0 1 1 2.58 0 1.29 1.29 0 0 1-2.58 0ZM21 2.291a5.161 5.161 0 0 1 4.335 7.954 4.103 4.103 0 0 0-2.4-2.406 2.58 2.58 0 1 0-3.87 0 4.103 4.103 0 0 0-2.388 2.406A5.162 5.162 0 0 1 21 2.29Z" fill="#484848" stroke="#484848" stroke-width=".5"/><path d="M32.614 19.71h4.516a.646.646 0 0 0 .645-.645v-5.162a.645.645 0 0 0-.187-.458l-1.29-1.29a.645.645 0 0 0-.458-.187h-3.226a.646.646 0 0 0-.645.645v6.452a.645.645 0 0 0 .645.645Zm.645-6.452h2.316l.91.91v4.251h-3.226v-5.16ZM9.388 32.613h-1.29v1.29h1.29v-1.29ZM11.322 34.548h-1.29v1.29h1.29v-1.29ZM7.454 30.677h-1.29v1.29h1.29v-1.29ZM7.454 28.097h-1.29v1.29h1.29v-1.29ZM7.454 25.516h-1.29v1.29h1.29v-1.29ZM7.454 22.935h-1.29v1.29h1.29v-1.29ZM33.904 32.613h-1.29v1.29h1.29v-1.29ZM31.97 34.548h-1.29v1.29h1.29v-1.29ZM35.837 30.677h-1.29v1.29h1.29v-1.29ZM35.837 28.097h-1.29v1.29h1.29v-1.29ZM35.837 25.516h-1.29v1.29h1.29v-1.29ZM35.837 22.935h-1.29v1.29h1.29v-1.29ZM21.646 15.194h-1.29v7.741h1.29v-7.741Z" fill="#484848" stroke="#484848" stroke-width=".5"/></svg>